<mxfile host="app.diagrams.net" modified="2024-06-22T22:03:22.919Z" agent="Mozilla/5.0 (Windows NT 10.0; Win64; x64) AppleWebKit/537.36 (KHTML, like Gecko) Chrome/126.0.0.0 Safari/537.36" etag="o-Kp8TJzWxkfreAl6tWA" version="24.5.5" type="device" pages="8">
  <diagram name="Ejercicio 1" id="Qr1XWyDt6AULlcheayZu">
    <mxGraphModel dx="1214" dy="628" grid="1" gridSize="10" guides="1" tooltips="1" connect="1" arrows="1" fold="1" page="1" pageScale="1" pageWidth="827" pageHeight="1169" math="0" shadow="0">
      <root>
        <mxCell id="0" />
        <mxCell id="1" parent="0" />
        <mxCell id="qKf1pt01j6I08-uvjUVY-1" value="BASE DE DATOS DE UNA BIBLIOTECA" style="text;html=1;align=center;verticalAlign=middle;whiteSpace=wrap;rounded=0;fontStyle=1;fontSize=17;" parent="1" vertex="1">
          <mxGeometry x="340" y="40" width="190" height="30" as="geometry" />
        </mxCell>
        <mxCell id="qKf1pt01j6I08-uvjUVY-2" value="1NF" style="text;html=1;align=center;verticalAlign=middle;whiteSpace=wrap;rounded=0;fontStyle=1;fontSize=17;" parent="1" vertex="1">
          <mxGeometry y="90" width="190" height="30" as="geometry" />
        </mxCell>
        <mxCell id="qKf1pt01j6I08-uvjUVY-11" value="" style="shape=table;startSize=0;container=1;collapsible=0;childLayout=tableLayout;fontSize=16;" parent="1" vertex="1">
          <mxGeometry x="60" y="160" width="720" height="450" as="geometry" />
        </mxCell>
        <mxCell id="qKf1pt01j6I08-uvjUVY-32" style="shape=tableRow;horizontal=0;startSize=0;swimlaneHead=0;swimlaneBody=0;strokeColor=inherit;top=0;left=0;bottom=0;right=0;collapsible=0;dropTarget=0;fillColor=none;points=[[0,0.5],[1,0.5]];portConstraint=eastwest;fontSize=16;" parent="qKf1pt01j6I08-uvjUVY-11" vertex="1">
          <mxGeometry width="720" height="40" as="geometry" />
        </mxCell>
        <mxCell id="qKf1pt01j6I08-uvjUVY-52" value="ID_libro" style="shape=partialRectangle;html=1;whiteSpace=wrap;connectable=0;strokeColor=default;overflow=hidden;fillColor=#dae8fc;top=0;left=0;bottom=0;right=0;pointerEvents=1;fontSize=16;gradientColor=#7ea6e0;perimeterSpacing=5;" parent="qKf1pt01j6I08-uvjUVY-32" vertex="1">
          <mxGeometry width="181" height="40" as="geometry">
            <mxRectangle width="181" height="40" as="alternateBounds" />
          </mxGeometry>
        </mxCell>
        <mxCell id="qKf1pt01j6I08-uvjUVY-44" value="Titulo" style="shape=partialRectangle;html=1;whiteSpace=wrap;connectable=0;strokeColor=default;overflow=hidden;fillColor=#dae8fc;top=0;left=0;bottom=0;right=0;pointerEvents=1;fontSize=16;gradientColor=#7ea6e0;labelBorderColor=none;strokeWidth=3;shadow=0;" parent="qKf1pt01j6I08-uvjUVY-32" vertex="1">
          <mxGeometry x="181" width="179" height="40" as="geometry">
            <mxRectangle width="179" height="40" as="alternateBounds" />
          </mxGeometry>
        </mxCell>
        <mxCell id="qKf1pt01j6I08-uvjUVY-33" value="Autor" style="shape=partialRectangle;html=1;whiteSpace=wrap;connectable=0;strokeColor=#6c8ebf;overflow=hidden;fillColor=#dae8fc;top=0;left=0;bottom=0;right=0;pointerEvents=1;fontSize=16;gradientColor=#7ea6e0;" parent="qKf1pt01j6I08-uvjUVY-32" vertex="1">
          <mxGeometry x="360" width="181" height="40" as="geometry">
            <mxRectangle width="181" height="40" as="alternateBounds" />
          </mxGeometry>
        </mxCell>
        <mxCell id="qKf1pt01j6I08-uvjUVY-34" value="Genero" style="shape=partialRectangle;html=1;whiteSpace=wrap;connectable=0;strokeColor=#06080A;overflow=hidden;fillColor=#dae8fc;top=0;left=0;bottom=0;right=0;pointerEvents=1;fontSize=16;gradientColor=#7ea6e0;" parent="qKf1pt01j6I08-uvjUVY-32" vertex="1">
          <mxGeometry x="541" width="179" height="40" as="geometry">
            <mxRectangle width="179" height="40" as="alternateBounds" />
          </mxGeometry>
        </mxCell>
        <mxCell id="qKf1pt01j6I08-uvjUVY-12" value="" style="shape=tableRow;horizontal=0;startSize=0;swimlaneHead=0;swimlaneBody=0;strokeColor=inherit;top=0;left=0;bottom=0;right=0;collapsible=0;dropTarget=0;fillColor=none;points=[[0,0.5],[1,0.5]];portConstraint=eastwest;fontSize=16;" parent="qKf1pt01j6I08-uvjUVY-11" vertex="1">
          <mxGeometry y="40" width="720" height="40" as="geometry" />
        </mxCell>
        <mxCell id="qKf1pt01j6I08-uvjUVY-53" value="1" style="shape=partialRectangle;html=1;whiteSpace=wrap;connectable=0;strokeColor=inherit;overflow=hidden;fillColor=none;top=0;left=0;bottom=0;right=0;pointerEvents=1;fontSize=16;" parent="qKf1pt01j6I08-uvjUVY-12" vertex="1">
          <mxGeometry width="181" height="40" as="geometry">
            <mxRectangle width="181" height="40" as="alternateBounds" />
          </mxGeometry>
        </mxCell>
        <mxCell id="qKf1pt01j6I08-uvjUVY-45" value="Don Quijote" style="shape=partialRectangle;html=1;whiteSpace=wrap;connectable=0;strokeColor=inherit;overflow=hidden;fillColor=none;top=0;left=0;bottom=0;right=0;pointerEvents=1;fontSize=16;" parent="qKf1pt01j6I08-uvjUVY-12" vertex="1">
          <mxGeometry x="181" width="179" height="40" as="geometry">
            <mxRectangle width="179" height="40" as="alternateBounds" />
          </mxGeometry>
        </mxCell>
        <mxCell id="qKf1pt01j6I08-uvjUVY-13" value="Miguel de cervantes" style="shape=partialRectangle;html=1;whiteSpace=wrap;connectable=0;strokeColor=inherit;overflow=hidden;fillColor=none;top=0;left=0;bottom=0;right=0;pointerEvents=1;fontSize=16;" parent="qKf1pt01j6I08-uvjUVY-12" vertex="1">
          <mxGeometry x="360" width="181" height="40" as="geometry">
            <mxRectangle width="181" height="40" as="alternateBounds" />
          </mxGeometry>
        </mxCell>
        <mxCell id="qKf1pt01j6I08-uvjUVY-14" value="Novela" style="shape=partialRectangle;html=1;whiteSpace=wrap;connectable=0;strokeColor=inherit;overflow=hidden;fillColor=none;top=0;left=0;bottom=0;right=0;pointerEvents=1;fontSize=16;" parent="qKf1pt01j6I08-uvjUVY-12" vertex="1">
          <mxGeometry x="541" width="179" height="40" as="geometry">
            <mxRectangle width="179" height="40" as="alternateBounds" />
          </mxGeometry>
        </mxCell>
        <mxCell id="qKf1pt01j6I08-uvjUVY-16" value="" style="shape=tableRow;horizontal=0;startSize=0;swimlaneHead=0;swimlaneBody=0;strokeColor=inherit;top=0;left=0;bottom=0;right=0;collapsible=0;dropTarget=0;fillColor=none;points=[[0,0.5],[1,0.5]];portConstraint=eastwest;fontSize=16;" parent="qKf1pt01j6I08-uvjUVY-11" vertex="1">
          <mxGeometry y="80" width="720" height="40" as="geometry" />
        </mxCell>
        <mxCell id="qKf1pt01j6I08-uvjUVY-54" value="1" style="shape=partialRectangle;html=1;whiteSpace=wrap;connectable=0;strokeColor=inherit;overflow=hidden;fillColor=none;top=0;left=0;bottom=0;right=0;pointerEvents=1;fontSize=16;" parent="qKf1pt01j6I08-uvjUVY-16" vertex="1">
          <mxGeometry width="181" height="40" as="geometry">
            <mxRectangle width="181" height="40" as="alternateBounds" />
          </mxGeometry>
        </mxCell>
        <mxCell id="qKf1pt01j6I08-uvjUVY-46" value="Don Quijote" style="shape=partialRectangle;html=1;whiteSpace=wrap;connectable=0;strokeColor=inherit;overflow=hidden;fillColor=none;top=0;left=0;bottom=0;right=0;pointerEvents=1;fontSize=16;" parent="qKf1pt01j6I08-uvjUVY-16" vertex="1">
          <mxGeometry x="181" width="179" height="40" as="geometry">
            <mxRectangle width="179" height="40" as="alternateBounds" />
          </mxGeometry>
        </mxCell>
        <mxCell id="qKf1pt01j6I08-uvjUVY-17" value="" style="shape=partialRectangle;html=1;whiteSpace=wrap;connectable=0;strokeColor=inherit;overflow=hidden;fillColor=none;top=0;left=0;bottom=0;right=0;pointerEvents=1;fontSize=16;" parent="qKf1pt01j6I08-uvjUVY-16" vertex="1">
          <mxGeometry x="360" width="181" height="40" as="geometry">
            <mxRectangle width="181" height="40" as="alternateBounds" />
          </mxGeometry>
        </mxCell>
        <mxCell id="qKf1pt01j6I08-uvjUVY-18" value="Clasico" style="shape=partialRectangle;html=1;whiteSpace=wrap;connectable=0;strokeColor=inherit;overflow=hidden;fillColor=none;top=0;left=0;bottom=0;right=0;pointerEvents=1;fontSize=16;" parent="qKf1pt01j6I08-uvjUVY-16" vertex="1">
          <mxGeometry x="541" width="179" height="40" as="geometry">
            <mxRectangle width="179" height="40" as="alternateBounds" />
          </mxGeometry>
        </mxCell>
        <mxCell id="qKf1pt01j6I08-uvjUVY-28" style="shape=tableRow;horizontal=0;startSize=0;swimlaneHead=0;swimlaneBody=0;strokeColor=inherit;top=0;left=0;bottom=0;right=0;collapsible=0;dropTarget=0;fillColor=none;points=[[0,0.5],[1,0.5]];portConstraint=eastwest;fontSize=16;" parent="qKf1pt01j6I08-uvjUVY-11" vertex="1">
          <mxGeometry y="120" width="720" height="40" as="geometry" />
        </mxCell>
        <mxCell id="qKf1pt01j6I08-uvjUVY-55" value="2" style="shape=partialRectangle;html=1;whiteSpace=wrap;connectable=0;strokeColor=inherit;overflow=hidden;fillColor=none;top=0;left=0;bottom=0;right=0;pointerEvents=1;fontSize=16;" parent="qKf1pt01j6I08-uvjUVY-28" vertex="1">
          <mxGeometry width="181" height="40" as="geometry">
            <mxRectangle width="181" height="40" as="alternateBounds" />
          </mxGeometry>
        </mxCell>
        <mxCell id="qKf1pt01j6I08-uvjUVY-47" value="Cien aÃ±os de soledad" style="shape=partialRectangle;html=1;whiteSpace=wrap;connectable=0;strokeColor=inherit;overflow=hidden;fillColor=none;top=0;left=0;bottom=0;right=0;pointerEvents=1;fontSize=16;" parent="qKf1pt01j6I08-uvjUVY-28" vertex="1">
          <mxGeometry x="181" width="179" height="40" as="geometry">
            <mxRectangle width="179" height="40" as="alternateBounds" />
          </mxGeometry>
        </mxCell>
        <mxCell id="qKf1pt01j6I08-uvjUVY-29" value="Gabriel Garcia Marquez" style="shape=partialRectangle;html=1;whiteSpace=wrap;connectable=0;strokeColor=inherit;overflow=hidden;fillColor=none;top=0;left=0;bottom=0;right=0;pointerEvents=1;fontSize=16;" parent="qKf1pt01j6I08-uvjUVY-28" vertex="1">
          <mxGeometry x="360" width="181" height="40" as="geometry">
            <mxRectangle width="181" height="40" as="alternateBounds" />
          </mxGeometry>
        </mxCell>
        <mxCell id="qKf1pt01j6I08-uvjUVY-30" value="Realismo magico" style="shape=partialRectangle;html=1;whiteSpace=wrap;connectable=0;strokeColor=inherit;overflow=hidden;fillColor=none;top=0;left=0;bottom=0;right=0;pointerEvents=1;fontSize=16;" parent="qKf1pt01j6I08-uvjUVY-28" vertex="1">
          <mxGeometry x="541" width="179" height="40" as="geometry">
            <mxRectangle width="179" height="40" as="alternateBounds" />
          </mxGeometry>
        </mxCell>
        <mxCell id="qKf1pt01j6I08-uvjUVY-89" style="shape=tableRow;horizontal=0;startSize=0;swimlaneHead=0;swimlaneBody=0;strokeColor=inherit;top=0;left=0;bottom=0;right=0;collapsible=0;dropTarget=0;fillColor=none;points=[[0,0.5],[1,0.5]];portConstraint=eastwest;fontSize=16;" parent="qKf1pt01j6I08-uvjUVY-11" vertex="1">
          <mxGeometry y="160" width="720" height="40" as="geometry" />
        </mxCell>
        <mxCell id="qKf1pt01j6I08-uvjUVY-90" value="2" style="shape=partialRectangle;html=1;whiteSpace=wrap;connectable=0;strokeColor=inherit;overflow=hidden;fillColor=none;top=0;left=0;bottom=0;right=0;pointerEvents=1;fontSize=16;" parent="qKf1pt01j6I08-uvjUVY-89" vertex="1">
          <mxGeometry width="181" height="40" as="geometry">
            <mxRectangle width="181" height="40" as="alternateBounds" />
          </mxGeometry>
        </mxCell>
        <mxCell id="qKf1pt01j6I08-uvjUVY-91" value="Cien aÃ±os de soledad" style="shape=partialRectangle;html=1;whiteSpace=wrap;connectable=0;strokeColor=inherit;overflow=hidden;fillColor=none;top=0;left=0;bottom=0;right=0;pointerEvents=1;fontSize=16;" parent="qKf1pt01j6I08-uvjUVY-89" vertex="1">
          <mxGeometry x="181" width="179" height="40" as="geometry">
            <mxRectangle width="179" height="40" as="alternateBounds" />
          </mxGeometry>
        </mxCell>
        <mxCell id="qKf1pt01j6I08-uvjUVY-92" value="Gabriel Garcia Marquez" style="shape=partialRectangle;html=1;whiteSpace=wrap;connectable=0;strokeColor=inherit;overflow=hidden;fillColor=none;top=0;left=0;bottom=0;right=0;pointerEvents=1;fontSize=16;" parent="qKf1pt01j6I08-uvjUVY-89" vertex="1">
          <mxGeometry x="360" width="181" height="40" as="geometry">
            <mxRectangle width="181" height="40" as="alternateBounds" />
          </mxGeometry>
        </mxCell>
        <mxCell id="qKf1pt01j6I08-uvjUVY-93" value="Novela" style="shape=partialRectangle;html=1;whiteSpace=wrap;connectable=0;strokeColor=inherit;overflow=hidden;fillColor=none;top=0;left=0;bottom=0;right=0;pointerEvents=1;fontSize=16;" parent="qKf1pt01j6I08-uvjUVY-89" vertex="1">
          <mxGeometry x="541" width="179" height="40" as="geometry">
            <mxRectangle width="179" height="40" as="alternateBounds" />
          </mxGeometry>
        </mxCell>
        <mxCell id="qKf1pt01j6I08-uvjUVY-94" style="shape=tableRow;horizontal=0;startSize=0;swimlaneHead=0;swimlaneBody=0;strokeColor=inherit;top=0;left=0;bottom=0;right=0;collapsible=0;dropTarget=0;fillColor=none;points=[[0,0.5],[1,0.5]];portConstraint=eastwest;fontSize=16;" parent="qKf1pt01j6I08-uvjUVY-11" vertex="1">
          <mxGeometry y="200" width="720" height="40" as="geometry" />
        </mxCell>
        <mxCell id="qKf1pt01j6I08-uvjUVY-95" value="3" style="shape=partialRectangle;html=1;whiteSpace=wrap;connectable=0;strokeColor=inherit;overflow=hidden;fillColor=none;top=0;left=0;bottom=0;right=0;pointerEvents=1;fontSize=16;" parent="qKf1pt01j6I08-uvjUVY-94" vertex="1">
          <mxGeometry width="181" height="40" as="geometry">
            <mxRectangle width="181" height="40" as="alternateBounds" />
          </mxGeometry>
        </mxCell>
        <mxCell id="qKf1pt01j6I08-uvjUVY-96" value="La odisea" style="shape=partialRectangle;html=1;whiteSpace=wrap;connectable=0;strokeColor=inherit;overflow=hidden;fillColor=none;top=0;left=0;bottom=0;right=0;pointerEvents=1;fontSize=16;" parent="qKf1pt01j6I08-uvjUVY-94" vertex="1">
          <mxGeometry x="181" width="179" height="40" as="geometry">
            <mxRectangle width="179" height="40" as="alternateBounds" />
          </mxGeometry>
        </mxCell>
        <mxCell id="qKf1pt01j6I08-uvjUVY-97" value="Homero" style="shape=partialRectangle;html=1;whiteSpace=wrap;connectable=0;strokeColor=inherit;overflow=hidden;fillColor=none;top=0;left=0;bottom=0;right=0;pointerEvents=1;fontSize=16;" parent="qKf1pt01j6I08-uvjUVY-94" vertex="1">
          <mxGeometry x="360" width="181" height="40" as="geometry">
            <mxRectangle width="181" height="40" as="alternateBounds" />
          </mxGeometry>
        </mxCell>
        <mxCell id="qKf1pt01j6I08-uvjUVY-98" value="Epica" style="shape=partialRectangle;html=1;whiteSpace=wrap;connectable=0;strokeColor=inherit;overflow=hidden;fillColor=none;top=0;left=0;bottom=0;right=0;pointerEvents=1;fontSize=16;" parent="qKf1pt01j6I08-uvjUVY-94" vertex="1">
          <mxGeometry x="541" width="179" height="40" as="geometry">
            <mxRectangle width="179" height="40" as="alternateBounds" />
          </mxGeometry>
        </mxCell>
        <mxCell id="qKf1pt01j6I08-uvjUVY-99" style="shape=tableRow;horizontal=0;startSize=0;swimlaneHead=0;swimlaneBody=0;strokeColor=inherit;top=0;left=0;bottom=0;right=0;collapsible=0;dropTarget=0;fillColor=none;points=[[0,0.5],[1,0.5]];portConstraint=eastwest;fontSize=16;" parent="qKf1pt01j6I08-uvjUVY-11" vertex="1">
          <mxGeometry y="240" width="720" height="50" as="geometry" />
        </mxCell>
        <mxCell id="qKf1pt01j6I08-uvjUVY-100" value="3" style="shape=partialRectangle;html=1;whiteSpace=wrap;connectable=0;strokeColor=inherit;overflow=hidden;fillColor=none;top=0;left=0;bottom=0;right=0;pointerEvents=1;fontSize=16;" parent="qKf1pt01j6I08-uvjUVY-99" vertex="1">
          <mxGeometry width="181" height="50" as="geometry">
            <mxRectangle width="181" height="50" as="alternateBounds" />
          </mxGeometry>
        </mxCell>
        <mxCell id="qKf1pt01j6I08-uvjUVY-101" value="La odisea" style="shape=partialRectangle;html=1;whiteSpace=wrap;connectable=0;strokeColor=inherit;overflow=hidden;fillColor=none;top=0;left=0;bottom=0;right=0;pointerEvents=1;fontSize=16;" parent="qKf1pt01j6I08-uvjUVY-99" vertex="1">
          <mxGeometry x="181" width="179" height="50" as="geometry">
            <mxRectangle width="179" height="50" as="alternateBounds" />
          </mxGeometry>
        </mxCell>
        <mxCell id="qKf1pt01j6I08-uvjUVY-102" value="Homero" style="shape=partialRectangle;html=1;whiteSpace=wrap;connectable=0;strokeColor=inherit;overflow=hidden;fillColor=none;top=0;left=0;bottom=0;right=0;pointerEvents=1;fontSize=16;" parent="qKf1pt01j6I08-uvjUVY-99" vertex="1">
          <mxGeometry x="360" width="181" height="50" as="geometry">
            <mxRectangle width="181" height="50" as="alternateBounds" />
          </mxGeometry>
        </mxCell>
        <mxCell id="qKf1pt01j6I08-uvjUVY-103" value="Clasico" style="shape=partialRectangle;html=1;whiteSpace=wrap;connectable=0;strokeColor=inherit;overflow=hidden;fillColor=none;top=0;left=0;bottom=0;right=0;pointerEvents=1;fontSize=16;" parent="qKf1pt01j6I08-uvjUVY-99" vertex="1">
          <mxGeometry x="541" width="179" height="50" as="geometry">
            <mxRectangle width="179" height="50" as="alternateBounds" />
          </mxGeometry>
        </mxCell>
        <mxCell id="qKf1pt01j6I08-uvjUVY-104" style="shape=tableRow;horizontal=0;startSize=0;swimlaneHead=0;swimlaneBody=0;strokeColor=inherit;top=0;left=0;bottom=0;right=0;collapsible=0;dropTarget=0;fillColor=none;points=[[0,0.5],[1,0.5]];portConstraint=eastwest;fontSize=16;" parent="qKf1pt01j6I08-uvjUVY-11" vertex="1">
          <mxGeometry y="290" width="720" height="40" as="geometry" />
        </mxCell>
        <mxCell id="qKf1pt01j6I08-uvjUVY-105" value="4" style="shape=partialRectangle;html=1;whiteSpace=wrap;connectable=0;strokeColor=inherit;overflow=hidden;fillColor=none;top=0;left=0;bottom=0;right=0;pointerEvents=1;fontSize=16;" parent="qKf1pt01j6I08-uvjUVY-104" vertex="1">
          <mxGeometry width="181" height="40" as="geometry">
            <mxRectangle width="181" height="40" as="alternateBounds" />
          </mxGeometry>
        </mxCell>
        <mxCell id="qKf1pt01j6I08-uvjUVY-106" value="Good omens" style="shape=partialRectangle;html=1;whiteSpace=wrap;connectable=0;strokeColor=inherit;overflow=hidden;fillColor=none;top=0;left=0;bottom=0;right=0;pointerEvents=1;fontSize=16;" parent="qKf1pt01j6I08-uvjUVY-104" vertex="1">
          <mxGeometry x="181" width="179" height="40" as="geometry">
            <mxRectangle width="179" height="40" as="alternateBounds" />
          </mxGeometry>
        </mxCell>
        <mxCell id="qKf1pt01j6I08-uvjUVY-107" value="Neil Gaiman" style="shape=partialRectangle;html=1;whiteSpace=wrap;connectable=0;strokeColor=inherit;overflow=hidden;fillColor=none;top=0;left=0;bottom=0;right=0;pointerEvents=1;fontSize=16;" parent="qKf1pt01j6I08-uvjUVY-104" vertex="1">
          <mxGeometry x="360" width="181" height="40" as="geometry">
            <mxRectangle width="181" height="40" as="alternateBounds" />
          </mxGeometry>
        </mxCell>
        <mxCell id="qKf1pt01j6I08-uvjUVY-108" value="Fantasia" style="shape=partialRectangle;html=1;whiteSpace=wrap;connectable=0;strokeColor=inherit;overflow=hidden;fillColor=none;top=0;left=0;bottom=0;right=0;pointerEvents=1;fontSize=16;" parent="qKf1pt01j6I08-uvjUVY-104" vertex="1">
          <mxGeometry x="541" width="179" height="40" as="geometry">
            <mxRectangle width="179" height="40" as="alternateBounds" />
          </mxGeometry>
        </mxCell>
        <mxCell id="qKf1pt01j6I08-uvjUVY-109" style="shape=tableRow;horizontal=0;startSize=0;swimlaneHead=0;swimlaneBody=0;strokeColor=inherit;top=0;left=0;bottom=0;right=0;collapsible=0;dropTarget=0;fillColor=none;points=[[0,0.5],[1,0.5]];portConstraint=eastwest;fontSize=16;" parent="qKf1pt01j6I08-uvjUVY-11" vertex="1">
          <mxGeometry y="330" width="720" height="40" as="geometry" />
        </mxCell>
        <mxCell id="qKf1pt01j6I08-uvjUVY-110" value="4" style="shape=partialRectangle;html=1;whiteSpace=wrap;connectable=0;strokeColor=inherit;overflow=hidden;fillColor=none;top=0;left=0;bottom=0;right=0;pointerEvents=1;fontSize=16;" parent="qKf1pt01j6I08-uvjUVY-109" vertex="1">
          <mxGeometry width="181" height="40" as="geometry">
            <mxRectangle width="181" height="40" as="alternateBounds" />
          </mxGeometry>
        </mxCell>
        <mxCell id="qKf1pt01j6I08-uvjUVY-111" value="Good omens" style="shape=partialRectangle;html=1;whiteSpace=wrap;connectable=0;strokeColor=inherit;overflow=hidden;fillColor=none;top=0;left=0;bottom=0;right=0;pointerEvents=1;fontSize=16;" parent="qKf1pt01j6I08-uvjUVY-109" vertex="1">
          <mxGeometry x="181" width="179" height="40" as="geometry">
            <mxRectangle width="179" height="40" as="alternateBounds" />
          </mxGeometry>
        </mxCell>
        <mxCell id="qKf1pt01j6I08-uvjUVY-112" value="Terry Pratchett" style="shape=partialRectangle;html=1;whiteSpace=wrap;connectable=0;strokeColor=inherit;overflow=hidden;fillColor=none;top=0;left=0;bottom=0;right=0;pointerEvents=1;fontSize=16;" parent="qKf1pt01j6I08-uvjUVY-109" vertex="1">
          <mxGeometry x="360" width="181" height="40" as="geometry">
            <mxRectangle width="181" height="40" as="alternateBounds" />
          </mxGeometry>
        </mxCell>
        <mxCell id="qKf1pt01j6I08-uvjUVY-113" value="Comedia" style="shape=partialRectangle;html=1;whiteSpace=wrap;connectable=0;strokeColor=inherit;overflow=hidden;fillColor=none;top=0;left=0;bottom=0;right=0;pointerEvents=1;fontSize=16;" parent="qKf1pt01j6I08-uvjUVY-109" vertex="1">
          <mxGeometry x="541" width="179" height="40" as="geometry">
            <mxRectangle width="179" height="40" as="alternateBounds" />
          </mxGeometry>
        </mxCell>
        <mxCell id="gVdn5qtcodraiA1RopeS-1" style="shape=tableRow;horizontal=0;startSize=0;swimlaneHead=0;swimlaneBody=0;strokeColor=inherit;top=0;left=0;bottom=0;right=0;collapsible=0;dropTarget=0;fillColor=none;points=[[0,0.5],[1,0.5]];portConstraint=eastwest;fontSize=16;" vertex="1" parent="qKf1pt01j6I08-uvjUVY-11">
          <mxGeometry y="370" width="720" height="40" as="geometry" />
        </mxCell>
        <mxCell id="gVdn5qtcodraiA1RopeS-2" value="4" style="shape=partialRectangle;html=1;whiteSpace=wrap;connectable=0;strokeColor=inherit;overflow=hidden;fillColor=none;top=0;left=0;bottom=0;right=0;pointerEvents=1;fontSize=16;" vertex="1" parent="gVdn5qtcodraiA1RopeS-1">
          <mxGeometry width="181" height="40" as="geometry">
            <mxRectangle width="181" height="40" as="alternateBounds" />
          </mxGeometry>
        </mxCell>
        <mxCell id="gVdn5qtcodraiA1RopeS-3" value="Good omens" style="shape=partialRectangle;html=1;whiteSpace=wrap;connectable=0;strokeColor=inherit;overflow=hidden;fillColor=none;top=0;left=0;bottom=0;right=0;pointerEvents=1;fontSize=16;" vertex="1" parent="gVdn5qtcodraiA1RopeS-1">
          <mxGeometry x="181" width="179" height="40" as="geometry">
            <mxRectangle width="179" height="40" as="alternateBounds" />
          </mxGeometry>
        </mxCell>
        <mxCell id="gVdn5qtcodraiA1RopeS-4" value="Neil Gaiman" style="shape=partialRectangle;html=1;whiteSpace=wrap;connectable=0;strokeColor=inherit;overflow=hidden;fillColor=none;top=0;left=0;bottom=0;right=0;pointerEvents=1;fontSize=16;" vertex="1" parent="gVdn5qtcodraiA1RopeS-1">
          <mxGeometry x="360" width="181" height="40" as="geometry">
            <mxRectangle width="181" height="40" as="alternateBounds" />
          </mxGeometry>
        </mxCell>
        <mxCell id="gVdn5qtcodraiA1RopeS-5" value="Fantasia" style="shape=partialRectangle;html=1;whiteSpace=wrap;connectable=0;strokeColor=inherit;overflow=hidden;fillColor=none;top=0;left=0;bottom=0;right=0;pointerEvents=1;fontSize=16;" vertex="1" parent="gVdn5qtcodraiA1RopeS-1">
          <mxGeometry x="541" width="179" height="40" as="geometry">
            <mxRectangle width="179" height="40" as="alternateBounds" />
          </mxGeometry>
        </mxCell>
        <mxCell id="gVdn5qtcodraiA1RopeS-6" style="shape=tableRow;horizontal=0;startSize=0;swimlaneHead=0;swimlaneBody=0;strokeColor=inherit;top=0;left=0;bottom=0;right=0;collapsible=0;dropTarget=0;fillColor=none;points=[[0,0.5],[1,0.5]];portConstraint=eastwest;fontSize=16;" vertex="1" parent="qKf1pt01j6I08-uvjUVY-11">
          <mxGeometry y="410" width="720" height="40" as="geometry" />
        </mxCell>
        <mxCell id="gVdn5qtcodraiA1RopeS-7" value="4" style="shape=partialRectangle;html=1;whiteSpace=wrap;connectable=0;strokeColor=inherit;overflow=hidden;fillColor=none;top=0;left=0;bottom=0;right=0;pointerEvents=1;fontSize=16;" vertex="1" parent="gVdn5qtcodraiA1RopeS-6">
          <mxGeometry width="181" height="40" as="geometry">
            <mxRectangle width="181" height="40" as="alternateBounds" />
          </mxGeometry>
        </mxCell>
        <mxCell id="gVdn5qtcodraiA1RopeS-8" value="Good omens" style="shape=partialRectangle;html=1;whiteSpace=wrap;connectable=0;strokeColor=inherit;overflow=hidden;fillColor=none;top=0;left=0;bottom=0;right=0;pointerEvents=1;fontSize=16;" vertex="1" parent="gVdn5qtcodraiA1RopeS-6">
          <mxGeometry x="181" width="179" height="40" as="geometry">
            <mxRectangle width="179" height="40" as="alternateBounds" />
          </mxGeometry>
        </mxCell>
        <mxCell id="gVdn5qtcodraiA1RopeS-9" value="Terry Pratchett" style="shape=partialRectangle;html=1;whiteSpace=wrap;connectable=0;strokeColor=inherit;overflow=hidden;fillColor=none;top=0;left=0;bottom=0;right=0;pointerEvents=1;fontSize=16;" vertex="1" parent="gVdn5qtcodraiA1RopeS-6">
          <mxGeometry x="360" width="181" height="40" as="geometry">
            <mxRectangle width="181" height="40" as="alternateBounds" />
          </mxGeometry>
        </mxCell>
        <mxCell id="gVdn5qtcodraiA1RopeS-10" value="Fantasia" style="shape=partialRectangle;html=1;whiteSpace=wrap;connectable=0;strokeColor=inherit;overflow=hidden;fillColor=none;top=0;left=0;bottom=0;right=0;pointerEvents=1;fontSize=16;" vertex="1" parent="gVdn5qtcodraiA1RopeS-6">
          <mxGeometry x="541" width="179" height="40" as="geometry">
            <mxRectangle width="179" height="40" as="alternateBounds" />
          </mxGeometry>
        </mxCell>
        <mxCell id="qKf1pt01j6I08-uvjUVY-56" value="Miguel de cervantes" style="shape=partialRectangle;html=1;whiteSpace=wrap;connectable=0;strokeColor=inherit;overflow=hidden;fillColor=none;top=0;left=0;bottom=0;right=0;pointerEvents=1;fontSize=16;" parent="1" vertex="1">
          <mxGeometry x="430" y="240" width="163" height="40" as="geometry">
            <mxRectangle width="163" height="40" as="alternateBounds" />
          </mxGeometry>
        </mxCell>
        <mxCell id="qKf1pt01j6I08-uvjUVY-119" value="Libros" style="text;html=1;align=center;verticalAlign=middle;whiteSpace=wrap;rounded=0;fontStyle=1;fontSize=17;fontFamily=Verdana;" parent="1" vertex="1">
          <mxGeometry x="330" y="130" width="190" height="30" as="geometry" />
        </mxCell>
      </root>
    </mxGraphModel>
  </diagram>
  <diagram id="jRyuoD31T-eZ-8gcEuGC" name="Ejercicio 2">
    <mxGraphModel dx="1214" dy="628" grid="1" gridSize="10" guides="1" tooltips="1" connect="1" arrows="1" fold="1" page="1" pageScale="1" pageWidth="827" pageHeight="1169" math="0" shadow="0">
      <root>
        <mxCell id="0" />
        <mxCell id="1" parent="0" />
        <mxCell id="xsahs17My6l2bEVuUDlJ-1" value="" style="shape=table;startSize=0;container=1;collapsible=0;childLayout=tableLayout;fontSize=16;" parent="1" vertex="1">
          <mxGeometry x="210" y="160" width="448" height="120" as="geometry" />
        </mxCell>
        <mxCell id="xsahs17My6l2bEVuUDlJ-2" value="" style="shape=tableRow;horizontal=0;startSize=0;swimlaneHead=0;swimlaneBody=0;strokeColor=inherit;top=0;left=0;bottom=0;right=0;collapsible=0;dropTarget=0;fillColor=none;points=[[0,0.5],[1,0.5]];portConstraint=eastwest;fontSize=16;" parent="xsahs17My6l2bEVuUDlJ-1" vertex="1">
          <mxGeometry width="448" height="40" as="geometry" />
        </mxCell>
        <mxCell id="xsahs17My6l2bEVuUDlJ-3" value="ID_cliente" style="shape=partialRectangle;html=1;whiteSpace=wrap;connectable=0;strokeColor=#6c8ebf;overflow=hidden;fillColor=#dae8fc;top=0;left=0;bottom=0;right=0;pointerEvents=1;fontSize=16;gradientColor=#7ea6e0;" parent="xsahs17My6l2bEVuUDlJ-2" vertex="1">
          <mxGeometry width="112" height="40" as="geometry">
            <mxRectangle width="112" height="40" as="alternateBounds" />
          </mxGeometry>
        </mxCell>
        <mxCell id="xsahs17My6l2bEVuUDlJ-4" value="Cliente" style="shape=partialRectangle;html=1;whiteSpace=wrap;connectable=0;strokeColor=#6c8ebf;overflow=hidden;fillColor=#dae8fc;top=0;left=0;bottom=0;right=0;pointerEvents=1;fontSize=16;gradientColor=#7ea6e0;" parent="xsahs17My6l2bEVuUDlJ-2" vertex="1">
          <mxGeometry x="112" width="112" height="40" as="geometry">
            <mxRectangle width="112" height="40" as="alternateBounds" />
          </mxGeometry>
        </mxCell>
        <mxCell id="xsahs17My6l2bEVuUDlJ-5" value="Direccion" style="shape=partialRectangle;html=1;whiteSpace=wrap;connectable=0;strokeColor=#6c8ebf;overflow=hidden;fillColor=#dae8fc;top=0;left=0;bottom=0;right=0;pointerEvents=1;fontSize=16;gradientColor=#7ea6e0;" parent="xsahs17My6l2bEVuUDlJ-2" vertex="1">
          <mxGeometry x="224" width="112" height="40" as="geometry">
            <mxRectangle width="112" height="40" as="alternateBounds" />
          </mxGeometry>
        </mxCell>
        <mxCell id="dpLUYHb6AVahhM1fk_gA-1" value="Ciudad" style="shape=partialRectangle;html=1;whiteSpace=wrap;connectable=0;strokeColor=#6c8ebf;overflow=hidden;fillColor=#dae8fc;top=0;left=0;bottom=0;right=0;pointerEvents=1;fontSize=16;gradientColor=#7ea6e0;" parent="xsahs17My6l2bEVuUDlJ-2" vertex="1">
          <mxGeometry x="336" width="112" height="40" as="geometry">
            <mxRectangle width="112" height="40" as="alternateBounds" />
          </mxGeometry>
        </mxCell>
        <mxCell id="xsahs17My6l2bEVuUDlJ-6" value="" style="shape=tableRow;horizontal=0;startSize=0;swimlaneHead=0;swimlaneBody=0;strokeColor=inherit;top=0;left=0;bottom=0;right=0;collapsible=0;dropTarget=0;fillColor=none;points=[[0,0.5],[1,0.5]];portConstraint=eastwest;fontSize=16;" parent="xsahs17My6l2bEVuUDlJ-1" vertex="1">
          <mxGeometry y="40" width="448" height="40" as="geometry" />
        </mxCell>
        <mxCell id="xsahs17My6l2bEVuUDlJ-7" value="1" style="shape=partialRectangle;html=1;whiteSpace=wrap;connectable=0;strokeColor=inherit;overflow=hidden;fillColor=none;top=0;left=0;bottom=0;right=0;pointerEvents=1;fontSize=16;" parent="xsahs17My6l2bEVuUDlJ-6" vertex="1">
          <mxGeometry width="112" height="40" as="geometry">
            <mxRectangle width="112" height="40" as="alternateBounds" />
          </mxGeometry>
        </mxCell>
        <mxCell id="xsahs17My6l2bEVuUDlJ-8" value="Juan Perez" style="shape=partialRectangle;html=1;whiteSpace=wrap;connectable=0;strokeColor=inherit;overflow=hidden;fillColor=none;top=0;left=0;bottom=0;right=0;pointerEvents=1;fontSize=16;" parent="xsahs17My6l2bEVuUDlJ-6" vertex="1">
          <mxGeometry x="112" width="112" height="40" as="geometry">
            <mxRectangle width="112" height="40" as="alternateBounds" />
          </mxGeometry>
        </mxCell>
        <mxCell id="xsahs17My6l2bEVuUDlJ-9" value="Calle 123" style="shape=partialRectangle;html=1;whiteSpace=wrap;connectable=0;strokeColor=inherit;overflow=hidden;fillColor=none;top=0;left=0;bottom=0;right=0;pointerEvents=1;fontSize=16;" parent="xsahs17My6l2bEVuUDlJ-6" vertex="1">
          <mxGeometry x="224" width="112" height="40" as="geometry">
            <mxRectangle width="112" height="40" as="alternateBounds" />
          </mxGeometry>
        </mxCell>
        <mxCell id="dpLUYHb6AVahhM1fk_gA-2" value="Ciudad A" style="shape=partialRectangle;html=1;whiteSpace=wrap;connectable=0;strokeColor=inherit;overflow=hidden;fillColor=none;top=0;left=0;bottom=0;right=0;pointerEvents=1;fontSize=16;" parent="xsahs17My6l2bEVuUDlJ-6" vertex="1">
          <mxGeometry x="336" width="112" height="40" as="geometry">
            <mxRectangle width="112" height="40" as="alternateBounds" />
          </mxGeometry>
        </mxCell>
        <mxCell id="xsahs17My6l2bEVuUDlJ-10" value="" style="shape=tableRow;horizontal=0;startSize=0;swimlaneHead=0;swimlaneBody=0;strokeColor=inherit;top=0;left=0;bottom=0;right=0;collapsible=0;dropTarget=0;fillColor=none;points=[[0,0.5],[1,0.5]];portConstraint=eastwest;fontSize=16;" parent="xsahs17My6l2bEVuUDlJ-1" vertex="1">
          <mxGeometry y="80" width="448" height="40" as="geometry" />
        </mxCell>
        <mxCell id="xsahs17My6l2bEVuUDlJ-11" value="2" style="shape=partialRectangle;html=1;whiteSpace=wrap;connectable=0;strokeColor=inherit;overflow=hidden;fillColor=none;top=0;left=0;bottom=0;right=0;pointerEvents=1;fontSize=16;" parent="xsahs17My6l2bEVuUDlJ-10" vertex="1">
          <mxGeometry width="112" height="40" as="geometry">
            <mxRectangle width="112" height="40" as="alternateBounds" />
          </mxGeometry>
        </mxCell>
        <mxCell id="xsahs17My6l2bEVuUDlJ-12" value="Ana Gomez" style="shape=partialRectangle;html=1;whiteSpace=wrap;connectable=0;strokeColor=inherit;overflow=hidden;fillColor=none;top=0;left=0;bottom=0;right=0;pointerEvents=1;fontSize=16;" parent="xsahs17My6l2bEVuUDlJ-10" vertex="1">
          <mxGeometry x="112" width="112" height="40" as="geometry">
            <mxRectangle width="112" height="40" as="alternateBounds" />
          </mxGeometry>
        </mxCell>
        <mxCell id="xsahs17My6l2bEVuUDlJ-13" value="Avenida 456" style="shape=partialRectangle;html=1;whiteSpace=wrap;connectable=0;strokeColor=inherit;overflow=hidden;fillColor=none;top=0;left=0;bottom=0;right=0;pointerEvents=1;fontSize=16;" parent="xsahs17My6l2bEVuUDlJ-10" vertex="1">
          <mxGeometry x="224" width="112" height="40" as="geometry">
            <mxRectangle width="112" height="40" as="alternateBounds" />
          </mxGeometry>
        </mxCell>
        <mxCell id="dpLUYHb6AVahhM1fk_gA-3" value="Ciudad B" style="shape=partialRectangle;html=1;whiteSpace=wrap;connectable=0;strokeColor=inherit;overflow=hidden;fillColor=none;top=0;left=0;bottom=0;right=0;pointerEvents=1;fontSize=16;" parent="xsahs17My6l2bEVuUDlJ-10" vertex="1">
          <mxGeometry x="336" width="112" height="40" as="geometry">
            <mxRectangle width="112" height="40" as="alternateBounds" />
          </mxGeometry>
        </mxCell>
        <mxCell id="xsahs17My6l2bEVuUDlJ-14" value="BASE DE DATOS DE UNA TIENDA EN LINEA" style="text;html=1;align=center;verticalAlign=middle;whiteSpace=wrap;rounded=0;fontSize=18;fontStyle=1" parent="1" vertex="1">
          <mxGeometry x="310" y="40" width="246" height="30" as="geometry" />
        </mxCell>
        <mxCell id="dpLUYHb6AVahhM1fk_gA-4" value="CLIENTES" style="text;html=1;align=center;verticalAlign=middle;whiteSpace=wrap;rounded=0;fontSize=18;fontStyle=1" parent="1" vertex="1">
          <mxGeometry x="310" y="120" width="246" height="30" as="geometry" />
        </mxCell>
        <mxCell id="dpLUYHb6AVahhM1fk_gA-5" value="2NF" style="text;html=1;align=center;verticalAlign=middle;whiteSpace=wrap;rounded=0;fontSize=18;fontStyle=1" parent="1" vertex="1">
          <mxGeometry x="110" y="90" width="246" height="30" as="geometry" />
        </mxCell>
        <mxCell id="dpLUYHb6AVahhM1fk_gA-6" value="" style="shape=table;startSize=0;container=1;collapsible=0;childLayout=tableLayout;fontSize=16;" parent="1" vertex="1">
          <mxGeometry x="219" y="380" width="430" height="160" as="geometry" />
        </mxCell>
        <mxCell id="dpLUYHb6AVahhM1fk_gA-7" value="" style="shape=tableRow;horizontal=0;startSize=0;swimlaneHead=0;swimlaneBody=0;strokeColor=inherit;top=0;left=0;bottom=0;right=0;collapsible=0;dropTarget=0;fillColor=none;points=[[0,0.5],[1,0.5]];portConstraint=eastwest;fontSize=16;" parent="dpLUYHb6AVahhM1fk_gA-6" vertex="1">
          <mxGeometry width="430" height="40" as="geometry" />
        </mxCell>
        <mxCell id="dpLUYHb6AVahhM1fk_gA-8" value="ID_producto" style="shape=partialRectangle;html=1;whiteSpace=wrap;connectable=0;strokeColor=#6c8ebf;overflow=hidden;fillColor=#dae8fc;top=0;left=0;bottom=0;right=0;pointerEvents=1;fontSize=16;gradientColor=#7ea6e0;" parent="dpLUYHb6AVahhM1fk_gA-7" vertex="1">
          <mxGeometry width="143" height="40" as="geometry">
            <mxRectangle width="143" height="40" as="alternateBounds" />
          </mxGeometry>
        </mxCell>
        <mxCell id="dpLUYHb6AVahhM1fk_gA-9" value="Producto" style="shape=partialRectangle;html=1;whiteSpace=wrap;connectable=0;strokeColor=#6c8ebf;overflow=hidden;fillColor=#dae8fc;top=0;left=0;bottom=0;right=0;pointerEvents=1;fontSize=16;gradientColor=#7ea6e0;" parent="dpLUYHb6AVahhM1fk_gA-7" vertex="1">
          <mxGeometry x="143" width="144" height="40" as="geometry">
            <mxRectangle width="144" height="40" as="alternateBounds" />
          </mxGeometry>
        </mxCell>
        <mxCell id="dpLUYHb6AVahhM1fk_gA-10" value="Precio" style="shape=partialRectangle;html=1;whiteSpace=wrap;connectable=0;strokeColor=#6c8ebf;overflow=hidden;fillColor=#dae8fc;top=0;left=0;bottom=0;right=0;pointerEvents=1;fontSize=16;gradientColor=#7ea6e0;" parent="dpLUYHb6AVahhM1fk_gA-7" vertex="1">
          <mxGeometry x="287" width="143" height="40" as="geometry">
            <mxRectangle width="143" height="40" as="alternateBounds" />
          </mxGeometry>
        </mxCell>
        <mxCell id="dpLUYHb6AVahhM1fk_gA-11" value="" style="shape=tableRow;horizontal=0;startSize=0;swimlaneHead=0;swimlaneBody=0;strokeColor=inherit;top=0;left=0;bottom=0;right=0;collapsible=0;dropTarget=0;fillColor=none;points=[[0,0.5],[1,0.5]];portConstraint=eastwest;fontSize=16;" parent="dpLUYHb6AVahhM1fk_gA-6" vertex="1">
          <mxGeometry y="40" width="430" height="40" as="geometry" />
        </mxCell>
        <mxCell id="dpLUYHb6AVahhM1fk_gA-12" value="101" style="shape=partialRectangle;html=1;whiteSpace=wrap;connectable=0;strokeColor=inherit;overflow=hidden;fillColor=none;top=0;left=0;bottom=0;right=0;pointerEvents=1;fontSize=16;" parent="dpLUYHb6AVahhM1fk_gA-11" vertex="1">
          <mxGeometry width="143" height="40" as="geometry">
            <mxRectangle width="143" height="40" as="alternateBounds" />
          </mxGeometry>
        </mxCell>
        <mxCell id="dpLUYHb6AVahhM1fk_gA-13" value="Camiseta" style="shape=partialRectangle;html=1;whiteSpace=wrap;connectable=0;strokeColor=inherit;overflow=hidden;fillColor=none;top=0;left=0;bottom=0;right=0;pointerEvents=1;fontSize=16;" parent="dpLUYHb6AVahhM1fk_gA-11" vertex="1">
          <mxGeometry x="143" width="144" height="40" as="geometry">
            <mxRectangle width="144" height="40" as="alternateBounds" />
          </mxGeometry>
        </mxCell>
        <mxCell id="dpLUYHb6AVahhM1fk_gA-14" value="20.00" style="shape=partialRectangle;html=1;whiteSpace=wrap;connectable=0;strokeColor=inherit;overflow=hidden;fillColor=none;top=0;left=0;bottom=0;right=0;pointerEvents=1;fontSize=16;" parent="dpLUYHb6AVahhM1fk_gA-11" vertex="1">
          <mxGeometry x="287" width="143" height="40" as="geometry">
            <mxRectangle width="143" height="40" as="alternateBounds" />
          </mxGeometry>
        </mxCell>
        <mxCell id="dpLUYHb6AVahhM1fk_gA-15" value="" style="shape=tableRow;horizontal=0;startSize=0;swimlaneHead=0;swimlaneBody=0;strokeColor=inherit;top=0;left=0;bottom=0;right=0;collapsible=0;dropTarget=0;fillColor=none;points=[[0,0.5],[1,0.5]];portConstraint=eastwest;fontSize=16;" parent="dpLUYHb6AVahhM1fk_gA-6" vertex="1">
          <mxGeometry y="80" width="430" height="40" as="geometry" />
        </mxCell>
        <mxCell id="dpLUYHb6AVahhM1fk_gA-16" value="102" style="shape=partialRectangle;html=1;whiteSpace=wrap;connectable=0;strokeColor=inherit;overflow=hidden;fillColor=none;top=0;left=0;bottom=0;right=0;pointerEvents=1;fontSize=16;" parent="dpLUYHb6AVahhM1fk_gA-15" vertex="1">
          <mxGeometry width="143" height="40" as="geometry">
            <mxRectangle width="143" height="40" as="alternateBounds" />
          </mxGeometry>
        </mxCell>
        <mxCell id="dpLUYHb6AVahhM1fk_gA-17" value="Pantalones" style="shape=partialRectangle;html=1;whiteSpace=wrap;connectable=0;strokeColor=inherit;overflow=hidden;fillColor=none;top=0;left=0;bottom=0;right=0;pointerEvents=1;fontSize=16;" parent="dpLUYHb6AVahhM1fk_gA-15" vertex="1">
          <mxGeometry x="143" width="144" height="40" as="geometry">
            <mxRectangle width="144" height="40" as="alternateBounds" />
          </mxGeometry>
        </mxCell>
        <mxCell id="dpLUYHb6AVahhM1fk_gA-18" value="25.00" style="shape=partialRectangle;html=1;whiteSpace=wrap;connectable=0;strokeColor=inherit;overflow=hidden;fillColor=none;top=0;left=0;bottom=0;right=0;pointerEvents=1;fontSize=16;" parent="dpLUYHb6AVahhM1fk_gA-15" vertex="1">
          <mxGeometry x="287" width="143" height="40" as="geometry">
            <mxRectangle width="143" height="40" as="alternateBounds" />
          </mxGeometry>
        </mxCell>
        <mxCell id="dpLUYHb6AVahhM1fk_gA-19" style="shape=tableRow;horizontal=0;startSize=0;swimlaneHead=0;swimlaneBody=0;strokeColor=inherit;top=0;left=0;bottom=0;right=0;collapsible=0;dropTarget=0;fillColor=none;points=[[0,0.5],[1,0.5]];portConstraint=eastwest;fontSize=16;" parent="dpLUYHb6AVahhM1fk_gA-6" vertex="1">
          <mxGeometry y="120" width="430" height="40" as="geometry" />
        </mxCell>
        <mxCell id="dpLUYHb6AVahhM1fk_gA-20" value="103" style="shape=partialRectangle;html=1;whiteSpace=wrap;connectable=0;strokeColor=inherit;overflow=hidden;fillColor=none;top=0;left=0;bottom=0;right=0;pointerEvents=1;fontSize=16;" parent="dpLUYHb6AVahhM1fk_gA-19" vertex="1">
          <mxGeometry width="143" height="40" as="geometry">
            <mxRectangle width="143" height="40" as="alternateBounds" />
          </mxGeometry>
        </mxCell>
        <mxCell id="dpLUYHb6AVahhM1fk_gA-21" value="Zapatos" style="shape=partialRectangle;html=1;whiteSpace=wrap;connectable=0;strokeColor=inherit;overflow=hidden;fillColor=none;top=0;left=0;bottom=0;right=0;pointerEvents=1;fontSize=16;" parent="dpLUYHb6AVahhM1fk_gA-19" vertex="1">
          <mxGeometry x="143" width="144" height="40" as="geometry">
            <mxRectangle width="144" height="40" as="alternateBounds" />
          </mxGeometry>
        </mxCell>
        <mxCell id="dpLUYHb6AVahhM1fk_gA-22" value="50.00" style="shape=partialRectangle;html=1;whiteSpace=wrap;connectable=0;strokeColor=inherit;overflow=hidden;fillColor=none;top=0;left=0;bottom=0;right=0;pointerEvents=1;fontSize=16;" parent="dpLUYHb6AVahhM1fk_gA-19" vertex="1">
          <mxGeometry x="287" width="143" height="40" as="geometry">
            <mxRectangle width="143" height="40" as="alternateBounds" />
          </mxGeometry>
        </mxCell>
        <mxCell id="dpLUYHb6AVahhM1fk_gA-23" value="PRODUCTOS" style="text;html=1;align=center;verticalAlign=middle;whiteSpace=wrap;rounded=0;fontSize=18;fontStyle=1" parent="1" vertex="1">
          <mxGeometry x="311" y="330" width="246" height="30" as="geometry" />
        </mxCell>
        <mxCell id="dpLUYHb6AVahhM1fk_gA-24" value="" style="shape=table;startSize=0;container=1;collapsible=0;childLayout=tableLayout;fontSize=16;" parent="1" vertex="1">
          <mxGeometry x="210" y="630" width="430" height="200" as="geometry" />
        </mxCell>
        <mxCell id="dpLUYHb6AVahhM1fk_gA-25" value="" style="shape=tableRow;horizontal=0;startSize=0;swimlaneHead=0;swimlaneBody=0;strokeColor=inherit;top=0;left=0;bottom=0;right=0;collapsible=0;dropTarget=0;fillColor=none;points=[[0,0.5],[1,0.5]];portConstraint=eastwest;fontSize=16;" parent="dpLUYHb6AVahhM1fk_gA-24" vertex="1">
          <mxGeometry width="430" height="40" as="geometry" />
        </mxCell>
        <mxCell id="dpLUYHb6AVahhM1fk_gA-26" value="ID_Pedido" style="shape=partialRectangle;html=1;whiteSpace=wrap;connectable=0;strokeColor=#6c8ebf;overflow=hidden;fillColor=#dae8fc;top=0;left=0;bottom=0;right=0;pointerEvents=1;fontSize=16;gradientColor=#7ea6e0;" parent="dpLUYHb6AVahhM1fk_gA-25" vertex="1">
          <mxGeometry width="143" height="40" as="geometry">
            <mxRectangle width="143" height="40" as="alternateBounds" />
          </mxGeometry>
        </mxCell>
        <mxCell id="dpLUYHb6AVahhM1fk_gA-27" value="ID_Cliente" style="shape=partialRectangle;html=1;whiteSpace=wrap;connectable=0;strokeColor=#6c8ebf;overflow=hidden;fillColor=#dae8fc;top=0;left=0;bottom=0;right=0;pointerEvents=1;fontSize=16;gradientColor=#7ea6e0;" parent="dpLUYHb6AVahhM1fk_gA-25" vertex="1">
          <mxGeometry x="143" width="144" height="40" as="geometry">
            <mxRectangle width="144" height="40" as="alternateBounds" />
          </mxGeometry>
        </mxCell>
        <mxCell id="dpLUYHb6AVahhM1fk_gA-28" value="ID_Producto" style="shape=partialRectangle;html=1;whiteSpace=wrap;connectable=0;strokeColor=#6c8ebf;overflow=hidden;fillColor=#dae8fc;top=0;left=0;bottom=0;right=0;pointerEvents=1;fontSize=16;gradientColor=#7ea6e0;" parent="dpLUYHb6AVahhM1fk_gA-25" vertex="1">
          <mxGeometry x="287" width="143" height="40" as="geometry">
            <mxRectangle width="143" height="40" as="alternateBounds" />
          </mxGeometry>
        </mxCell>
        <mxCell id="dpLUYHb6AVahhM1fk_gA-29" value="" style="shape=tableRow;horizontal=0;startSize=0;swimlaneHead=0;swimlaneBody=0;strokeColor=inherit;top=0;left=0;bottom=0;right=0;collapsible=0;dropTarget=0;fillColor=none;points=[[0,0.5],[1,0.5]];portConstraint=eastwest;fontSize=16;" parent="dpLUYHb6AVahhM1fk_gA-24" vertex="1">
          <mxGeometry y="40" width="430" height="40" as="geometry" />
        </mxCell>
        <mxCell id="dpLUYHb6AVahhM1fk_gA-30" value="1" style="shape=partialRectangle;html=1;whiteSpace=wrap;connectable=0;strokeColor=inherit;overflow=hidden;fillColor=none;top=0;left=0;bottom=0;right=0;pointerEvents=1;fontSize=16;" parent="dpLUYHb6AVahhM1fk_gA-29" vertex="1">
          <mxGeometry width="143" height="40" as="geometry">
            <mxRectangle width="143" height="40" as="alternateBounds" />
          </mxGeometry>
        </mxCell>
        <mxCell id="dpLUYHb6AVahhM1fk_gA-31" value="1" style="shape=partialRectangle;html=1;whiteSpace=wrap;connectable=0;strokeColor=inherit;overflow=hidden;fillColor=none;top=0;left=0;bottom=0;right=0;pointerEvents=1;fontSize=16;" parent="dpLUYHb6AVahhM1fk_gA-29" vertex="1">
          <mxGeometry x="143" width="144" height="40" as="geometry">
            <mxRectangle width="144" height="40" as="alternateBounds" />
          </mxGeometry>
        </mxCell>
        <mxCell id="dpLUYHb6AVahhM1fk_gA-32" value="101" style="shape=partialRectangle;html=1;whiteSpace=wrap;connectable=0;strokeColor=inherit;overflow=hidden;fillColor=none;top=0;left=0;bottom=0;right=0;pointerEvents=1;fontSize=16;" parent="dpLUYHb6AVahhM1fk_gA-29" vertex="1">
          <mxGeometry x="287" width="143" height="40" as="geometry">
            <mxRectangle width="143" height="40" as="alternateBounds" />
          </mxGeometry>
        </mxCell>
        <mxCell id="dpLUYHb6AVahhM1fk_gA-33" value="" style="shape=tableRow;horizontal=0;startSize=0;swimlaneHead=0;swimlaneBody=0;strokeColor=inherit;top=0;left=0;bottom=0;right=0;collapsible=0;dropTarget=0;fillColor=none;points=[[0,0.5],[1,0.5]];portConstraint=eastwest;fontSize=16;" parent="dpLUYHb6AVahhM1fk_gA-24" vertex="1">
          <mxGeometry y="80" width="430" height="40" as="geometry" />
        </mxCell>
        <mxCell id="dpLUYHb6AVahhM1fk_gA-34" value="1" style="shape=partialRectangle;html=1;whiteSpace=wrap;connectable=0;strokeColor=inherit;overflow=hidden;fillColor=none;top=0;left=0;bottom=0;right=0;pointerEvents=1;fontSize=16;" parent="dpLUYHb6AVahhM1fk_gA-33" vertex="1">
          <mxGeometry width="143" height="40" as="geometry">
            <mxRectangle width="143" height="40" as="alternateBounds" />
          </mxGeometry>
        </mxCell>
        <mxCell id="dpLUYHb6AVahhM1fk_gA-35" value="1" style="shape=partialRectangle;html=1;whiteSpace=wrap;connectable=0;strokeColor=inherit;overflow=hidden;fillColor=none;top=0;left=0;bottom=0;right=0;pointerEvents=1;fontSize=16;" parent="dpLUYHb6AVahhM1fk_gA-33" vertex="1">
          <mxGeometry x="143" width="144" height="40" as="geometry">
            <mxRectangle width="144" height="40" as="alternateBounds" />
          </mxGeometry>
        </mxCell>
        <mxCell id="dpLUYHb6AVahhM1fk_gA-36" value="102" style="shape=partialRectangle;html=1;whiteSpace=wrap;connectable=0;strokeColor=inherit;overflow=hidden;fillColor=none;top=0;left=0;bottom=0;right=0;pointerEvents=1;fontSize=16;" parent="dpLUYHb6AVahhM1fk_gA-33" vertex="1">
          <mxGeometry x="287" width="143" height="40" as="geometry">
            <mxRectangle width="143" height="40" as="alternateBounds" />
          </mxGeometry>
        </mxCell>
        <mxCell id="dpLUYHb6AVahhM1fk_gA-38" style="shape=tableRow;horizontal=0;startSize=0;swimlaneHead=0;swimlaneBody=0;strokeColor=inherit;top=0;left=0;bottom=0;right=0;collapsible=0;dropTarget=0;fillColor=none;points=[[0,0.5],[1,0.5]];portConstraint=eastwest;fontSize=16;" parent="dpLUYHb6AVahhM1fk_gA-24" vertex="1">
          <mxGeometry y="120" width="430" height="40" as="geometry" />
        </mxCell>
        <mxCell id="dpLUYHb6AVahhM1fk_gA-39" value="2" style="shape=partialRectangle;html=1;whiteSpace=wrap;connectable=0;strokeColor=inherit;overflow=hidden;fillColor=none;top=0;left=0;bottom=0;right=0;pointerEvents=1;fontSize=16;" parent="dpLUYHb6AVahhM1fk_gA-38" vertex="1">
          <mxGeometry width="143" height="40" as="geometry">
            <mxRectangle width="143" height="40" as="alternateBounds" />
          </mxGeometry>
        </mxCell>
        <mxCell id="dpLUYHb6AVahhM1fk_gA-40" value="2" style="shape=partialRectangle;html=1;whiteSpace=wrap;connectable=0;strokeColor=inherit;overflow=hidden;fillColor=none;top=0;left=0;bottom=0;right=0;pointerEvents=1;fontSize=16;" parent="dpLUYHb6AVahhM1fk_gA-38" vertex="1">
          <mxGeometry x="143" width="144" height="40" as="geometry">
            <mxRectangle width="144" height="40" as="alternateBounds" />
          </mxGeometry>
        </mxCell>
        <mxCell id="dpLUYHb6AVahhM1fk_gA-41" value="103" style="shape=partialRectangle;html=1;whiteSpace=wrap;connectable=0;strokeColor=inherit;overflow=hidden;fillColor=none;top=0;left=0;bottom=0;right=0;pointerEvents=1;fontSize=16;" parent="dpLUYHb6AVahhM1fk_gA-38" vertex="1">
          <mxGeometry x="287" width="143" height="40" as="geometry">
            <mxRectangle width="143" height="40" as="alternateBounds" />
          </mxGeometry>
        </mxCell>
        <mxCell id="dpLUYHb6AVahhM1fk_gA-42" style="shape=tableRow;horizontal=0;startSize=0;swimlaneHead=0;swimlaneBody=0;strokeColor=inherit;top=0;left=0;bottom=0;right=0;collapsible=0;dropTarget=0;fillColor=none;points=[[0,0.5],[1,0.5]];portConstraint=eastwest;fontSize=16;" parent="dpLUYHb6AVahhM1fk_gA-24" vertex="1">
          <mxGeometry y="160" width="430" height="40" as="geometry" />
        </mxCell>
        <mxCell id="dpLUYHb6AVahhM1fk_gA-43" value="2" style="shape=partialRectangle;html=1;whiteSpace=wrap;connectable=0;strokeColor=inherit;overflow=hidden;fillColor=none;top=0;left=0;bottom=0;right=0;pointerEvents=1;fontSize=16;" parent="dpLUYHb6AVahhM1fk_gA-42" vertex="1">
          <mxGeometry width="143" height="40" as="geometry">
            <mxRectangle width="143" height="40" as="alternateBounds" />
          </mxGeometry>
        </mxCell>
        <mxCell id="dpLUYHb6AVahhM1fk_gA-44" value="2" style="shape=partialRectangle;html=1;whiteSpace=wrap;connectable=0;strokeColor=inherit;overflow=hidden;fillColor=none;top=0;left=0;bottom=0;right=0;pointerEvents=1;fontSize=16;" parent="dpLUYHb6AVahhM1fk_gA-42" vertex="1">
          <mxGeometry x="143" width="144" height="40" as="geometry">
            <mxRectangle width="144" height="40" as="alternateBounds" />
          </mxGeometry>
        </mxCell>
        <mxCell id="dpLUYHb6AVahhM1fk_gA-45" value="101" style="shape=partialRectangle;html=1;whiteSpace=wrap;connectable=0;strokeColor=inherit;overflow=hidden;fillColor=none;top=0;left=0;bottom=0;right=0;pointerEvents=1;fontSize=16;" parent="dpLUYHb6AVahhM1fk_gA-42" vertex="1">
          <mxGeometry x="287" width="143" height="40" as="geometry">
            <mxRectangle width="143" height="40" as="alternateBounds" />
          </mxGeometry>
        </mxCell>
        <mxCell id="dpLUYHb6AVahhM1fk_gA-37" value="DETALLES PEDIDOS" style="text;html=1;align=center;verticalAlign=middle;whiteSpace=wrap;rounded=0;fontSize=18;fontStyle=1" parent="1" vertex="1">
          <mxGeometry x="311" y="584.5" width="246" height="30" as="geometry" />
        </mxCell>
      </root>
    </mxGraphModel>
  </diagram>
  <diagram id="kA_SLuuCo_Qh-gP3cPMO" name="Ejercicio 3">
    <mxGraphModel dx="1214" dy="628" grid="1" gridSize="10" guides="1" tooltips="1" connect="1" arrows="1" fold="1" page="1" pageScale="1" pageWidth="827" pageHeight="1169" math="0" shadow="0">
      <root>
        <mxCell id="0" />
        <mxCell id="1" parent="0" />
        <mxCell id="-emGV6kYIIXzz-Nj6AL5-1" value="" style="shape=table;startSize=0;container=1;collapsible=0;childLayout=tableLayout;fontSize=16;" vertex="1" parent="1">
          <mxGeometry x="179" y="160" width="470" height="160" as="geometry" />
        </mxCell>
        <mxCell id="-emGV6kYIIXzz-Nj6AL5-2" value="" style="shape=tableRow;horizontal=0;startSize=0;swimlaneHead=0;swimlaneBody=0;strokeColor=inherit;top=0;left=0;bottom=0;right=0;collapsible=0;dropTarget=0;fillColor=none;points=[[0,0.5],[1,0.5]];portConstraint=eastwest;fontSize=16;" vertex="1" parent="-emGV6kYIIXzz-Nj6AL5-1">
          <mxGeometry width="470" height="40" as="geometry" />
        </mxCell>
        <mxCell id="-emGV6kYIIXzz-Nj6AL5-3" value="ID_Doctor" style="shape=partialRectangle;html=1;whiteSpace=wrap;connectable=0;strokeColor=#6c8ebf;overflow=hidden;fillColor=#dae8fc;top=0;left=0;bottom=0;right=0;pointerEvents=1;fontSize=16;gradientColor=#7ea6e0;" vertex="1" parent="-emGV6kYIIXzz-Nj6AL5-2">
          <mxGeometry width="156" height="40" as="geometry">
            <mxRectangle width="156" height="40" as="alternateBounds" />
          </mxGeometry>
        </mxCell>
        <mxCell id="-emGV6kYIIXzz-Nj6AL5-4" value="Doctor" style="shape=partialRectangle;html=1;whiteSpace=wrap;connectable=0;strokeColor=#6c8ebf;overflow=hidden;fillColor=#dae8fc;top=0;left=0;bottom=0;right=0;pointerEvents=1;fontSize=16;gradientColor=#7ea6e0;" vertex="1" parent="-emGV6kYIIXzz-Nj6AL5-2">
          <mxGeometry x="156" width="158" height="40" as="geometry">
            <mxRectangle width="158" height="40" as="alternateBounds" />
          </mxGeometry>
        </mxCell>
        <mxCell id="-emGV6kYIIXzz-Nj6AL5-5" value="Especialidad" style="shape=partialRectangle;html=1;whiteSpace=wrap;connectable=0;strokeColor=#6c8ebf;overflow=hidden;fillColor=#dae8fc;top=0;left=0;bottom=0;right=0;pointerEvents=1;fontSize=16;gradientColor=#7ea6e0;" vertex="1" parent="-emGV6kYIIXzz-Nj6AL5-2">
          <mxGeometry x="314" width="156" height="40" as="geometry">
            <mxRectangle width="156" height="40" as="alternateBounds" />
          </mxGeometry>
        </mxCell>
        <mxCell id="-emGV6kYIIXzz-Nj6AL5-6" value="" style="shape=tableRow;horizontal=0;startSize=0;swimlaneHead=0;swimlaneBody=0;strokeColor=inherit;top=0;left=0;bottom=0;right=0;collapsible=0;dropTarget=0;fillColor=none;points=[[0,0.5],[1,0.5]];portConstraint=eastwest;fontSize=16;" vertex="1" parent="-emGV6kYIIXzz-Nj6AL5-1">
          <mxGeometry y="40" width="470" height="40" as="geometry" />
        </mxCell>
        <mxCell id="-emGV6kYIIXzz-Nj6AL5-7" value="1" style="shape=partialRectangle;html=1;whiteSpace=wrap;connectable=0;strokeColor=inherit;overflow=hidden;fillColor=none;top=0;left=0;bottom=0;right=0;pointerEvents=1;fontSize=16;" vertex="1" parent="-emGV6kYIIXzz-Nj6AL5-6">
          <mxGeometry width="156" height="40" as="geometry">
            <mxRectangle width="156" height="40" as="alternateBounds" />
          </mxGeometry>
        </mxCell>
        <mxCell id="-emGV6kYIIXzz-Nj6AL5-8" value="Dr. Smith" style="shape=partialRectangle;html=1;whiteSpace=wrap;connectable=0;strokeColor=inherit;overflow=hidden;fillColor=none;top=0;left=0;bottom=0;right=0;pointerEvents=1;fontSize=16;" vertex="1" parent="-emGV6kYIIXzz-Nj6AL5-6">
          <mxGeometry x="156" width="158" height="40" as="geometry">
            <mxRectangle width="158" height="40" as="alternateBounds" />
          </mxGeometry>
        </mxCell>
        <mxCell id="-emGV6kYIIXzz-Nj6AL5-9" value="Cardiologia" style="shape=partialRectangle;html=1;whiteSpace=wrap;connectable=0;strokeColor=inherit;overflow=hidden;fillColor=none;top=0;left=0;bottom=0;right=0;pointerEvents=1;fontSize=16;" vertex="1" parent="-emGV6kYIIXzz-Nj6AL5-6">
          <mxGeometry x="314" width="156" height="40" as="geometry">
            <mxRectangle width="156" height="40" as="alternateBounds" />
          </mxGeometry>
        </mxCell>
        <mxCell id="-emGV6kYIIXzz-Nj6AL5-10" value="" style="shape=tableRow;horizontal=0;startSize=0;swimlaneHead=0;swimlaneBody=0;strokeColor=inherit;top=0;left=0;bottom=0;right=0;collapsible=0;dropTarget=0;fillColor=none;points=[[0,0.5],[1,0.5]];portConstraint=eastwest;fontSize=16;" vertex="1" parent="-emGV6kYIIXzz-Nj6AL5-1">
          <mxGeometry y="80" width="470" height="40" as="geometry" />
        </mxCell>
        <mxCell id="-emGV6kYIIXzz-Nj6AL5-11" value="2" style="shape=partialRectangle;html=1;whiteSpace=wrap;connectable=0;strokeColor=inherit;overflow=hidden;fillColor=none;top=0;left=0;bottom=0;right=0;pointerEvents=1;fontSize=16;" vertex="1" parent="-emGV6kYIIXzz-Nj6AL5-10">
          <mxGeometry width="156" height="40" as="geometry">
            <mxRectangle width="156" height="40" as="alternateBounds" />
          </mxGeometry>
        </mxCell>
        <mxCell id="-emGV6kYIIXzz-Nj6AL5-12" value="Dr. Johnson" style="shape=partialRectangle;html=1;whiteSpace=wrap;connectable=0;strokeColor=inherit;overflow=hidden;fillColor=none;top=0;left=0;bottom=0;right=0;pointerEvents=1;fontSize=16;" vertex="1" parent="-emGV6kYIIXzz-Nj6AL5-10">
          <mxGeometry x="156" width="158" height="40" as="geometry">
            <mxRectangle width="158" height="40" as="alternateBounds" />
          </mxGeometry>
        </mxCell>
        <mxCell id="-emGV6kYIIXzz-Nj6AL5-13" value="Neurologia" style="shape=partialRectangle;html=1;whiteSpace=wrap;connectable=0;strokeColor=inherit;overflow=hidden;fillColor=none;top=0;left=0;bottom=0;right=0;pointerEvents=1;fontSize=16;" vertex="1" parent="-emGV6kYIIXzz-Nj6AL5-10">
          <mxGeometry x="314" width="156" height="40" as="geometry">
            <mxRectangle width="156" height="40" as="alternateBounds" />
          </mxGeometry>
        </mxCell>
        <mxCell id="-emGV6kYIIXzz-Nj6AL5-15" style="shape=tableRow;horizontal=0;startSize=0;swimlaneHead=0;swimlaneBody=0;strokeColor=inherit;top=0;left=0;bottom=0;right=0;collapsible=0;dropTarget=0;fillColor=none;points=[[0,0.5],[1,0.5]];portConstraint=eastwest;fontSize=16;" vertex="1" parent="-emGV6kYIIXzz-Nj6AL5-1">
          <mxGeometry y="120" width="470" height="40" as="geometry" />
        </mxCell>
        <mxCell id="-emGV6kYIIXzz-Nj6AL5-16" value="3" style="shape=partialRectangle;html=1;whiteSpace=wrap;connectable=0;strokeColor=inherit;overflow=hidden;fillColor=none;top=0;left=0;bottom=0;right=0;pointerEvents=1;fontSize=16;" vertex="1" parent="-emGV6kYIIXzz-Nj6AL5-15">
          <mxGeometry width="156" height="40" as="geometry">
            <mxRectangle width="156" height="40" as="alternateBounds" />
          </mxGeometry>
        </mxCell>
        <mxCell id="-emGV6kYIIXzz-Nj6AL5-17" value="Dr. Lee" style="shape=partialRectangle;html=1;whiteSpace=wrap;connectable=0;strokeColor=inherit;overflow=hidden;fillColor=none;top=0;left=0;bottom=0;right=0;pointerEvents=1;fontSize=16;" vertex="1" parent="-emGV6kYIIXzz-Nj6AL5-15">
          <mxGeometry x="156" width="158" height="40" as="geometry">
            <mxRectangle width="158" height="40" as="alternateBounds" />
          </mxGeometry>
        </mxCell>
        <mxCell id="-emGV6kYIIXzz-Nj6AL5-18" value="Pediatria" style="shape=partialRectangle;html=1;whiteSpace=wrap;connectable=0;strokeColor=inherit;overflow=hidden;fillColor=none;top=0;left=0;bottom=0;right=0;pointerEvents=1;fontSize=16;" vertex="1" parent="-emGV6kYIIXzz-Nj6AL5-15">
          <mxGeometry x="314" width="156" height="40" as="geometry">
            <mxRectangle width="156" height="40" as="alternateBounds" />
          </mxGeometry>
        </mxCell>
        <mxCell id="-emGV6kYIIXzz-Nj6AL5-14" value="BASE DE DATOS DE UN HOSPITAL" style="text;html=1;align=center;verticalAlign=middle;whiteSpace=wrap;rounded=0;fontStyle=1;fontSize=18;" vertex="1" parent="1">
          <mxGeometry x="294" y="40" width="240" height="30" as="geometry" />
        </mxCell>
        <mxCell id="-emGV6kYIIXzz-Nj6AL5-19" value="Doctores" style="text;html=1;align=center;verticalAlign=middle;whiteSpace=wrap;rounded=0;fontStyle=1;fontSize=18;" vertex="1" parent="1">
          <mxGeometry x="304" y="120" width="240" height="30" as="geometry" />
        </mxCell>
        <mxCell id="-emGV6kYIIXzz-Nj6AL5-20" value="3NF" style="text;html=1;align=center;verticalAlign=middle;whiteSpace=wrap;rounded=0;fontStyle=1;fontSize=18;" vertex="1" parent="1">
          <mxGeometry x="100" y="90" width="240" height="30" as="geometry" />
        </mxCell>
        <mxCell id="-emGV6kYIIXzz-Nj6AL5-21" value="" style="shape=table;startSize=0;container=1;collapsible=0;childLayout=tableLayout;fontSize=16;" vertex="1" parent="1">
          <mxGeometry x="251" y="430" width="326" height="160" as="geometry" />
        </mxCell>
        <mxCell id="-emGV6kYIIXzz-Nj6AL5-22" value="" style="shape=tableRow;horizontal=0;startSize=0;swimlaneHead=0;swimlaneBody=0;strokeColor=inherit;top=0;left=0;bottom=0;right=0;collapsible=0;dropTarget=0;fillColor=none;points=[[0,0.5],[1,0.5]];portConstraint=eastwest;fontSize=16;" vertex="1" parent="-emGV6kYIIXzz-Nj6AL5-21">
          <mxGeometry width="326" height="40" as="geometry" />
        </mxCell>
        <mxCell id="-emGV6kYIIXzz-Nj6AL5-23" value="ID_Paciente" style="shape=partialRectangle;html=1;whiteSpace=wrap;connectable=0;strokeColor=#6c8ebf;overflow=hidden;fillColor=#dae8fc;top=0;left=0;bottom=0;right=0;pointerEvents=1;fontSize=16;gradientColor=#7ea6e0;" vertex="1" parent="-emGV6kYIIXzz-Nj6AL5-22">
          <mxGeometry width="164" height="40" as="geometry">
            <mxRectangle width="164" height="40" as="alternateBounds" />
          </mxGeometry>
        </mxCell>
        <mxCell id="-emGV6kYIIXzz-Nj6AL5-24" value="Paciente" style="shape=partialRectangle;html=1;whiteSpace=wrap;connectable=0;strokeColor=#6c8ebf;overflow=hidden;fillColor=#dae8fc;top=0;left=0;bottom=0;right=0;pointerEvents=1;fontSize=16;gradientColor=#7ea6e0;" vertex="1" parent="-emGV6kYIIXzz-Nj6AL5-22">
          <mxGeometry x="164" width="162" height="40" as="geometry">
            <mxRectangle width="162" height="40" as="alternateBounds" />
          </mxGeometry>
        </mxCell>
        <mxCell id="-emGV6kYIIXzz-Nj6AL5-26" value="" style="shape=tableRow;horizontal=0;startSize=0;swimlaneHead=0;swimlaneBody=0;strokeColor=inherit;top=0;left=0;bottom=0;right=0;collapsible=0;dropTarget=0;fillColor=none;points=[[0,0.5],[1,0.5]];portConstraint=eastwest;fontSize=16;" vertex="1" parent="-emGV6kYIIXzz-Nj6AL5-21">
          <mxGeometry y="40" width="326" height="40" as="geometry" />
        </mxCell>
        <mxCell id="-emGV6kYIIXzz-Nj6AL5-27" value="100" style="shape=partialRectangle;html=1;whiteSpace=wrap;connectable=0;strokeColor=inherit;overflow=hidden;fillColor=none;top=0;left=0;bottom=0;right=0;pointerEvents=1;fontSize=16;" vertex="1" parent="-emGV6kYIIXzz-Nj6AL5-26">
          <mxGeometry width="164" height="40" as="geometry">
            <mxRectangle width="164" height="40" as="alternateBounds" />
          </mxGeometry>
        </mxCell>
        <mxCell id="-emGV6kYIIXzz-Nj6AL5-28" value="Juan Perez" style="shape=partialRectangle;html=1;whiteSpace=wrap;connectable=0;strokeColor=inherit;overflow=hidden;fillColor=none;top=0;left=0;bottom=0;right=0;pointerEvents=1;fontSize=16;" vertex="1" parent="-emGV6kYIIXzz-Nj6AL5-26">
          <mxGeometry x="164" width="162" height="40" as="geometry">
            <mxRectangle width="162" height="40" as="alternateBounds" />
          </mxGeometry>
        </mxCell>
        <mxCell id="-emGV6kYIIXzz-Nj6AL5-30" value="" style="shape=tableRow;horizontal=0;startSize=0;swimlaneHead=0;swimlaneBody=0;strokeColor=inherit;top=0;left=0;bottom=0;right=0;collapsible=0;dropTarget=0;fillColor=none;points=[[0,0.5],[1,0.5]];portConstraint=eastwest;fontSize=16;" vertex="1" parent="-emGV6kYIIXzz-Nj6AL5-21">
          <mxGeometry y="80" width="326" height="40" as="geometry" />
        </mxCell>
        <mxCell id="-emGV6kYIIXzz-Nj6AL5-31" value="101" style="shape=partialRectangle;html=1;whiteSpace=wrap;connectable=0;strokeColor=inherit;overflow=hidden;fillColor=none;top=0;left=0;bottom=0;right=0;pointerEvents=1;fontSize=16;" vertex="1" parent="-emGV6kYIIXzz-Nj6AL5-30">
          <mxGeometry width="164" height="40" as="geometry">
            <mxRectangle width="164" height="40" as="alternateBounds" />
          </mxGeometry>
        </mxCell>
        <mxCell id="-emGV6kYIIXzz-Nj6AL5-32" value="Ana Gomez" style="shape=partialRectangle;html=1;whiteSpace=wrap;connectable=0;strokeColor=inherit;overflow=hidden;fillColor=none;top=0;left=0;bottom=0;right=0;pointerEvents=1;fontSize=16;" vertex="1" parent="-emGV6kYIIXzz-Nj6AL5-30">
          <mxGeometry x="164" width="162" height="40" as="geometry">
            <mxRectangle width="162" height="40" as="alternateBounds" />
          </mxGeometry>
        </mxCell>
        <mxCell id="-emGV6kYIIXzz-Nj6AL5-34" style="shape=tableRow;horizontal=0;startSize=0;swimlaneHead=0;swimlaneBody=0;strokeColor=inherit;top=0;left=0;bottom=0;right=0;collapsible=0;dropTarget=0;fillColor=none;points=[[0,0.5],[1,0.5]];portConstraint=eastwest;fontSize=16;" vertex="1" parent="-emGV6kYIIXzz-Nj6AL5-21">
          <mxGeometry y="120" width="326" height="40" as="geometry" />
        </mxCell>
        <mxCell id="-emGV6kYIIXzz-Nj6AL5-35" value="102" style="shape=partialRectangle;html=1;whiteSpace=wrap;connectable=0;strokeColor=inherit;overflow=hidden;fillColor=none;top=0;left=0;bottom=0;right=0;pointerEvents=1;fontSize=16;" vertex="1" parent="-emGV6kYIIXzz-Nj6AL5-34">
          <mxGeometry width="164" height="40" as="geometry">
            <mxRectangle width="164" height="40" as="alternateBounds" />
          </mxGeometry>
        </mxCell>
        <mxCell id="-emGV6kYIIXzz-Nj6AL5-36" value="Maria Lopez" style="shape=partialRectangle;html=1;whiteSpace=wrap;connectable=0;strokeColor=inherit;overflow=hidden;fillColor=none;top=0;left=0;bottom=0;right=0;pointerEvents=1;fontSize=16;" vertex="1" parent="-emGV6kYIIXzz-Nj6AL5-34">
          <mxGeometry x="164" width="162" height="40" as="geometry">
            <mxRectangle width="162" height="40" as="alternateBounds" />
          </mxGeometry>
        </mxCell>
        <mxCell id="-emGV6kYIIXzz-Nj6AL5-40" value="Pacientes:" style="text;html=1;align=center;verticalAlign=middle;whiteSpace=wrap;rounded=0;fontStyle=1;fontSize=18;" vertex="1" parent="1">
          <mxGeometry x="294" y="390" width="240" height="30" as="geometry" />
        </mxCell>
        <mxCell id="vp_f4w4xAxXRra5Dk8ZH-1" value="" style="shape=table;startSize=0;container=1;collapsible=0;childLayout=tableLayout;fontSize=16;" vertex="1" parent="1">
          <mxGeometry x="200" y="670" width="420" height="200" as="geometry" />
        </mxCell>
        <mxCell id="vp_f4w4xAxXRra5Dk8ZH-2" value="" style="shape=tableRow;horizontal=0;startSize=0;swimlaneHead=0;swimlaneBody=0;strokeColor=inherit;top=0;left=0;bottom=0;right=0;collapsible=0;dropTarget=0;fillColor=none;points=[[0,0.5],[1,0.5]];portConstraint=eastwest;fontSize=16;" vertex="1" parent="vp_f4w4xAxXRra5Dk8ZH-1">
          <mxGeometry width="420" height="40" as="geometry" />
        </mxCell>
        <mxCell id="vp_f4w4xAxXRra5Dk8ZH-3" value="ID_Consulta" style="shape=partialRectangle;html=1;whiteSpace=wrap;connectable=0;strokeColor=#6c8ebf;overflow=hidden;fillColor=#dae8fc;top=0;left=0;bottom=0;right=0;pointerEvents=1;fontSize=16;gradientColor=#7ea6e0;" vertex="1" parent="vp_f4w4xAxXRra5Dk8ZH-2">
          <mxGeometry width="140" height="40" as="geometry">
            <mxRectangle width="140" height="40" as="alternateBounds" />
          </mxGeometry>
        </mxCell>
        <mxCell id="vp_f4w4xAxXRra5Dk8ZH-4" value="ID_Paciente" style="shape=partialRectangle;html=1;whiteSpace=wrap;connectable=0;strokeColor=#6c8ebf;overflow=hidden;fillColor=#dae8fc;top=0;left=0;bottom=0;right=0;pointerEvents=1;fontSize=16;gradientColor=#7ea6e0;" vertex="1" parent="vp_f4w4xAxXRra5Dk8ZH-2">
          <mxGeometry x="140" width="140" height="40" as="geometry">
            <mxRectangle width="140" height="40" as="alternateBounds" />
          </mxGeometry>
        </mxCell>
        <mxCell id="vp_f4w4xAxXRra5Dk8ZH-5" value="ID_ Doctor" style="shape=partialRectangle;html=1;whiteSpace=wrap;connectable=0;strokeColor=#6c8ebf;overflow=hidden;fillColor=#dae8fc;top=0;left=0;bottom=0;right=0;pointerEvents=1;fontSize=16;gradientColor=#7ea6e0;" vertex="1" parent="vp_f4w4xAxXRra5Dk8ZH-2">
          <mxGeometry x="280" width="140" height="40" as="geometry">
            <mxRectangle width="140" height="40" as="alternateBounds" />
          </mxGeometry>
        </mxCell>
        <mxCell id="vp_f4w4xAxXRra5Dk8ZH-6" value="" style="shape=tableRow;horizontal=0;startSize=0;swimlaneHead=0;swimlaneBody=0;strokeColor=inherit;top=0;left=0;bottom=0;right=0;collapsible=0;dropTarget=0;fillColor=none;points=[[0,0.5],[1,0.5]];portConstraint=eastwest;fontSize=16;" vertex="1" parent="vp_f4w4xAxXRra5Dk8ZH-1">
          <mxGeometry y="40" width="420" height="40" as="geometry" />
        </mxCell>
        <mxCell id="vp_f4w4xAxXRra5Dk8ZH-7" value="1" style="shape=partialRectangle;html=1;whiteSpace=wrap;connectable=0;strokeColor=inherit;overflow=hidden;fillColor=none;top=0;left=0;bottom=0;right=0;pointerEvents=1;fontSize=16;" vertex="1" parent="vp_f4w4xAxXRra5Dk8ZH-6">
          <mxGeometry width="140" height="40" as="geometry">
            <mxRectangle width="140" height="40" as="alternateBounds" />
          </mxGeometry>
        </mxCell>
        <mxCell id="vp_f4w4xAxXRra5Dk8ZH-8" value="100" style="shape=partialRectangle;html=1;whiteSpace=wrap;connectable=0;strokeColor=inherit;overflow=hidden;fillColor=none;top=0;left=0;bottom=0;right=0;pointerEvents=1;fontSize=16;" vertex="1" parent="vp_f4w4xAxXRra5Dk8ZH-6">
          <mxGeometry x="140" width="140" height="40" as="geometry">
            <mxRectangle width="140" height="40" as="alternateBounds" />
          </mxGeometry>
        </mxCell>
        <mxCell id="vp_f4w4xAxXRra5Dk8ZH-9" value="1" style="shape=partialRectangle;html=1;whiteSpace=wrap;connectable=0;strokeColor=inherit;overflow=hidden;fillColor=none;top=0;left=0;bottom=0;right=0;pointerEvents=1;fontSize=16;" vertex="1" parent="vp_f4w4xAxXRra5Dk8ZH-6">
          <mxGeometry x="280" width="140" height="40" as="geometry">
            <mxRectangle width="140" height="40" as="alternateBounds" />
          </mxGeometry>
        </mxCell>
        <mxCell id="vp_f4w4xAxXRra5Dk8ZH-10" value="" style="shape=tableRow;horizontal=0;startSize=0;swimlaneHead=0;swimlaneBody=0;strokeColor=inherit;top=0;left=0;bottom=0;right=0;collapsible=0;dropTarget=0;fillColor=none;points=[[0,0.5],[1,0.5]];portConstraint=eastwest;fontSize=16;" vertex="1" parent="vp_f4w4xAxXRra5Dk8ZH-1">
          <mxGeometry y="80" width="420" height="40" as="geometry" />
        </mxCell>
        <mxCell id="vp_f4w4xAxXRra5Dk8ZH-11" value="2" style="shape=partialRectangle;html=1;whiteSpace=wrap;connectable=0;strokeColor=inherit;overflow=hidden;fillColor=none;top=0;left=0;bottom=0;right=0;pointerEvents=1;fontSize=16;" vertex="1" parent="vp_f4w4xAxXRra5Dk8ZH-10">
          <mxGeometry width="140" height="40" as="geometry">
            <mxRectangle width="140" height="40" as="alternateBounds" />
          </mxGeometry>
        </mxCell>
        <mxCell id="vp_f4w4xAxXRra5Dk8ZH-12" value="101" style="shape=partialRectangle;html=1;whiteSpace=wrap;connectable=0;strokeColor=inherit;overflow=hidden;fillColor=none;top=0;left=0;bottom=0;right=0;pointerEvents=1;fontSize=16;" vertex="1" parent="vp_f4w4xAxXRra5Dk8ZH-10">
          <mxGeometry x="140" width="140" height="40" as="geometry">
            <mxRectangle width="140" height="40" as="alternateBounds" />
          </mxGeometry>
        </mxCell>
        <mxCell id="vp_f4w4xAxXRra5Dk8ZH-13" value="2" style="shape=partialRectangle;html=1;whiteSpace=wrap;connectable=0;strokeColor=inherit;overflow=hidden;fillColor=none;top=0;left=0;bottom=0;right=0;pointerEvents=1;fontSize=16;" vertex="1" parent="vp_f4w4xAxXRra5Dk8ZH-10">
          <mxGeometry x="280" width="140" height="40" as="geometry">
            <mxRectangle width="140" height="40" as="alternateBounds" />
          </mxGeometry>
        </mxCell>
        <mxCell id="vp_f4w4xAxXRra5Dk8ZH-15" style="shape=tableRow;horizontal=0;startSize=0;swimlaneHead=0;swimlaneBody=0;strokeColor=inherit;top=0;left=0;bottom=0;right=0;collapsible=0;dropTarget=0;fillColor=none;points=[[0,0.5],[1,0.5]];portConstraint=eastwest;fontSize=16;" vertex="1" parent="vp_f4w4xAxXRra5Dk8ZH-1">
          <mxGeometry y="120" width="420" height="40" as="geometry" />
        </mxCell>
        <mxCell id="vp_f4w4xAxXRra5Dk8ZH-16" value="3" style="shape=partialRectangle;html=1;whiteSpace=wrap;connectable=0;strokeColor=inherit;overflow=hidden;fillColor=none;top=0;left=0;bottom=0;right=0;pointerEvents=1;fontSize=16;" vertex="1" parent="vp_f4w4xAxXRra5Dk8ZH-15">
          <mxGeometry width="140" height="40" as="geometry">
            <mxRectangle width="140" height="40" as="alternateBounds" />
          </mxGeometry>
        </mxCell>
        <mxCell id="vp_f4w4xAxXRra5Dk8ZH-17" value="100" style="shape=partialRectangle;html=1;whiteSpace=wrap;connectable=0;strokeColor=inherit;overflow=hidden;fillColor=none;top=0;left=0;bottom=0;right=0;pointerEvents=1;fontSize=16;" vertex="1" parent="vp_f4w4xAxXRra5Dk8ZH-15">
          <mxGeometry x="140" width="140" height="40" as="geometry">
            <mxRectangle width="140" height="40" as="alternateBounds" />
          </mxGeometry>
        </mxCell>
        <mxCell id="vp_f4w4xAxXRra5Dk8ZH-18" value="1" style="shape=partialRectangle;html=1;whiteSpace=wrap;connectable=0;strokeColor=inherit;overflow=hidden;fillColor=none;top=0;left=0;bottom=0;right=0;pointerEvents=1;fontSize=16;" vertex="1" parent="vp_f4w4xAxXRra5Dk8ZH-15">
          <mxGeometry x="280" width="140" height="40" as="geometry">
            <mxRectangle width="140" height="40" as="alternateBounds" />
          </mxGeometry>
        </mxCell>
        <mxCell id="vp_f4w4xAxXRra5Dk8ZH-19" style="shape=tableRow;horizontal=0;startSize=0;swimlaneHead=0;swimlaneBody=0;strokeColor=inherit;top=0;left=0;bottom=0;right=0;collapsible=0;dropTarget=0;fillColor=none;points=[[0,0.5],[1,0.5]];portConstraint=eastwest;fontSize=16;" vertex="1" parent="vp_f4w4xAxXRra5Dk8ZH-1">
          <mxGeometry y="160" width="420" height="40" as="geometry" />
        </mxCell>
        <mxCell id="vp_f4w4xAxXRra5Dk8ZH-20" value="4" style="shape=partialRectangle;html=1;whiteSpace=wrap;connectable=0;strokeColor=inherit;overflow=hidden;fillColor=none;top=0;left=0;bottom=0;right=0;pointerEvents=1;fontSize=16;" vertex="1" parent="vp_f4w4xAxXRra5Dk8ZH-19">
          <mxGeometry width="140" height="40" as="geometry">
            <mxRectangle width="140" height="40" as="alternateBounds" />
          </mxGeometry>
        </mxCell>
        <mxCell id="vp_f4w4xAxXRra5Dk8ZH-21" value="102" style="shape=partialRectangle;html=1;whiteSpace=wrap;connectable=0;strokeColor=inherit;overflow=hidden;fillColor=none;top=0;left=0;bottom=0;right=0;pointerEvents=1;fontSize=16;" vertex="1" parent="vp_f4w4xAxXRra5Dk8ZH-19">
          <mxGeometry x="140" width="140" height="40" as="geometry">
            <mxRectangle width="140" height="40" as="alternateBounds" />
          </mxGeometry>
        </mxCell>
        <mxCell id="vp_f4w4xAxXRra5Dk8ZH-22" value="3" style="shape=partialRectangle;html=1;whiteSpace=wrap;connectable=0;strokeColor=inherit;overflow=hidden;fillColor=none;top=0;left=0;bottom=0;right=0;pointerEvents=1;fontSize=16;" vertex="1" parent="vp_f4w4xAxXRra5Dk8ZH-19">
          <mxGeometry x="280" width="140" height="40" as="geometry">
            <mxRectangle width="140" height="40" as="alternateBounds" />
          </mxGeometry>
        </mxCell>
        <mxCell id="vp_f4w4xAxXRra5Dk8ZH-14" value="Consultas" style="text;html=1;align=center;verticalAlign=middle;whiteSpace=wrap;rounded=0;fontStyle=1;fontSize=18;" vertex="1" parent="1">
          <mxGeometry x="290" y="630" width="240" height="30" as="geometry" />
        </mxCell>
      </root>
    </mxGraphModel>
  </diagram>
  <diagram id="W0dUPC9hnP3-bckCipU5" name="Ejercicio 4">
    <mxGraphModel dx="906" dy="553" grid="1" gridSize="10" guides="1" tooltips="1" connect="1" arrows="1" fold="1" page="1" pageScale="1" pageWidth="850" pageHeight="1100" math="0" shadow="0">
      <root>
        <mxCell id="0" />
        <mxCell id="1" parent="0" />
        <mxCell id="tCs6scKNmpNqQKPW3kAY-1" value="PROYECTO DE INVESTIGACION" style="text;html=1;align=center;verticalAlign=middle;whiteSpace=wrap;rounded=0;fontStyle=1;fontSize=17;" vertex="1" parent="1">
          <mxGeometry x="320.5" y="20" width="210" height="30" as="geometry" />
        </mxCell>
        <mxCell id="tCs6scKNmpNqQKPW3kAY-2" value="" style="shape=table;startSize=0;container=1;collapsible=0;childLayout=tableLayout;fontSize=16;" vertex="1" parent="1">
          <mxGeometry x="262" y="140" width="327" height="200" as="geometry" />
        </mxCell>
        <mxCell id="tCs6scKNmpNqQKPW3kAY-3" value="" style="shape=tableRow;horizontal=0;startSize=0;swimlaneHead=0;swimlaneBody=0;strokeColor=inherit;top=0;left=0;bottom=0;right=0;collapsible=0;dropTarget=0;fillColor=none;points=[[0,0.5],[1,0.5]];portConstraint=eastwest;fontSize=16;" vertex="1" parent="tCs6scKNmpNqQKPW3kAY-2">
          <mxGeometry width="327" height="40" as="geometry" />
        </mxCell>
        <mxCell id="tCs6scKNmpNqQKPW3kAY-4" value="ID_Proyecto" style="shape=partialRectangle;html=1;whiteSpace=wrap;connectable=0;strokeColor=#6c8ebf;overflow=hidden;fillColor=#dae8fc;top=0;left=0;bottom=0;right=0;pointerEvents=1;fontSize=16;gradientColor=#7ea6e0;" vertex="1" parent="tCs6scKNmpNqQKPW3kAY-3">
          <mxGeometry width="163" height="40" as="geometry">
            <mxRectangle width="163" height="40" as="alternateBounds" />
          </mxGeometry>
        </mxCell>
        <mxCell id="tCs6scKNmpNqQKPW3kAY-5" value="Nombre_Proyecto" style="shape=partialRectangle;html=1;whiteSpace=wrap;connectable=0;strokeColor=#6c8ebf;overflow=hidden;fillColor=#dae8fc;top=0;left=0;bottom=0;right=0;pointerEvents=1;fontSize=16;gradientColor=#7ea6e0;" vertex="1" parent="tCs6scKNmpNqQKPW3kAY-3">
          <mxGeometry x="163" width="164" height="40" as="geometry">
            <mxRectangle width="164" height="40" as="alternateBounds" />
          </mxGeometry>
        </mxCell>
        <mxCell id="tCs6scKNmpNqQKPW3kAY-7" value="" style="shape=tableRow;horizontal=0;startSize=0;swimlaneHead=0;swimlaneBody=0;strokeColor=inherit;top=0;left=0;bottom=0;right=0;collapsible=0;dropTarget=0;fillColor=none;points=[[0,0.5],[1,0.5]];portConstraint=eastwest;fontSize=16;" vertex="1" parent="tCs6scKNmpNqQKPW3kAY-2">
          <mxGeometry y="40" width="327" height="40" as="geometry" />
        </mxCell>
        <mxCell id="tCs6scKNmpNqQKPW3kAY-8" value="1" style="shape=partialRectangle;html=1;whiteSpace=wrap;connectable=0;strokeColor=inherit;overflow=hidden;fillColor=none;top=0;left=0;bottom=0;right=0;pointerEvents=1;fontSize=16;" vertex="1" parent="tCs6scKNmpNqQKPW3kAY-7">
          <mxGeometry width="163" height="40" as="geometry">
            <mxRectangle width="163" height="40" as="alternateBounds" />
          </mxGeometry>
        </mxCell>
        <mxCell id="tCs6scKNmpNqQKPW3kAY-9" value="IA_Avanzada" style="shape=partialRectangle;html=1;whiteSpace=wrap;connectable=0;strokeColor=inherit;overflow=hidden;fillColor=none;top=0;left=0;bottom=0;right=0;pointerEvents=1;fontSize=16;" vertex="1" parent="tCs6scKNmpNqQKPW3kAY-7">
          <mxGeometry x="163" width="164" height="40" as="geometry">
            <mxRectangle width="164" height="40" as="alternateBounds" />
          </mxGeometry>
        </mxCell>
        <mxCell id="tCs6scKNmpNqQKPW3kAY-11" value="" style="shape=tableRow;horizontal=0;startSize=0;swimlaneHead=0;swimlaneBody=0;strokeColor=inherit;top=0;left=0;bottom=0;right=0;collapsible=0;dropTarget=0;fillColor=none;points=[[0,0.5],[1,0.5]];portConstraint=eastwest;fontSize=16;" vertex="1" parent="tCs6scKNmpNqQKPW3kAY-2">
          <mxGeometry y="80" width="327" height="40" as="geometry" />
        </mxCell>
        <mxCell id="tCs6scKNmpNqQKPW3kAY-12" value="2" style="shape=partialRectangle;html=1;whiteSpace=wrap;connectable=0;strokeColor=inherit;overflow=hidden;fillColor=none;top=0;left=0;bottom=0;right=0;pointerEvents=1;fontSize=16;" vertex="1" parent="tCs6scKNmpNqQKPW3kAY-11">
          <mxGeometry width="163" height="40" as="geometry">
            <mxRectangle width="163" height="40" as="alternateBounds" />
          </mxGeometry>
        </mxCell>
        <mxCell id="tCs6scKNmpNqQKPW3kAY-13" value="Robotica" style="shape=partialRectangle;html=1;whiteSpace=wrap;connectable=0;strokeColor=inherit;overflow=hidden;fillColor=none;top=0;left=0;bottom=0;right=0;pointerEvents=1;fontSize=16;" vertex="1" parent="tCs6scKNmpNqQKPW3kAY-11">
          <mxGeometry x="163" width="164" height="40" as="geometry">
            <mxRectangle width="164" height="40" as="alternateBounds" />
          </mxGeometry>
        </mxCell>
        <mxCell id="tCs6scKNmpNqQKPW3kAY-15" style="shape=tableRow;horizontal=0;startSize=0;swimlaneHead=0;swimlaneBody=0;strokeColor=inherit;top=0;left=0;bottom=0;right=0;collapsible=0;dropTarget=0;fillColor=none;points=[[0,0.5],[1,0.5]];portConstraint=eastwest;fontSize=16;" vertex="1" parent="tCs6scKNmpNqQKPW3kAY-2">
          <mxGeometry y="120" width="327" height="40" as="geometry" />
        </mxCell>
        <mxCell id="tCs6scKNmpNqQKPW3kAY-16" value="3" style="shape=partialRectangle;html=1;whiteSpace=wrap;connectable=0;strokeColor=inherit;overflow=hidden;fillColor=none;top=0;left=0;bottom=0;right=0;pointerEvents=1;fontSize=16;" vertex="1" parent="tCs6scKNmpNqQKPW3kAY-15">
          <mxGeometry width="163" height="40" as="geometry">
            <mxRectangle width="163" height="40" as="alternateBounds" />
          </mxGeometry>
        </mxCell>
        <mxCell id="tCs6scKNmpNqQKPW3kAY-17" value="IA_Aplicada" style="shape=partialRectangle;html=1;whiteSpace=wrap;connectable=0;strokeColor=inherit;overflow=hidden;fillColor=none;top=0;left=0;bottom=0;right=0;pointerEvents=1;fontSize=16;" vertex="1" parent="tCs6scKNmpNqQKPW3kAY-15">
          <mxGeometry x="163" width="164" height="40" as="geometry">
            <mxRectangle width="164" height="40" as="alternateBounds" />
          </mxGeometry>
        </mxCell>
        <mxCell id="tCs6scKNmpNqQKPW3kAY-18" style="shape=tableRow;horizontal=0;startSize=0;swimlaneHead=0;swimlaneBody=0;strokeColor=inherit;top=0;left=0;bottom=0;right=0;collapsible=0;dropTarget=0;fillColor=none;points=[[0,0.5],[1,0.5]];portConstraint=eastwest;fontSize=16;" vertex="1" parent="tCs6scKNmpNqQKPW3kAY-2">
          <mxGeometry y="160" width="327" height="40" as="geometry" />
        </mxCell>
        <mxCell id="tCs6scKNmpNqQKPW3kAY-19" value="4" style="shape=partialRectangle;html=1;whiteSpace=wrap;connectable=0;strokeColor=inherit;overflow=hidden;fillColor=none;top=0;left=0;bottom=0;right=0;pointerEvents=1;fontSize=16;" vertex="1" parent="tCs6scKNmpNqQKPW3kAY-18">
          <mxGeometry width="163" height="40" as="geometry">
            <mxRectangle width="163" height="40" as="alternateBounds" />
          </mxGeometry>
        </mxCell>
        <mxCell id="tCs6scKNmpNqQKPW3kAY-20" value="Redes_de_computo" style="shape=partialRectangle;html=1;whiteSpace=wrap;connectable=0;strokeColor=inherit;overflow=hidden;fillColor=none;top=0;left=0;bottom=0;right=0;pointerEvents=1;fontSize=16;" vertex="1" parent="tCs6scKNmpNqQKPW3kAY-18">
          <mxGeometry x="163" width="164" height="40" as="geometry">
            <mxRectangle width="164" height="40" as="alternateBounds" />
          </mxGeometry>
        </mxCell>
        <mxCell id="tCs6scKNmpNqQKPW3kAY-21" value="" style="shape=table;startSize=0;container=1;collapsible=0;childLayout=tableLayout;fontSize=16;" vertex="1" parent="1">
          <mxGeometry x="272" y="440" width="307" height="160" as="geometry" />
        </mxCell>
        <mxCell id="tCs6scKNmpNqQKPW3kAY-22" value="" style="shape=tableRow;horizontal=0;startSize=0;swimlaneHead=0;swimlaneBody=0;strokeColor=inherit;top=0;left=0;bottom=0;right=0;collapsible=0;dropTarget=0;fillColor=none;points=[[0,0.5],[1,0.5]];portConstraint=eastwest;fontSize=16;" vertex="1" parent="tCs6scKNmpNqQKPW3kAY-21">
          <mxGeometry width="307" height="40" as="geometry" />
        </mxCell>
        <mxCell id="tCs6scKNmpNqQKPW3kAY-23" value="ID_Profesor" style="shape=partialRectangle;html=1;whiteSpace=wrap;connectable=0;strokeColor=#6c8ebf;overflow=hidden;fillColor=#dae8fc;top=0;left=0;bottom=0;right=0;pointerEvents=1;fontSize=16;gradientColor=#7ea6e0;" vertex="1" parent="tCs6scKNmpNqQKPW3kAY-22">
          <mxGeometry width="153" height="40" as="geometry">
            <mxRectangle width="153" height="40" as="alternateBounds" />
          </mxGeometry>
        </mxCell>
        <mxCell id="tCs6scKNmpNqQKPW3kAY-24" value="Nombre_Porfesor" style="shape=partialRectangle;html=1;whiteSpace=wrap;connectable=0;strokeColor=#6c8ebf;overflow=hidden;fillColor=#dae8fc;top=0;left=0;bottom=0;right=0;pointerEvents=1;fontSize=16;gradientColor=#7ea6e0;" vertex="1" parent="tCs6scKNmpNqQKPW3kAY-22">
          <mxGeometry x="153" width="154" height="40" as="geometry">
            <mxRectangle width="154" height="40" as="alternateBounds" />
          </mxGeometry>
        </mxCell>
        <mxCell id="tCs6scKNmpNqQKPW3kAY-26" value="" style="shape=tableRow;horizontal=0;startSize=0;swimlaneHead=0;swimlaneBody=0;strokeColor=inherit;top=0;left=0;bottom=0;right=0;collapsible=0;dropTarget=0;fillColor=none;points=[[0,0.5],[1,0.5]];portConstraint=eastwest;fontSize=16;" vertex="1" parent="tCs6scKNmpNqQKPW3kAY-21">
          <mxGeometry y="40" width="307" height="40" as="geometry" />
        </mxCell>
        <mxCell id="tCs6scKNmpNqQKPW3kAY-27" value="101" style="shape=partialRectangle;html=1;whiteSpace=wrap;connectable=0;strokeColor=inherit;overflow=hidden;fillColor=none;top=0;left=0;bottom=0;right=0;pointerEvents=1;fontSize=16;" vertex="1" parent="tCs6scKNmpNqQKPW3kAY-26">
          <mxGeometry width="153" height="40" as="geometry">
            <mxRectangle width="153" height="40" as="alternateBounds" />
          </mxGeometry>
        </mxCell>
        <mxCell id="tCs6scKNmpNqQKPW3kAY-28" value="Dr. Smith" style="shape=partialRectangle;html=1;whiteSpace=wrap;connectable=0;strokeColor=inherit;overflow=hidden;fillColor=none;top=0;left=0;bottom=0;right=0;pointerEvents=1;fontSize=16;" vertex="1" parent="tCs6scKNmpNqQKPW3kAY-26">
          <mxGeometry x="153" width="154" height="40" as="geometry">
            <mxRectangle width="154" height="40" as="alternateBounds" />
          </mxGeometry>
        </mxCell>
        <mxCell id="tCs6scKNmpNqQKPW3kAY-30" value="" style="shape=tableRow;horizontal=0;startSize=0;swimlaneHead=0;swimlaneBody=0;strokeColor=inherit;top=0;left=0;bottom=0;right=0;collapsible=0;dropTarget=0;fillColor=none;points=[[0,0.5],[1,0.5]];portConstraint=eastwest;fontSize=16;" vertex="1" parent="tCs6scKNmpNqQKPW3kAY-21">
          <mxGeometry y="80" width="307" height="40" as="geometry" />
        </mxCell>
        <mxCell id="tCs6scKNmpNqQKPW3kAY-31" value="102" style="shape=partialRectangle;html=1;whiteSpace=wrap;connectable=0;strokeColor=inherit;overflow=hidden;fillColor=none;top=0;left=0;bottom=0;right=0;pointerEvents=1;fontSize=16;" vertex="1" parent="tCs6scKNmpNqQKPW3kAY-30">
          <mxGeometry width="153" height="40" as="geometry">
            <mxRectangle width="153" height="40" as="alternateBounds" />
          </mxGeometry>
        </mxCell>
        <mxCell id="tCs6scKNmpNqQKPW3kAY-32" value="Dr. Johnson" style="shape=partialRectangle;html=1;whiteSpace=wrap;connectable=0;strokeColor=inherit;overflow=hidden;fillColor=none;top=0;left=0;bottom=0;right=0;pointerEvents=1;fontSize=16;" vertex="1" parent="tCs6scKNmpNqQKPW3kAY-30">
          <mxGeometry x="153" width="154" height="40" as="geometry">
            <mxRectangle width="154" height="40" as="alternateBounds" />
          </mxGeometry>
        </mxCell>
        <mxCell id="tCs6scKNmpNqQKPW3kAY-35" style="shape=tableRow;horizontal=0;startSize=0;swimlaneHead=0;swimlaneBody=0;strokeColor=inherit;top=0;left=0;bottom=0;right=0;collapsible=0;dropTarget=0;fillColor=none;points=[[0,0.5],[1,0.5]];portConstraint=eastwest;fontSize=16;" vertex="1" parent="tCs6scKNmpNqQKPW3kAY-21">
          <mxGeometry y="120" width="307" height="40" as="geometry" />
        </mxCell>
        <mxCell id="tCs6scKNmpNqQKPW3kAY-36" value="103" style="shape=partialRectangle;html=1;whiteSpace=wrap;connectable=0;strokeColor=inherit;overflow=hidden;fillColor=none;top=0;left=0;bottom=0;right=0;pointerEvents=1;fontSize=16;" vertex="1" parent="tCs6scKNmpNqQKPW3kAY-35">
          <mxGeometry width="153" height="40" as="geometry">
            <mxRectangle width="153" height="40" as="alternateBounds" />
          </mxGeometry>
        </mxCell>
        <mxCell id="tCs6scKNmpNqQKPW3kAY-37" value="Dr. Lee" style="shape=partialRectangle;html=1;whiteSpace=wrap;connectable=0;strokeColor=inherit;overflow=hidden;fillColor=none;top=0;left=0;bottom=0;right=0;pointerEvents=1;fontSize=16;" vertex="1" parent="tCs6scKNmpNqQKPW3kAY-35">
          <mxGeometry x="153" width="154" height="40" as="geometry">
            <mxRectangle width="154" height="40" as="alternateBounds" />
          </mxGeometry>
        </mxCell>
        <mxCell id="tCs6scKNmpNqQKPW3kAY-34" value="Proyectos:" style="text;html=1;align=center;verticalAlign=middle;whiteSpace=wrap;rounded=0;fontStyle=1" vertex="1" parent="1">
          <mxGeometry x="395" y="110" width="60" height="30" as="geometry" />
        </mxCell>
        <mxCell id="tCs6scKNmpNqQKPW3kAY-41" value="Profesores" style="text;html=1;align=center;verticalAlign=middle;whiteSpace=wrap;rounded=0;fontStyle=1" vertex="1" parent="1">
          <mxGeometry x="400" y="410" width="60" height="30" as="geometry" />
        </mxCell>
        <mxCell id="tCs6scKNmpNqQKPW3kAY-42" value="Proyectos_Profesores" style="text;html=1;align=center;verticalAlign=middle;whiteSpace=wrap;rounded=0;fontStyle=1" vertex="1" parent="1">
          <mxGeometry x="360" y="640" width="130" height="30" as="geometry" />
        </mxCell>
        <mxCell id="tCs6scKNmpNqQKPW3kAY-43" value="" style="shape=table;startSize=0;container=1;collapsible=0;childLayout=tableLayout;fontSize=16;" vertex="1" parent="1">
          <mxGeometry x="248" y="680" width="354" height="200" as="geometry" />
        </mxCell>
        <mxCell id="tCs6scKNmpNqQKPW3kAY-44" value="" style="shape=tableRow;horizontal=0;startSize=0;swimlaneHead=0;swimlaneBody=0;strokeColor=inherit;top=0;left=0;bottom=0;right=0;collapsible=0;dropTarget=0;fillColor=none;points=[[0,0.5],[1,0.5]];portConstraint=eastwest;fontSize=16;" vertex="1" parent="tCs6scKNmpNqQKPW3kAY-43">
          <mxGeometry width="354" height="40" as="geometry" />
        </mxCell>
        <mxCell id="tCs6scKNmpNqQKPW3kAY-45" value="ID_Proyecto" style="shape=partialRectangle;html=1;whiteSpace=wrap;connectable=0;strokeColor=#6c8ebf;overflow=hidden;fillColor=#dae8fc;top=0;left=0;bottom=0;right=0;pointerEvents=1;fontSize=16;gradientColor=#7ea6e0;" vertex="1" parent="tCs6scKNmpNqQKPW3kAY-44">
          <mxGeometry width="176" height="40" as="geometry">
            <mxRectangle width="176" height="40" as="alternateBounds" />
          </mxGeometry>
        </mxCell>
        <mxCell id="tCs6scKNmpNqQKPW3kAY-46" value="ID_Profesor" style="shape=partialRectangle;html=1;whiteSpace=wrap;connectable=0;strokeColor=#6c8ebf;overflow=hidden;fillColor=#dae8fc;top=0;left=0;bottom=0;right=0;pointerEvents=1;fontSize=16;gradientColor=#7ea6e0;" vertex="1" parent="tCs6scKNmpNqQKPW3kAY-44">
          <mxGeometry x="176" width="178" height="40" as="geometry">
            <mxRectangle width="178" height="40" as="alternateBounds" />
          </mxGeometry>
        </mxCell>
        <mxCell id="tCs6scKNmpNqQKPW3kAY-48" value="" style="shape=tableRow;horizontal=0;startSize=0;swimlaneHead=0;swimlaneBody=0;strokeColor=inherit;top=0;left=0;bottom=0;right=0;collapsible=0;dropTarget=0;fillColor=none;points=[[0,0.5],[1,0.5]];portConstraint=eastwest;fontSize=16;" vertex="1" parent="tCs6scKNmpNqQKPW3kAY-43">
          <mxGeometry y="40" width="354" height="40" as="geometry" />
        </mxCell>
        <mxCell id="tCs6scKNmpNqQKPW3kAY-49" value="1" style="shape=partialRectangle;html=1;whiteSpace=wrap;connectable=0;strokeColor=inherit;overflow=hidden;fillColor=none;top=0;left=0;bottom=0;right=0;pointerEvents=1;fontSize=16;" vertex="1" parent="tCs6scKNmpNqQKPW3kAY-48">
          <mxGeometry width="176" height="40" as="geometry">
            <mxRectangle width="176" height="40" as="alternateBounds" />
          </mxGeometry>
        </mxCell>
        <mxCell id="tCs6scKNmpNqQKPW3kAY-50" value="101" style="shape=partialRectangle;html=1;whiteSpace=wrap;connectable=0;strokeColor=inherit;overflow=hidden;fillColor=none;top=0;left=0;bottom=0;right=0;pointerEvents=1;fontSize=16;" vertex="1" parent="tCs6scKNmpNqQKPW3kAY-48">
          <mxGeometry x="176" width="178" height="40" as="geometry">
            <mxRectangle width="178" height="40" as="alternateBounds" />
          </mxGeometry>
        </mxCell>
        <mxCell id="tCs6scKNmpNqQKPW3kAY-52" value="" style="shape=tableRow;horizontal=0;startSize=0;swimlaneHead=0;swimlaneBody=0;strokeColor=inherit;top=0;left=0;bottom=0;right=0;collapsible=0;dropTarget=0;fillColor=none;points=[[0,0.5],[1,0.5]];portConstraint=eastwest;fontSize=16;" vertex="1" parent="tCs6scKNmpNqQKPW3kAY-43">
          <mxGeometry y="80" width="354" height="40" as="geometry" />
        </mxCell>
        <mxCell id="tCs6scKNmpNqQKPW3kAY-53" value="2" style="shape=partialRectangle;html=1;whiteSpace=wrap;connectable=0;strokeColor=inherit;overflow=hidden;fillColor=none;top=0;left=0;bottom=0;right=0;pointerEvents=1;fontSize=16;" vertex="1" parent="tCs6scKNmpNqQKPW3kAY-52">
          <mxGeometry width="176" height="40" as="geometry">
            <mxRectangle width="176" height="40" as="alternateBounds" />
          </mxGeometry>
        </mxCell>
        <mxCell id="tCs6scKNmpNqQKPW3kAY-54" value="102" style="shape=partialRectangle;html=1;whiteSpace=wrap;connectable=0;strokeColor=inherit;overflow=hidden;fillColor=none;top=0;left=0;bottom=0;right=0;pointerEvents=1;fontSize=16;" vertex="1" parent="tCs6scKNmpNqQKPW3kAY-52">
          <mxGeometry x="176" width="178" height="40" as="geometry">
            <mxRectangle width="178" height="40" as="alternateBounds" />
          </mxGeometry>
        </mxCell>
        <mxCell id="tCs6scKNmpNqQKPW3kAY-56" style="shape=tableRow;horizontal=0;startSize=0;swimlaneHead=0;swimlaneBody=0;strokeColor=inherit;top=0;left=0;bottom=0;right=0;collapsible=0;dropTarget=0;fillColor=none;points=[[0,0.5],[1,0.5]];portConstraint=eastwest;fontSize=16;" vertex="1" parent="tCs6scKNmpNqQKPW3kAY-43">
          <mxGeometry y="120" width="354" height="40" as="geometry" />
        </mxCell>
        <mxCell id="tCs6scKNmpNqQKPW3kAY-57" value="3" style="shape=partialRectangle;html=1;whiteSpace=wrap;connectable=0;strokeColor=inherit;overflow=hidden;fillColor=none;top=0;left=0;bottom=0;right=0;pointerEvents=1;fontSize=16;" vertex="1" parent="tCs6scKNmpNqQKPW3kAY-56">
          <mxGeometry width="176" height="40" as="geometry">
            <mxRectangle width="176" height="40" as="alternateBounds" />
          </mxGeometry>
        </mxCell>
        <mxCell id="tCs6scKNmpNqQKPW3kAY-58" value="101" style="shape=partialRectangle;html=1;whiteSpace=wrap;connectable=0;strokeColor=inherit;overflow=hidden;fillColor=none;top=0;left=0;bottom=0;right=0;pointerEvents=1;fontSize=16;" vertex="1" parent="tCs6scKNmpNqQKPW3kAY-56">
          <mxGeometry x="176" width="178" height="40" as="geometry">
            <mxRectangle width="178" height="40" as="alternateBounds" />
          </mxGeometry>
        </mxCell>
        <mxCell id="tCs6scKNmpNqQKPW3kAY-59" style="shape=tableRow;horizontal=0;startSize=0;swimlaneHead=0;swimlaneBody=0;strokeColor=inherit;top=0;left=0;bottom=0;right=0;collapsible=0;dropTarget=0;fillColor=none;points=[[0,0.5],[1,0.5]];portConstraint=eastwest;fontSize=16;" vertex="1" parent="tCs6scKNmpNqQKPW3kAY-43">
          <mxGeometry y="160" width="354" height="40" as="geometry" />
        </mxCell>
        <mxCell id="tCs6scKNmpNqQKPW3kAY-60" value="4" style="shape=partialRectangle;html=1;whiteSpace=wrap;connectable=0;strokeColor=inherit;overflow=hidden;fillColor=none;top=0;left=0;bottom=0;right=0;pointerEvents=1;fontSize=16;" vertex="1" parent="tCs6scKNmpNqQKPW3kAY-59">
          <mxGeometry width="176" height="40" as="geometry">
            <mxRectangle width="176" height="40" as="alternateBounds" />
          </mxGeometry>
        </mxCell>
        <mxCell id="tCs6scKNmpNqQKPW3kAY-61" value="103" style="shape=partialRectangle;html=1;whiteSpace=wrap;connectable=0;strokeColor=inherit;overflow=hidden;fillColor=none;top=0;left=0;bottom=0;right=0;pointerEvents=1;fontSize=16;" vertex="1" parent="tCs6scKNmpNqQKPW3kAY-59">
          <mxGeometry x="176" width="178" height="40" as="geometry">
            <mxRectangle width="178" height="40" as="alternateBounds" />
          </mxGeometry>
        </mxCell>
        <mxCell id="mzyYvMqnY2n1uKKV2l16-1" value="BCNF" style="text;html=1;align=center;verticalAlign=middle;whiteSpace=wrap;rounded=0;fontStyle=1" vertex="1" parent="1">
          <mxGeometry x="262" y="80" width="60" height="30" as="geometry" />
        </mxCell>
      </root>
    </mxGraphModel>
  </diagram>
  <diagram id="_Mcb4tbBqVs9DfdyLneI" name="Ejercicio 5">
    <mxGraphModel dx="906" dy="553" grid="1" gridSize="10" guides="1" tooltips="1" connect="1" arrows="1" fold="1" page="1" pageScale="1" pageWidth="850" pageHeight="1100" math="0" shadow="0">
      <root>
        <mxCell id="0" />
        <mxCell id="1" parent="0" />
        <mxCell id="HAfBfzVJj38vXpHRmCdk-1" value="BASE DE DATOS EMPLEADOS Y HABILIDADES" style="text;html=1;align=center;verticalAlign=middle;whiteSpace=wrap;rounded=0;fontStyle=1;fontSize=16;" vertex="1" parent="1">
          <mxGeometry x="270" y="40" width="270" height="30" as="geometry" />
        </mxCell>
        <mxCell id="HAfBfzVJj38vXpHRmCdk-2" value="" style="shape=table;startSize=0;container=1;collapsible=0;childLayout=tableLayout;fontSize=16;" vertex="1" parent="1">
          <mxGeometry x="250" y="160" width="280" height="120" as="geometry" />
        </mxCell>
        <mxCell id="HAfBfzVJj38vXpHRmCdk-3" value="" style="shape=tableRow;horizontal=0;startSize=0;swimlaneHead=0;swimlaneBody=0;strokeColor=inherit;top=0;left=0;bottom=0;right=0;collapsible=0;dropTarget=0;fillColor=none;points=[[0,0.5],[1,0.5]];portConstraint=eastwest;fontSize=16;" vertex="1" parent="HAfBfzVJj38vXpHRmCdk-2">
          <mxGeometry width="280" height="40" as="geometry" />
        </mxCell>
        <mxCell id="HAfBfzVJj38vXpHRmCdk-4" value="ID_Empleado" style="shape=partialRectangle;html=1;whiteSpace=wrap;connectable=0;strokeColor=#6c8ebf;overflow=hidden;fillColor=#dae8fc;top=0;left=0;bottom=0;right=0;pointerEvents=1;fontSize=16;gradientColor=#7ea6e0;" vertex="1" parent="HAfBfzVJj38vXpHRmCdk-3">
          <mxGeometry width="140" height="40" as="geometry">
            <mxRectangle width="140" height="40" as="alternateBounds" />
          </mxGeometry>
        </mxCell>
        <mxCell id="HAfBfzVJj38vXpHRmCdk-5" value="NombreEmpleado" style="shape=partialRectangle;html=1;whiteSpace=wrap;connectable=0;strokeColor=#6c8ebf;overflow=hidden;fillColor=#dae8fc;top=0;left=0;bottom=0;right=0;pointerEvents=1;fontSize=16;gradientColor=#7ea6e0;" vertex="1" parent="HAfBfzVJj38vXpHRmCdk-3">
          <mxGeometry x="140" width="140" height="40" as="geometry">
            <mxRectangle width="140" height="40" as="alternateBounds" />
          </mxGeometry>
        </mxCell>
        <mxCell id="HAfBfzVJj38vXpHRmCdk-7" value="" style="shape=tableRow;horizontal=0;startSize=0;swimlaneHead=0;swimlaneBody=0;strokeColor=inherit;top=0;left=0;bottom=0;right=0;collapsible=0;dropTarget=0;fillColor=none;points=[[0,0.5],[1,0.5]];portConstraint=eastwest;fontSize=16;" vertex="1" parent="HAfBfzVJj38vXpHRmCdk-2">
          <mxGeometry y="40" width="280" height="40" as="geometry" />
        </mxCell>
        <mxCell id="HAfBfzVJj38vXpHRmCdk-8" value="1" style="shape=partialRectangle;html=1;whiteSpace=wrap;connectable=0;strokeColor=inherit;overflow=hidden;fillColor=none;top=0;left=0;bottom=0;right=0;pointerEvents=1;fontSize=16;" vertex="1" parent="HAfBfzVJj38vXpHRmCdk-7">
          <mxGeometry width="140" height="40" as="geometry">
            <mxRectangle width="140" height="40" as="alternateBounds" />
          </mxGeometry>
        </mxCell>
        <mxCell id="HAfBfzVJj38vXpHRmCdk-9" value="Juan Perez" style="shape=partialRectangle;html=1;whiteSpace=wrap;connectable=0;strokeColor=inherit;overflow=hidden;fillColor=none;top=0;left=0;bottom=0;right=0;pointerEvents=1;fontSize=16;" vertex="1" parent="HAfBfzVJj38vXpHRmCdk-7">
          <mxGeometry x="140" width="140" height="40" as="geometry">
            <mxRectangle width="140" height="40" as="alternateBounds" />
          </mxGeometry>
        </mxCell>
        <mxCell id="HAfBfzVJj38vXpHRmCdk-11" value="" style="shape=tableRow;horizontal=0;startSize=0;swimlaneHead=0;swimlaneBody=0;strokeColor=inherit;top=0;left=0;bottom=0;right=0;collapsible=0;dropTarget=0;fillColor=none;points=[[0,0.5],[1,0.5]];portConstraint=eastwest;fontSize=16;" vertex="1" parent="HAfBfzVJj38vXpHRmCdk-2">
          <mxGeometry y="80" width="280" height="40" as="geometry" />
        </mxCell>
        <mxCell id="HAfBfzVJj38vXpHRmCdk-12" value="2" style="shape=partialRectangle;html=1;whiteSpace=wrap;connectable=0;strokeColor=inherit;overflow=hidden;fillColor=none;top=0;left=0;bottom=0;right=0;pointerEvents=1;fontSize=16;" vertex="1" parent="HAfBfzVJj38vXpHRmCdk-11">
          <mxGeometry width="140" height="40" as="geometry">
            <mxRectangle width="140" height="40" as="alternateBounds" />
          </mxGeometry>
        </mxCell>
        <mxCell id="HAfBfzVJj38vXpHRmCdk-13" value="Ana Gomez" style="shape=partialRectangle;html=1;whiteSpace=wrap;connectable=0;strokeColor=inherit;overflow=hidden;fillColor=none;top=0;left=0;bottom=0;right=0;pointerEvents=1;fontSize=16;" vertex="1" parent="HAfBfzVJj38vXpHRmCdk-11">
          <mxGeometry x="140" width="140" height="40" as="geometry">
            <mxRectangle width="140" height="40" as="alternateBounds" />
          </mxGeometry>
        </mxCell>
        <mxCell id="CqUnSfFIssLo8TezVIZo-1" value="Empleado:" style="text;html=1;align=center;verticalAlign=middle;whiteSpace=wrap;rounded=0;" vertex="1" parent="1">
          <mxGeometry x="260" y="130" width="60" height="30" as="geometry" />
        </mxCell>
        <mxCell id="CqUnSfFIssLo8TezVIZo-2" value="" style="shape=table;startSize=0;container=1;collapsible=0;childLayout=tableLayout;fontSize=16;" vertex="1" parent="1">
          <mxGeometry x="232.5" y="360" width="345" height="160" as="geometry" />
        </mxCell>
        <mxCell id="CqUnSfFIssLo8TezVIZo-3" value="" style="shape=tableRow;horizontal=0;startSize=0;swimlaneHead=0;swimlaneBody=0;strokeColor=inherit;top=0;left=0;bottom=0;right=0;collapsible=0;dropTarget=0;fillColor=none;points=[[0,0.5],[1,0.5]];portConstraint=eastwest;fontSize=16;" vertex="1" parent="CqUnSfFIssLo8TezVIZo-2">
          <mxGeometry width="345" height="40" as="geometry" />
        </mxCell>
        <mxCell id="CqUnSfFIssLo8TezVIZo-4" value="IDHabilidad" style="shape=partialRectangle;html=1;whiteSpace=wrap;connectable=0;strokeColor=#6c8ebf;overflow=hidden;fillColor=#dae8fc;top=0;left=0;bottom=0;right=0;pointerEvents=1;fontSize=16;gradientColor=#7ea6e0;" vertex="1" parent="CqUnSfFIssLo8TezVIZo-3">
          <mxGeometry width="173" height="40" as="geometry">
            <mxRectangle width="173" height="40" as="alternateBounds" />
          </mxGeometry>
        </mxCell>
        <mxCell id="CqUnSfFIssLo8TezVIZo-5" value="Habilidad" style="shape=partialRectangle;html=1;whiteSpace=wrap;connectable=0;strokeColor=#6c8ebf;overflow=hidden;fillColor=#dae8fc;top=0;left=0;bottom=0;right=0;pointerEvents=1;fontSize=16;gradientColor=#7ea6e0;" vertex="1" parent="CqUnSfFIssLo8TezVIZo-3">
          <mxGeometry x="173" width="172" height="40" as="geometry">
            <mxRectangle width="172" height="40" as="alternateBounds" />
          </mxGeometry>
        </mxCell>
        <mxCell id="CqUnSfFIssLo8TezVIZo-7" value="" style="shape=tableRow;horizontal=0;startSize=0;swimlaneHead=0;swimlaneBody=0;strokeColor=inherit;top=0;left=0;bottom=0;right=0;collapsible=0;dropTarget=0;fillColor=none;points=[[0,0.5],[1,0.5]];portConstraint=eastwest;fontSize=16;" vertex="1" parent="CqUnSfFIssLo8TezVIZo-2">
          <mxGeometry y="40" width="345" height="40" as="geometry" />
        </mxCell>
        <mxCell id="CqUnSfFIssLo8TezVIZo-8" value="1" style="shape=partialRectangle;html=1;whiteSpace=wrap;connectable=0;strokeColor=inherit;overflow=hidden;fillColor=none;top=0;left=0;bottom=0;right=0;pointerEvents=1;fontSize=16;" vertex="1" parent="CqUnSfFIssLo8TezVIZo-7">
          <mxGeometry width="173" height="40" as="geometry">
            <mxRectangle width="173" height="40" as="alternateBounds" />
          </mxGeometry>
        </mxCell>
        <mxCell id="CqUnSfFIssLo8TezVIZo-9" value="Programacion" style="shape=partialRectangle;html=1;whiteSpace=wrap;connectable=0;strokeColor=inherit;overflow=hidden;fillColor=none;top=0;left=0;bottom=0;right=0;pointerEvents=1;fontSize=16;" vertex="1" parent="CqUnSfFIssLo8TezVIZo-7">
          <mxGeometry x="173" width="172" height="40" as="geometry">
            <mxRectangle width="172" height="40" as="alternateBounds" />
          </mxGeometry>
        </mxCell>
        <mxCell id="CqUnSfFIssLo8TezVIZo-11" value="" style="shape=tableRow;horizontal=0;startSize=0;swimlaneHead=0;swimlaneBody=0;strokeColor=inherit;top=0;left=0;bottom=0;right=0;collapsible=0;dropTarget=0;fillColor=none;points=[[0,0.5],[1,0.5]];portConstraint=eastwest;fontSize=16;" vertex="1" parent="CqUnSfFIssLo8TezVIZo-2">
          <mxGeometry y="80" width="345" height="40" as="geometry" />
        </mxCell>
        <mxCell id="CqUnSfFIssLo8TezVIZo-12" value="2" style="shape=partialRectangle;html=1;whiteSpace=wrap;connectable=0;strokeColor=inherit;overflow=hidden;fillColor=none;top=0;left=0;bottom=0;right=0;pointerEvents=1;fontSize=16;" vertex="1" parent="CqUnSfFIssLo8TezVIZo-11">
          <mxGeometry width="173" height="40" as="geometry">
            <mxRectangle width="173" height="40" as="alternateBounds" />
          </mxGeometry>
        </mxCell>
        <mxCell id="CqUnSfFIssLo8TezVIZo-13" value="DiseÃ±o de base de datos" style="shape=partialRectangle;html=1;whiteSpace=wrap;connectable=0;strokeColor=inherit;overflow=hidden;fillColor=none;top=0;left=0;bottom=0;right=0;pointerEvents=1;fontSize=16;" vertex="1" parent="CqUnSfFIssLo8TezVIZo-11">
          <mxGeometry x="173" width="172" height="40" as="geometry">
            <mxRectangle width="172" height="40" as="alternateBounds" />
          </mxGeometry>
        </mxCell>
        <mxCell id="CqUnSfFIssLo8TezVIZo-16" style="shape=tableRow;horizontal=0;startSize=0;swimlaneHead=0;swimlaneBody=0;strokeColor=inherit;top=0;left=0;bottom=0;right=0;collapsible=0;dropTarget=0;fillColor=none;points=[[0,0.5],[1,0.5]];portConstraint=eastwest;fontSize=16;" vertex="1" parent="CqUnSfFIssLo8TezVIZo-2">
          <mxGeometry y="120" width="345" height="40" as="geometry" />
        </mxCell>
        <mxCell id="CqUnSfFIssLo8TezVIZo-17" value="3" style="shape=partialRectangle;html=1;whiteSpace=wrap;connectable=0;strokeColor=inherit;overflow=hidden;fillColor=none;top=0;left=0;bottom=0;right=0;pointerEvents=1;fontSize=16;" vertex="1" parent="CqUnSfFIssLo8TezVIZo-16">
          <mxGeometry width="173" height="40" as="geometry">
            <mxRectangle width="173" height="40" as="alternateBounds" />
          </mxGeometry>
        </mxCell>
        <mxCell id="CqUnSfFIssLo8TezVIZo-18" value="Analisis de datos" style="shape=partialRectangle;html=1;whiteSpace=wrap;connectable=0;strokeColor=inherit;overflow=hidden;fillColor=none;top=0;left=0;bottom=0;right=0;pointerEvents=1;fontSize=16;" vertex="1" parent="CqUnSfFIssLo8TezVIZo-16">
          <mxGeometry x="173" width="172" height="40" as="geometry">
            <mxRectangle width="172" height="40" as="alternateBounds" />
          </mxGeometry>
        </mxCell>
        <mxCell id="CqUnSfFIssLo8TezVIZo-15" value="Habilidad:" style="text;html=1;align=center;verticalAlign=middle;whiteSpace=wrap;rounded=0;" vertex="1" parent="1">
          <mxGeometry x="250" y="330" width="60" height="30" as="geometry" />
        </mxCell>
        <mxCell id="CqUnSfFIssLo8TezVIZo-19" value="" style="shape=table;startSize=0;container=1;collapsible=0;childLayout=tableLayout;fontSize=16;" vertex="1" parent="1">
          <mxGeometry x="240" y="600" width="330" height="200" as="geometry" />
        </mxCell>
        <mxCell id="CqUnSfFIssLo8TezVIZo-20" value="" style="shape=tableRow;horizontal=0;startSize=0;swimlaneHead=0;swimlaneBody=0;strokeColor=inherit;top=0;left=0;bottom=0;right=0;collapsible=0;dropTarget=0;fillColor=none;points=[[0,0.5],[1,0.5]];portConstraint=eastwest;fontSize=16;" vertex="1" parent="CqUnSfFIssLo8TezVIZo-19">
          <mxGeometry width="330" height="40" as="geometry" />
        </mxCell>
        <mxCell id="CqUnSfFIssLo8TezVIZo-21" value="IDEmpleado" style="shape=partialRectangle;html=1;whiteSpace=wrap;connectable=0;strokeColor=#6c8ebf;overflow=hidden;fillColor=#dae8fc;top=0;left=0;bottom=0;right=0;pointerEvents=1;fontSize=16;gradientColor=#7ea6e0;" vertex="1" parent="CqUnSfFIssLo8TezVIZo-20">
          <mxGeometry width="165" height="40" as="geometry">
            <mxRectangle width="165" height="40" as="alternateBounds" />
          </mxGeometry>
        </mxCell>
        <mxCell id="CqUnSfFIssLo8TezVIZo-22" value="IDHabilidad" style="shape=partialRectangle;html=1;whiteSpace=wrap;connectable=0;strokeColor=#6c8ebf;overflow=hidden;fillColor=#dae8fc;top=0;left=0;bottom=0;right=0;pointerEvents=1;fontSize=16;gradientColor=#7ea6e0;" vertex="1" parent="CqUnSfFIssLo8TezVIZo-20">
          <mxGeometry x="165" width="165" height="40" as="geometry">
            <mxRectangle width="165" height="40" as="alternateBounds" />
          </mxGeometry>
        </mxCell>
        <mxCell id="CqUnSfFIssLo8TezVIZo-24" value="" style="shape=tableRow;horizontal=0;startSize=0;swimlaneHead=0;swimlaneBody=0;strokeColor=inherit;top=0;left=0;bottom=0;right=0;collapsible=0;dropTarget=0;fillColor=none;points=[[0,0.5],[1,0.5]];portConstraint=eastwest;fontSize=16;" vertex="1" parent="CqUnSfFIssLo8TezVIZo-19">
          <mxGeometry y="40" width="330" height="40" as="geometry" />
        </mxCell>
        <mxCell id="CqUnSfFIssLo8TezVIZo-25" value="1" style="shape=partialRectangle;html=1;whiteSpace=wrap;connectable=0;strokeColor=inherit;overflow=hidden;fillColor=none;top=0;left=0;bottom=0;right=0;pointerEvents=1;fontSize=16;" vertex="1" parent="CqUnSfFIssLo8TezVIZo-24">
          <mxGeometry width="165" height="40" as="geometry">
            <mxRectangle width="165" height="40" as="alternateBounds" />
          </mxGeometry>
        </mxCell>
        <mxCell id="CqUnSfFIssLo8TezVIZo-26" value="1" style="shape=partialRectangle;html=1;whiteSpace=wrap;connectable=0;strokeColor=inherit;overflow=hidden;fillColor=none;top=0;left=0;bottom=0;right=0;pointerEvents=1;fontSize=16;" vertex="1" parent="CqUnSfFIssLo8TezVIZo-24">
          <mxGeometry x="165" width="165" height="40" as="geometry">
            <mxRectangle width="165" height="40" as="alternateBounds" />
          </mxGeometry>
        </mxCell>
        <mxCell id="CqUnSfFIssLo8TezVIZo-28" value="" style="shape=tableRow;horizontal=0;startSize=0;swimlaneHead=0;swimlaneBody=0;strokeColor=inherit;top=0;left=0;bottom=0;right=0;collapsible=0;dropTarget=0;fillColor=none;points=[[0,0.5],[1,0.5]];portConstraint=eastwest;fontSize=16;" vertex="1" parent="CqUnSfFIssLo8TezVIZo-19">
          <mxGeometry y="80" width="330" height="40" as="geometry" />
        </mxCell>
        <mxCell id="CqUnSfFIssLo8TezVIZo-29" value="1" style="shape=partialRectangle;html=1;whiteSpace=wrap;connectable=0;strokeColor=inherit;overflow=hidden;fillColor=none;top=0;left=0;bottom=0;right=0;pointerEvents=1;fontSize=16;" vertex="1" parent="CqUnSfFIssLo8TezVIZo-28">
          <mxGeometry width="165" height="40" as="geometry">
            <mxRectangle width="165" height="40" as="alternateBounds" />
          </mxGeometry>
        </mxCell>
        <mxCell id="CqUnSfFIssLo8TezVIZo-30" value="2" style="shape=partialRectangle;html=1;whiteSpace=wrap;connectable=0;strokeColor=inherit;overflow=hidden;fillColor=none;top=0;left=0;bottom=0;right=0;pointerEvents=1;fontSize=16;" vertex="1" parent="CqUnSfFIssLo8TezVIZo-28">
          <mxGeometry x="165" width="165" height="40" as="geometry">
            <mxRectangle width="165" height="40" as="alternateBounds" />
          </mxGeometry>
        </mxCell>
        <mxCell id="CqUnSfFIssLo8TezVIZo-33" style="shape=tableRow;horizontal=0;startSize=0;swimlaneHead=0;swimlaneBody=0;strokeColor=inherit;top=0;left=0;bottom=0;right=0;collapsible=0;dropTarget=0;fillColor=none;points=[[0,0.5],[1,0.5]];portConstraint=eastwest;fontSize=16;" vertex="1" parent="CqUnSfFIssLo8TezVIZo-19">
          <mxGeometry y="120" width="330" height="40" as="geometry" />
        </mxCell>
        <mxCell id="CqUnSfFIssLo8TezVIZo-34" value="2" style="shape=partialRectangle;html=1;whiteSpace=wrap;connectable=0;strokeColor=inherit;overflow=hidden;fillColor=none;top=0;left=0;bottom=0;right=0;pointerEvents=1;fontSize=16;" vertex="1" parent="CqUnSfFIssLo8TezVIZo-33">
          <mxGeometry width="165" height="40" as="geometry">
            <mxRectangle width="165" height="40" as="alternateBounds" />
          </mxGeometry>
        </mxCell>
        <mxCell id="CqUnSfFIssLo8TezVIZo-35" value="1" style="shape=partialRectangle;html=1;whiteSpace=wrap;connectable=0;strokeColor=inherit;overflow=hidden;fillColor=none;top=0;left=0;bottom=0;right=0;pointerEvents=1;fontSize=16;" vertex="1" parent="CqUnSfFIssLo8TezVIZo-33">
          <mxGeometry x="165" width="165" height="40" as="geometry">
            <mxRectangle width="165" height="40" as="alternateBounds" />
          </mxGeometry>
        </mxCell>
        <mxCell id="CqUnSfFIssLo8TezVIZo-36" style="shape=tableRow;horizontal=0;startSize=0;swimlaneHead=0;swimlaneBody=0;strokeColor=inherit;top=0;left=0;bottom=0;right=0;collapsible=0;dropTarget=0;fillColor=none;points=[[0,0.5],[1,0.5]];portConstraint=eastwest;fontSize=16;" vertex="1" parent="CqUnSfFIssLo8TezVIZo-19">
          <mxGeometry y="160" width="330" height="40" as="geometry" />
        </mxCell>
        <mxCell id="CqUnSfFIssLo8TezVIZo-37" value="2" style="shape=partialRectangle;html=1;whiteSpace=wrap;connectable=0;strokeColor=inherit;overflow=hidden;fillColor=none;top=0;left=0;bottom=0;right=0;pointerEvents=1;fontSize=16;" vertex="1" parent="CqUnSfFIssLo8TezVIZo-36">
          <mxGeometry width="165" height="40" as="geometry">
            <mxRectangle width="165" height="40" as="alternateBounds" />
          </mxGeometry>
        </mxCell>
        <mxCell id="CqUnSfFIssLo8TezVIZo-38" value="3" style="shape=partialRectangle;html=1;whiteSpace=wrap;connectable=0;strokeColor=inherit;overflow=hidden;fillColor=none;top=0;left=0;bottom=0;right=0;pointerEvents=1;fontSize=16;" vertex="1" parent="CqUnSfFIssLo8TezVIZo-36">
          <mxGeometry x="165" width="165" height="40" as="geometry">
            <mxRectangle width="165" height="40" as="alternateBounds" />
          </mxGeometry>
        </mxCell>
        <mxCell id="CqUnSfFIssLo8TezVIZo-32" value="EmpleadoHabilidad:" style="text;html=1;align=center;verticalAlign=middle;whiteSpace=wrap;rounded=0;" vertex="1" parent="1">
          <mxGeometry x="250" y="560" width="60" height="30" as="geometry" />
        </mxCell>
        <mxCell id="CqUnSfFIssLo8TezVIZo-39" value="&lt;b&gt;&lt;font style=&quot;font-size: 15px;&quot;&gt;4NF&lt;/font&gt;&lt;/b&gt;" style="text;html=1;align=center;verticalAlign=middle;whiteSpace=wrap;rounded=0;" vertex="1" parent="1">
          <mxGeometry x="230" y="90" width="60" height="30" as="geometry" />
        </mxCell>
      </root>
    </mxGraphModel>
  </diagram>
  <diagram id="l1wKWPOy8ZQ4hn_aiAwG" name="Ejercicio 6">
    <mxGraphModel dx="906" dy="553" grid="1" gridSize="10" guides="1" tooltips="1" connect="1" arrows="1" fold="1" page="1" pageScale="1" pageWidth="850" pageHeight="1100" math="0" shadow="0">
      <root>
        <mxCell id="0" />
        <mxCell id="1" parent="0" />
        <mxCell id="XGBdZkgHNRQtXh5_Yucj-1" value="BASE DE DATOS DE CONTRATOS" style="text;html=1;align=center;verticalAlign=middle;whiteSpace=wrap;rounded=0;fontStyle=1;fontSize=16;" vertex="1" parent="1">
          <mxGeometry x="320" y="40" width="190" height="30" as="geometry" />
        </mxCell>
        <mxCell id="viXhIm0RMGiY2JxMo44n-1" value="" style="shape=table;startSize=0;container=1;collapsible=0;childLayout=tableLayout;fontSize=16;" vertex="1" parent="1">
          <mxGeometry x="289" y="160" width="273" height="120" as="geometry" />
        </mxCell>
        <mxCell id="viXhIm0RMGiY2JxMo44n-2" value="" style="shape=tableRow;horizontal=0;startSize=0;swimlaneHead=0;swimlaneBody=0;strokeColor=inherit;top=0;left=0;bottom=0;right=0;collapsible=0;dropTarget=0;fillColor=none;points=[[0,0.5],[1,0.5]];portConstraint=eastwest;fontSize=16;" vertex="1" parent="viXhIm0RMGiY2JxMo44n-1">
          <mxGeometry width="273" height="40" as="geometry" />
        </mxCell>
        <mxCell id="viXhIm0RMGiY2JxMo44n-3" value="IDProyecto" style="shape=partialRectangle;html=1;whiteSpace=wrap;connectable=0;strokeColor=#6c8ebf;overflow=hidden;fillColor=#dae8fc;top=0;left=0;bottom=0;right=0;pointerEvents=1;fontSize=16;gradientColor=#7ea6e0;" vertex="1" parent="viXhIm0RMGiY2JxMo44n-2">
          <mxGeometry width="137" height="40" as="geometry">
            <mxRectangle width="137" height="40" as="alternateBounds" />
          </mxGeometry>
        </mxCell>
        <mxCell id="viXhIm0RMGiY2JxMo44n-4" value="Proyecto" style="shape=partialRectangle;html=1;whiteSpace=wrap;connectable=0;strokeColor=#6c8ebf;overflow=hidden;fillColor=#dae8fc;top=0;left=0;bottom=0;right=0;pointerEvents=1;fontSize=16;gradientColor=#7ea6e0;" vertex="1" parent="viXhIm0RMGiY2JxMo44n-2">
          <mxGeometry x="137" width="136" height="40" as="geometry">
            <mxRectangle width="136" height="40" as="alternateBounds" />
          </mxGeometry>
        </mxCell>
        <mxCell id="viXhIm0RMGiY2JxMo44n-6" value="" style="shape=tableRow;horizontal=0;startSize=0;swimlaneHead=0;swimlaneBody=0;strokeColor=inherit;top=0;left=0;bottom=0;right=0;collapsible=0;dropTarget=0;fillColor=none;points=[[0,0.5],[1,0.5]];portConstraint=eastwest;fontSize=16;" vertex="1" parent="viXhIm0RMGiY2JxMo44n-1">
          <mxGeometry y="40" width="273" height="40" as="geometry" />
        </mxCell>
        <mxCell id="viXhIm0RMGiY2JxMo44n-7" value="1" style="shape=partialRectangle;html=1;whiteSpace=wrap;connectable=0;strokeColor=inherit;overflow=hidden;fillColor=none;top=0;left=0;bottom=0;right=0;pointerEvents=1;fontSize=16;" vertex="1" parent="viXhIm0RMGiY2JxMo44n-6">
          <mxGeometry width="137" height="40" as="geometry">
            <mxRectangle width="137" height="40" as="alternateBounds" />
          </mxGeometry>
        </mxCell>
        <mxCell id="viXhIm0RMGiY2JxMo44n-8" value="A" style="shape=partialRectangle;html=1;whiteSpace=wrap;connectable=0;strokeColor=inherit;overflow=hidden;fillColor=none;top=0;left=0;bottom=0;right=0;pointerEvents=1;fontSize=16;" vertex="1" parent="viXhIm0RMGiY2JxMo44n-6">
          <mxGeometry x="137" width="136" height="40" as="geometry">
            <mxRectangle width="136" height="40" as="alternateBounds" />
          </mxGeometry>
        </mxCell>
        <mxCell id="viXhIm0RMGiY2JxMo44n-10" value="" style="shape=tableRow;horizontal=0;startSize=0;swimlaneHead=0;swimlaneBody=0;strokeColor=inherit;top=0;left=0;bottom=0;right=0;collapsible=0;dropTarget=0;fillColor=none;points=[[0,0.5],[1,0.5]];portConstraint=eastwest;fontSize=16;" vertex="1" parent="viXhIm0RMGiY2JxMo44n-1">
          <mxGeometry y="80" width="273" height="40" as="geometry" />
        </mxCell>
        <mxCell id="viXhIm0RMGiY2JxMo44n-11" value="2" style="shape=partialRectangle;html=1;whiteSpace=wrap;connectable=0;strokeColor=inherit;overflow=hidden;fillColor=none;top=0;left=0;bottom=0;right=0;pointerEvents=1;fontSize=16;" vertex="1" parent="viXhIm0RMGiY2JxMo44n-10">
          <mxGeometry width="137" height="40" as="geometry">
            <mxRectangle width="137" height="40" as="alternateBounds" />
          </mxGeometry>
        </mxCell>
        <mxCell id="viXhIm0RMGiY2JxMo44n-12" value="B" style="shape=partialRectangle;html=1;whiteSpace=wrap;connectable=0;strokeColor=inherit;overflow=hidden;fillColor=none;top=0;left=0;bottom=0;right=0;pointerEvents=1;fontSize=16;" vertex="1" parent="viXhIm0RMGiY2JxMo44n-10">
          <mxGeometry x="137" width="136" height="40" as="geometry">
            <mxRectangle width="136" height="40" as="alternateBounds" />
          </mxGeometry>
        </mxCell>
        <mxCell id="wBA1_L6BnRUHIg-pVy6u-1" value="" style="shape=table;startSize=0;container=1;collapsible=0;childLayout=tableLayout;fontSize=16;" vertex="1" parent="1">
          <mxGeometry x="289" y="360" width="280" height="120" as="geometry" />
        </mxCell>
        <mxCell id="wBA1_L6BnRUHIg-pVy6u-2" value="" style="shape=tableRow;horizontal=0;startSize=0;swimlaneHead=0;swimlaneBody=0;strokeColor=inherit;top=0;left=0;bottom=0;right=0;collapsible=0;dropTarget=0;fillColor=none;points=[[0,0.5],[1,0.5]];portConstraint=eastwest;fontSize=16;" vertex="1" parent="wBA1_L6BnRUHIg-pVy6u-1">
          <mxGeometry width="280" height="40" as="geometry" />
        </mxCell>
        <mxCell id="wBA1_L6BnRUHIg-pVy6u-3" value="IDEmpleado" style="shape=partialRectangle;html=1;whiteSpace=wrap;connectable=0;strokeColor=#6c8ebf;overflow=hidden;fillColor=#dae8fc;top=0;left=0;bottom=0;right=0;pointerEvents=1;fontSize=16;gradientColor=#7ea6e0;" vertex="1" parent="wBA1_L6BnRUHIg-pVy6u-2">
          <mxGeometry width="139" height="40" as="geometry">
            <mxRectangle width="139" height="40" as="alternateBounds" />
          </mxGeometry>
        </mxCell>
        <mxCell id="wBA1_L6BnRUHIg-pVy6u-4" value="Empleado" style="shape=partialRectangle;html=1;whiteSpace=wrap;connectable=0;strokeColor=#6c8ebf;overflow=hidden;fillColor=#dae8fc;top=0;left=0;bottom=0;right=0;pointerEvents=1;fontSize=16;gradientColor=#7ea6e0;" vertex="1" parent="wBA1_L6BnRUHIg-pVy6u-2">
          <mxGeometry x="139" width="141" height="40" as="geometry">
            <mxRectangle width="141" height="40" as="alternateBounds" />
          </mxGeometry>
        </mxCell>
        <mxCell id="wBA1_L6BnRUHIg-pVy6u-6" value="" style="shape=tableRow;horizontal=0;startSize=0;swimlaneHead=0;swimlaneBody=0;strokeColor=inherit;top=0;left=0;bottom=0;right=0;collapsible=0;dropTarget=0;fillColor=none;points=[[0,0.5],[1,0.5]];portConstraint=eastwest;fontSize=16;" vertex="1" parent="wBA1_L6BnRUHIg-pVy6u-1">
          <mxGeometry y="40" width="280" height="40" as="geometry" />
        </mxCell>
        <mxCell id="wBA1_L6BnRUHIg-pVy6u-7" value="1" style="shape=partialRectangle;html=1;whiteSpace=wrap;connectable=0;strokeColor=inherit;overflow=hidden;fillColor=none;top=0;left=0;bottom=0;right=0;pointerEvents=1;fontSize=16;" vertex="1" parent="wBA1_L6BnRUHIg-pVy6u-6">
          <mxGeometry width="139" height="40" as="geometry">
            <mxRectangle width="139" height="40" as="alternateBounds" />
          </mxGeometry>
        </mxCell>
        <mxCell id="wBA1_L6BnRUHIg-pVy6u-8" value="Juan Perez" style="shape=partialRectangle;html=1;whiteSpace=wrap;connectable=0;strokeColor=inherit;overflow=hidden;fillColor=none;top=0;left=0;bottom=0;right=0;pointerEvents=1;fontSize=16;" vertex="1" parent="wBA1_L6BnRUHIg-pVy6u-6">
          <mxGeometry x="139" width="141" height="40" as="geometry">
            <mxRectangle width="141" height="40" as="alternateBounds" />
          </mxGeometry>
        </mxCell>
        <mxCell id="wBA1_L6BnRUHIg-pVy6u-10" value="" style="shape=tableRow;horizontal=0;startSize=0;swimlaneHead=0;swimlaneBody=0;strokeColor=inherit;top=0;left=0;bottom=0;right=0;collapsible=0;dropTarget=0;fillColor=none;points=[[0,0.5],[1,0.5]];portConstraint=eastwest;fontSize=16;" vertex="1" parent="wBA1_L6BnRUHIg-pVy6u-1">
          <mxGeometry y="80" width="280" height="40" as="geometry" />
        </mxCell>
        <mxCell id="wBA1_L6BnRUHIg-pVy6u-11" value="2" style="shape=partialRectangle;html=1;whiteSpace=wrap;connectable=0;strokeColor=inherit;overflow=hidden;fillColor=none;top=0;left=0;bottom=0;right=0;pointerEvents=1;fontSize=16;" vertex="1" parent="wBA1_L6BnRUHIg-pVy6u-10">
          <mxGeometry width="139" height="40" as="geometry">
            <mxRectangle width="139" height="40" as="alternateBounds" />
          </mxGeometry>
        </mxCell>
        <mxCell id="wBA1_L6BnRUHIg-pVy6u-12" value="Ana Gomez" style="shape=partialRectangle;html=1;whiteSpace=wrap;connectable=0;strokeColor=inherit;overflow=hidden;fillColor=none;top=0;left=0;bottom=0;right=0;pointerEvents=1;fontSize=16;" vertex="1" parent="wBA1_L6BnRUHIg-pVy6u-10">
          <mxGeometry x="139" width="141" height="40" as="geometry">
            <mxRectangle width="141" height="40" as="alternateBounds" />
          </mxGeometry>
        </mxCell>
        <mxCell id="wBA1_L6BnRUHIg-pVy6u-14" value="Proyectos:" style="text;html=1;align=center;verticalAlign=middle;whiteSpace=wrap;rounded=0;" vertex="1" parent="1">
          <mxGeometry x="289" y="130" width="60" height="30" as="geometry" />
        </mxCell>
        <mxCell id="wBA1_L6BnRUHIg-pVy6u-15" value="&lt;b&gt;&lt;font style=&quot;font-size: 15px;&quot;&gt;5NF&lt;/font&gt;&lt;/b&gt;" style="text;html=1;align=center;verticalAlign=middle;whiteSpace=wrap;rounded=0;" vertex="1" parent="1">
          <mxGeometry x="275" y="90" width="60" height="30" as="geometry" />
        </mxCell>
        <mxCell id="wBA1_L6BnRUHIg-pVy6u-17" value="Empleados:" style="text;html=1;align=center;verticalAlign=middle;whiteSpace=wrap;rounded=0;" vertex="1" parent="1">
          <mxGeometry x="299" y="330" width="60" height="30" as="geometry" />
        </mxCell>
        <mxCell id="wBA1_L6BnRUHIg-pVy6u-18" value="" style="shape=table;startSize=0;container=1;collapsible=0;childLayout=tableLayout;fontSize=16;" vertex="1" parent="1">
          <mxGeometry x="289" y="560" width="290" height="120" as="geometry" />
        </mxCell>
        <mxCell id="wBA1_L6BnRUHIg-pVy6u-19" value="" style="shape=tableRow;horizontal=0;startSize=0;swimlaneHead=0;swimlaneBody=0;strokeColor=inherit;top=0;left=0;bottom=0;right=0;collapsible=0;dropTarget=0;fillColor=none;points=[[0,0.5],[1,0.5]];portConstraint=eastwest;fontSize=16;" vertex="1" parent="wBA1_L6BnRUHIg-pVy6u-18">
          <mxGeometry width="290" height="40" as="geometry" />
        </mxCell>
        <mxCell id="wBA1_L6BnRUHIg-pVy6u-20" value="IDProveedor" style="shape=partialRectangle;html=1;whiteSpace=wrap;connectable=0;strokeColor=#6c8ebf;overflow=hidden;fillColor=#dae8fc;top=0;left=0;bottom=0;right=0;pointerEvents=1;fontSize=16;gradientColor=#7ea6e0;" vertex="1" parent="wBA1_L6BnRUHIg-pVy6u-19">
          <mxGeometry width="145" height="40" as="geometry">
            <mxRectangle width="145" height="40" as="alternateBounds" />
          </mxGeometry>
        </mxCell>
        <mxCell id="wBA1_L6BnRUHIg-pVy6u-21" value="Provedor" style="shape=partialRectangle;html=1;whiteSpace=wrap;connectable=0;strokeColor=#6c8ebf;overflow=hidden;fillColor=#dae8fc;top=0;left=0;bottom=0;right=0;pointerEvents=1;fontSize=16;gradientColor=#7ea6e0;" vertex="1" parent="wBA1_L6BnRUHIg-pVy6u-19">
          <mxGeometry x="145" width="145" height="40" as="geometry">
            <mxRectangle width="145" height="40" as="alternateBounds" />
          </mxGeometry>
        </mxCell>
        <mxCell id="wBA1_L6BnRUHIg-pVy6u-23" value="" style="shape=tableRow;horizontal=0;startSize=0;swimlaneHead=0;swimlaneBody=0;strokeColor=inherit;top=0;left=0;bottom=0;right=0;collapsible=0;dropTarget=0;fillColor=none;points=[[0,0.5],[1,0.5]];portConstraint=eastwest;fontSize=16;" vertex="1" parent="wBA1_L6BnRUHIg-pVy6u-18">
          <mxGeometry y="40" width="290" height="40" as="geometry" />
        </mxCell>
        <mxCell id="wBA1_L6BnRUHIg-pVy6u-24" value="1001" style="shape=partialRectangle;html=1;whiteSpace=wrap;connectable=0;strokeColor=inherit;overflow=hidden;fillColor=none;top=0;left=0;bottom=0;right=0;pointerEvents=1;fontSize=16;" vertex="1" parent="wBA1_L6BnRUHIg-pVy6u-23">
          <mxGeometry width="145" height="40" as="geometry">
            <mxRectangle width="145" height="40" as="alternateBounds" />
          </mxGeometry>
        </mxCell>
        <mxCell id="wBA1_L6BnRUHIg-pVy6u-25" value="C" style="shape=partialRectangle;html=1;whiteSpace=wrap;connectable=0;strokeColor=inherit;overflow=hidden;fillColor=none;top=0;left=0;bottom=0;right=0;pointerEvents=1;fontSize=16;" vertex="1" parent="wBA1_L6BnRUHIg-pVy6u-23">
          <mxGeometry x="145" width="145" height="40" as="geometry">
            <mxRectangle width="145" height="40" as="alternateBounds" />
          </mxGeometry>
        </mxCell>
        <mxCell id="wBA1_L6BnRUHIg-pVy6u-27" value="" style="shape=tableRow;horizontal=0;startSize=0;swimlaneHead=0;swimlaneBody=0;strokeColor=inherit;top=0;left=0;bottom=0;right=0;collapsible=0;dropTarget=0;fillColor=none;points=[[0,0.5],[1,0.5]];portConstraint=eastwest;fontSize=16;" vertex="1" parent="wBA1_L6BnRUHIg-pVy6u-18">
          <mxGeometry y="80" width="290" height="40" as="geometry" />
        </mxCell>
        <mxCell id="wBA1_L6BnRUHIg-pVy6u-28" value="1002" style="shape=partialRectangle;html=1;whiteSpace=wrap;connectable=0;strokeColor=inherit;overflow=hidden;fillColor=none;top=0;left=0;bottom=0;right=0;pointerEvents=1;fontSize=16;" vertex="1" parent="wBA1_L6BnRUHIg-pVy6u-27">
          <mxGeometry width="145" height="40" as="geometry">
            <mxRectangle width="145" height="40" as="alternateBounds" />
          </mxGeometry>
        </mxCell>
        <mxCell id="wBA1_L6BnRUHIg-pVy6u-29" value="D" style="shape=partialRectangle;html=1;whiteSpace=wrap;connectable=0;strokeColor=inherit;overflow=hidden;fillColor=none;top=0;left=0;bottom=0;right=0;pointerEvents=1;fontSize=16;" vertex="1" parent="wBA1_L6BnRUHIg-pVy6u-27">
          <mxGeometry x="145" width="145" height="40" as="geometry">
            <mxRectangle width="145" height="40" as="alternateBounds" />
          </mxGeometry>
        </mxCell>
        <mxCell id="wBA1_L6BnRUHIg-pVy6u-31" value="Provedores:" style="text;html=1;align=center;verticalAlign=middle;whiteSpace=wrap;rounded=0;" vertex="1" parent="1">
          <mxGeometry x="299" y="530" width="91" height="30" as="geometry" />
        </mxCell>
        <mxCell id="wBA1_L6BnRUHIg-pVy6u-32" value="" style="shape=table;startSize=0;container=1;collapsible=0;childLayout=tableLayout;fontSize=16;" vertex="1" parent="1">
          <mxGeometry x="280" y="750" width="440" height="160" as="geometry" />
        </mxCell>
        <mxCell id="wBA1_L6BnRUHIg-pVy6u-33" value="" style="shape=tableRow;horizontal=0;startSize=0;swimlaneHead=0;swimlaneBody=0;strokeColor=inherit;top=0;left=0;bottom=0;right=0;collapsible=0;dropTarget=0;fillColor=none;points=[[0,0.5],[1,0.5]];portConstraint=eastwest;fontSize=16;" vertex="1" parent="wBA1_L6BnRUHIg-pVy6u-32">
          <mxGeometry width="440" height="40" as="geometry" />
        </mxCell>
        <mxCell id="wBA1_L6BnRUHIg-pVy6u-34" value="IDContrato" style="shape=partialRectangle;html=1;whiteSpace=wrap;connectable=0;strokeColor=#6c8ebf;overflow=hidden;fillColor=#dae8fc;top=0;left=0;bottom=0;right=0;pointerEvents=1;fontSize=16;gradientColor=#7ea6e0;" vertex="1" parent="wBA1_L6BnRUHIg-pVy6u-33">
          <mxGeometry width="110" height="40" as="geometry">
            <mxRectangle width="110" height="40" as="alternateBounds" />
          </mxGeometry>
        </mxCell>
        <mxCell id="wBA1_L6BnRUHIg-pVy6u-35" value="IDEmpleado" style="shape=partialRectangle;html=1;whiteSpace=wrap;connectable=0;strokeColor=#6c8ebf;overflow=hidden;fillColor=#dae8fc;top=0;left=0;bottom=0;right=0;pointerEvents=1;fontSize=16;gradientColor=#7ea6e0;" vertex="1" parent="wBA1_L6BnRUHIg-pVy6u-33">
          <mxGeometry x="110" width="110" height="40" as="geometry">
            <mxRectangle width="110" height="40" as="alternateBounds" />
          </mxGeometry>
        </mxCell>
        <mxCell id="wBA1_L6BnRUHIg-pVy6u-36" value="IDProvedor" style="shape=partialRectangle;html=1;whiteSpace=wrap;connectable=0;strokeColor=#6c8ebf;overflow=hidden;fillColor=#dae8fc;top=0;left=0;bottom=0;right=0;pointerEvents=1;fontSize=16;gradientColor=#7ea6e0;" vertex="1" parent="wBA1_L6BnRUHIg-pVy6u-33">
          <mxGeometry x="220" width="110" height="40" as="geometry">
            <mxRectangle width="110" height="40" as="alternateBounds" />
          </mxGeometry>
        </mxCell>
        <mxCell id="wBA1_L6BnRUHIg-pVy6u-46" value="IDProyecto" style="shape=partialRectangle;html=1;whiteSpace=wrap;connectable=0;strokeColor=#6c8ebf;overflow=hidden;fillColor=#dae8fc;top=0;left=0;bottom=0;right=0;pointerEvents=1;fontSize=16;gradientColor=#7ea6e0;" vertex="1" parent="wBA1_L6BnRUHIg-pVy6u-33">
          <mxGeometry x="330" width="110" height="40" as="geometry">
            <mxRectangle width="110" height="40" as="alternateBounds" />
          </mxGeometry>
        </mxCell>
        <mxCell id="wBA1_L6BnRUHIg-pVy6u-37" value="" style="shape=tableRow;horizontal=0;startSize=0;swimlaneHead=0;swimlaneBody=0;strokeColor=inherit;top=0;left=0;bottom=0;right=0;collapsible=0;dropTarget=0;fillColor=none;points=[[0,0.5],[1,0.5]];portConstraint=eastwest;fontSize=16;" vertex="1" parent="wBA1_L6BnRUHIg-pVy6u-32">
          <mxGeometry y="40" width="440" height="40" as="geometry" />
        </mxCell>
        <mxCell id="wBA1_L6BnRUHIg-pVy6u-38" value="1" style="shape=partialRectangle;html=1;whiteSpace=wrap;connectable=0;strokeColor=inherit;overflow=hidden;fillColor=none;top=0;left=0;bottom=0;right=0;pointerEvents=1;fontSize=16;" vertex="1" parent="wBA1_L6BnRUHIg-pVy6u-37">
          <mxGeometry width="110" height="40" as="geometry">
            <mxRectangle width="110" height="40" as="alternateBounds" />
          </mxGeometry>
        </mxCell>
        <mxCell id="wBA1_L6BnRUHIg-pVy6u-39" value="1" style="shape=partialRectangle;html=1;whiteSpace=wrap;connectable=0;strokeColor=inherit;overflow=hidden;fillColor=none;top=0;left=0;bottom=0;right=0;pointerEvents=1;fontSize=16;" vertex="1" parent="wBA1_L6BnRUHIg-pVy6u-37">
          <mxGeometry x="110" width="110" height="40" as="geometry">
            <mxRectangle width="110" height="40" as="alternateBounds" />
          </mxGeometry>
        </mxCell>
        <mxCell id="wBA1_L6BnRUHIg-pVy6u-40" value="1001" style="shape=partialRectangle;html=1;whiteSpace=wrap;connectable=0;strokeColor=inherit;overflow=hidden;fillColor=none;top=0;left=0;bottom=0;right=0;pointerEvents=1;fontSize=16;" vertex="1" parent="wBA1_L6BnRUHIg-pVy6u-37">
          <mxGeometry x="220" width="110" height="40" as="geometry">
            <mxRectangle width="110" height="40" as="alternateBounds" />
          </mxGeometry>
        </mxCell>
        <mxCell id="wBA1_L6BnRUHIg-pVy6u-47" value="1" style="shape=partialRectangle;html=1;whiteSpace=wrap;connectable=0;strokeColor=inherit;overflow=hidden;fillColor=none;top=0;left=0;bottom=0;right=0;pointerEvents=1;fontSize=16;" vertex="1" parent="wBA1_L6BnRUHIg-pVy6u-37">
          <mxGeometry x="330" width="110" height="40" as="geometry">
            <mxRectangle width="110" height="40" as="alternateBounds" />
          </mxGeometry>
        </mxCell>
        <mxCell id="wBA1_L6BnRUHIg-pVy6u-41" value="" style="shape=tableRow;horizontal=0;startSize=0;swimlaneHead=0;swimlaneBody=0;strokeColor=inherit;top=0;left=0;bottom=0;right=0;collapsible=0;dropTarget=0;fillColor=none;points=[[0,0.5],[1,0.5]];portConstraint=eastwest;fontSize=16;" vertex="1" parent="wBA1_L6BnRUHIg-pVy6u-32">
          <mxGeometry y="80" width="440" height="40" as="geometry" />
        </mxCell>
        <mxCell id="wBA1_L6BnRUHIg-pVy6u-42" value="1" style="shape=partialRectangle;html=1;whiteSpace=wrap;connectable=0;strokeColor=inherit;overflow=hidden;fillColor=none;top=0;left=0;bottom=0;right=0;pointerEvents=1;fontSize=16;" vertex="1" parent="wBA1_L6BnRUHIg-pVy6u-41">
          <mxGeometry width="110" height="40" as="geometry">
            <mxRectangle width="110" height="40" as="alternateBounds" />
          </mxGeometry>
        </mxCell>
        <mxCell id="wBA1_L6BnRUHIg-pVy6u-43" value="2" style="shape=partialRectangle;html=1;whiteSpace=wrap;connectable=0;strokeColor=inherit;overflow=hidden;fillColor=none;top=0;left=0;bottom=0;right=0;pointerEvents=1;fontSize=16;" vertex="1" parent="wBA1_L6BnRUHIg-pVy6u-41">
          <mxGeometry x="110" width="110" height="40" as="geometry">
            <mxRectangle width="110" height="40" as="alternateBounds" />
          </mxGeometry>
        </mxCell>
        <mxCell id="wBA1_L6BnRUHIg-pVy6u-44" value="1002" style="shape=partialRectangle;html=1;whiteSpace=wrap;connectable=0;strokeColor=inherit;overflow=hidden;fillColor=none;top=0;left=0;bottom=0;right=0;pointerEvents=1;fontSize=16;" vertex="1" parent="wBA1_L6BnRUHIg-pVy6u-41">
          <mxGeometry x="220" width="110" height="40" as="geometry">
            <mxRectangle width="110" height="40" as="alternateBounds" />
          </mxGeometry>
        </mxCell>
        <mxCell id="wBA1_L6BnRUHIg-pVy6u-48" value="1" style="shape=partialRectangle;html=1;whiteSpace=wrap;connectable=0;strokeColor=inherit;overflow=hidden;fillColor=none;top=0;left=0;bottom=0;right=0;pointerEvents=1;fontSize=16;" vertex="1" parent="wBA1_L6BnRUHIg-pVy6u-41">
          <mxGeometry x="330" width="110" height="40" as="geometry">
            <mxRectangle width="110" height="40" as="alternateBounds" />
          </mxGeometry>
        </mxCell>
        <mxCell id="wBA1_L6BnRUHIg-pVy6u-49" style="shape=tableRow;horizontal=0;startSize=0;swimlaneHead=0;swimlaneBody=0;strokeColor=inherit;top=0;left=0;bottom=0;right=0;collapsible=0;dropTarget=0;fillColor=none;points=[[0,0.5],[1,0.5]];portConstraint=eastwest;fontSize=16;" vertex="1" parent="wBA1_L6BnRUHIg-pVy6u-32">
          <mxGeometry y="120" width="440" height="40" as="geometry" />
        </mxCell>
        <mxCell id="wBA1_L6BnRUHIg-pVy6u-50" value="2" style="shape=partialRectangle;html=1;whiteSpace=wrap;connectable=0;strokeColor=inherit;overflow=hidden;fillColor=none;top=0;left=0;bottom=0;right=0;pointerEvents=1;fontSize=16;" vertex="1" parent="wBA1_L6BnRUHIg-pVy6u-49">
          <mxGeometry width="110" height="40" as="geometry">
            <mxRectangle width="110" height="40" as="alternateBounds" />
          </mxGeometry>
        </mxCell>
        <mxCell id="wBA1_L6BnRUHIg-pVy6u-51" value="1" style="shape=partialRectangle;html=1;whiteSpace=wrap;connectable=0;strokeColor=inherit;overflow=hidden;fillColor=none;top=0;left=0;bottom=0;right=0;pointerEvents=1;fontSize=16;" vertex="1" parent="wBA1_L6BnRUHIg-pVy6u-49">
          <mxGeometry x="110" width="110" height="40" as="geometry">
            <mxRectangle width="110" height="40" as="alternateBounds" />
          </mxGeometry>
        </mxCell>
        <mxCell id="wBA1_L6BnRUHIg-pVy6u-52" value="1001" style="shape=partialRectangle;html=1;whiteSpace=wrap;connectable=0;strokeColor=inherit;overflow=hidden;fillColor=none;top=0;left=0;bottom=0;right=0;pointerEvents=1;fontSize=16;" vertex="1" parent="wBA1_L6BnRUHIg-pVy6u-49">
          <mxGeometry x="220" width="110" height="40" as="geometry">
            <mxRectangle width="110" height="40" as="alternateBounds" />
          </mxGeometry>
        </mxCell>
        <mxCell id="wBA1_L6BnRUHIg-pVy6u-53" value="2" style="shape=partialRectangle;html=1;whiteSpace=wrap;connectable=0;strokeColor=inherit;overflow=hidden;fillColor=none;top=0;left=0;bottom=0;right=0;pointerEvents=1;fontSize=16;" vertex="1" parent="wBA1_L6BnRUHIg-pVy6u-49">
          <mxGeometry x="330" width="110" height="40" as="geometry">
            <mxRectangle width="110" height="40" as="alternateBounds" />
          </mxGeometry>
        </mxCell>
        <mxCell id="wBA1_L6BnRUHIg-pVy6u-45" value="Contratos:" style="text;html=1;align=center;verticalAlign=middle;whiteSpace=wrap;rounded=0;" vertex="1" parent="1">
          <mxGeometry x="289" y="720" width="60" height="30" as="geometry" />
        </mxCell>
      </root>
    </mxGraphModel>
  </diagram>
  <diagram id="xVnrOp7HE3eqDnaL4yLn" name="Ejercicio 7">
    <mxGraphModel dx="1214" dy="628" grid="1" gridSize="10" guides="1" tooltips="1" connect="1" arrows="1" fold="1" page="1" pageScale="1" pageWidth="827" pageHeight="1169" math="0" shadow="0">
      <root>
        <mxCell id="0" />
        <mxCell id="1" parent="0" />
        <mxCell id="LDXfIesAuVc5r2IeMbXk-1" value="VENTAS DE UNA TIENDA" style="text;html=1;align=center;verticalAlign=middle;whiteSpace=wrap;rounded=0;fontStyle=1;fontSize=16;" vertex="1" parent="1">
          <mxGeometry x="310" y="50" width="190" height="50" as="geometry" />
        </mxCell>
        <mxCell id="LDXfIesAuVc5r2IeMbXk-2" value="" style="shape=table;startSize=0;container=1;collapsible=0;childLayout=tableLayout;fontSize=16;" vertex="1" parent="1">
          <mxGeometry x="240" y="200" width="300" height="120" as="geometry" />
        </mxCell>
        <mxCell id="LDXfIesAuVc5r2IeMbXk-3" value="" style="shape=tableRow;horizontal=0;startSize=0;swimlaneHead=0;swimlaneBody=0;strokeColor=inherit;top=0;left=0;bottom=0;right=0;collapsible=0;dropTarget=0;fillColor=none;points=[[0,0.5],[1,0.5]];portConstraint=eastwest;fontSize=16;" vertex="1" parent="LDXfIesAuVc5r2IeMbXk-2">
          <mxGeometry width="300" height="40" as="geometry" />
        </mxCell>
        <mxCell id="LDXfIesAuVc5r2IeMbXk-4" value="ID_Cliente" style="shape=partialRectangle;html=1;whiteSpace=wrap;connectable=0;strokeColor=#6c8ebf;overflow=hidden;fillColor=#dae8fc;top=0;left=0;bottom=0;right=0;pointerEvents=1;fontSize=16;gradientColor=#7ea6e0;" vertex="1" parent="LDXfIesAuVc5r2IeMbXk-3">
          <mxGeometry width="150" height="40" as="geometry">
            <mxRectangle width="150" height="40" as="alternateBounds" />
          </mxGeometry>
        </mxCell>
        <mxCell id="LDXfIesAuVc5r2IeMbXk-5" value="Cliente" style="shape=partialRectangle;html=1;whiteSpace=wrap;connectable=0;strokeColor=#6c8ebf;overflow=hidden;fillColor=#dae8fc;top=0;left=0;bottom=0;right=0;pointerEvents=1;fontSize=16;gradientColor=#7ea6e0;" vertex="1" parent="LDXfIesAuVc5r2IeMbXk-3">
          <mxGeometry x="150" width="150" height="40" as="geometry">
            <mxRectangle width="150" height="40" as="alternateBounds" />
          </mxGeometry>
        </mxCell>
        <mxCell id="LDXfIesAuVc5r2IeMbXk-7" value="" style="shape=tableRow;horizontal=0;startSize=0;swimlaneHead=0;swimlaneBody=0;strokeColor=inherit;top=0;left=0;bottom=0;right=0;collapsible=0;dropTarget=0;fillColor=none;points=[[0,0.5],[1,0.5]];portConstraint=eastwest;fontSize=16;" vertex="1" parent="LDXfIesAuVc5r2IeMbXk-2">
          <mxGeometry y="40" width="300" height="40" as="geometry" />
        </mxCell>
        <mxCell id="LDXfIesAuVc5r2IeMbXk-8" value="1" style="shape=partialRectangle;html=1;whiteSpace=wrap;connectable=0;strokeColor=inherit;overflow=hidden;fillColor=none;top=0;left=0;bottom=0;right=0;pointerEvents=1;fontSize=16;" vertex="1" parent="LDXfIesAuVc5r2IeMbXk-7">
          <mxGeometry width="150" height="40" as="geometry">
            <mxRectangle width="150" height="40" as="alternateBounds" />
          </mxGeometry>
        </mxCell>
        <mxCell id="LDXfIesAuVc5r2IeMbXk-9" value="Juan perez" style="shape=partialRectangle;html=1;whiteSpace=wrap;connectable=0;strokeColor=inherit;overflow=hidden;fillColor=none;top=0;left=0;bottom=0;right=0;pointerEvents=1;fontSize=16;" vertex="1" parent="LDXfIesAuVc5r2IeMbXk-7">
          <mxGeometry x="150" width="150" height="40" as="geometry">
            <mxRectangle width="150" height="40" as="alternateBounds" />
          </mxGeometry>
        </mxCell>
        <mxCell id="LDXfIesAuVc5r2IeMbXk-11" value="" style="shape=tableRow;horizontal=0;startSize=0;swimlaneHead=0;swimlaneBody=0;strokeColor=inherit;top=0;left=0;bottom=0;right=0;collapsible=0;dropTarget=0;fillColor=none;points=[[0,0.5],[1,0.5]];portConstraint=eastwest;fontSize=16;" vertex="1" parent="LDXfIesAuVc5r2IeMbXk-2">
          <mxGeometry y="80" width="300" height="40" as="geometry" />
        </mxCell>
        <mxCell id="LDXfIesAuVc5r2IeMbXk-12" value="2" style="shape=partialRectangle;html=1;whiteSpace=wrap;connectable=0;strokeColor=inherit;overflow=hidden;fillColor=none;top=0;left=0;bottom=0;right=0;pointerEvents=1;fontSize=16;" vertex="1" parent="LDXfIesAuVc5r2IeMbXk-11">
          <mxGeometry width="150" height="40" as="geometry">
            <mxRectangle width="150" height="40" as="alternateBounds" />
          </mxGeometry>
        </mxCell>
        <mxCell id="LDXfIesAuVc5r2IeMbXk-13" value="Ana gomez" style="shape=partialRectangle;html=1;whiteSpace=wrap;connectable=0;strokeColor=inherit;overflow=hidden;fillColor=none;top=0;left=0;bottom=0;right=0;pointerEvents=1;fontSize=16;" vertex="1" parent="LDXfIesAuVc5r2IeMbXk-11">
          <mxGeometry x="150" width="150" height="40" as="geometry">
            <mxRectangle width="150" height="40" as="alternateBounds" />
          </mxGeometry>
        </mxCell>
        <mxCell id="LDXfIesAuVc5r2IeMbXk-15" value="&lt;font style=&quot;font-size: 14px;&quot;&gt;&lt;b&gt;Clientes:&lt;/b&gt;&lt;/font&gt;" style="text;html=1;align=center;verticalAlign=middle;whiteSpace=wrap;rounded=0;" vertex="1" parent="1">
          <mxGeometry x="240" y="170" width="60" height="30" as="geometry" />
        </mxCell>
        <mxCell id="LDXfIesAuVc5r2IeMbXk-16" value="" style="shape=table;startSize=0;container=1;collapsible=0;childLayout=tableLayout;fontSize=16;" vertex="1" parent="1">
          <mxGeometry x="240" y="390" width="401" height="120" as="geometry" />
        </mxCell>
        <mxCell id="LDXfIesAuVc5r2IeMbXk-17" value="" style="shape=tableRow;horizontal=0;startSize=0;swimlaneHead=0;swimlaneBody=0;strokeColor=inherit;top=0;left=0;bottom=0;right=0;collapsible=0;dropTarget=0;fillColor=none;points=[[0,0.5],[1,0.5]];portConstraint=eastwest;fontSize=16;" vertex="1" parent="LDXfIesAuVc5r2IeMbXk-16">
          <mxGeometry width="401" height="40" as="geometry" />
        </mxCell>
        <mxCell id="LDXfIesAuVc5r2IeMbXk-18" value="ID_Producto" style="shape=partialRectangle;html=1;whiteSpace=wrap;connectable=0;strokeColor=#6c8ebf;overflow=hidden;fillColor=#dae8fc;top=0;left=0;bottom=0;right=0;pointerEvents=1;fontSize=16;gradientColor=#7ea6e0;" vertex="1" parent="LDXfIesAuVc5r2IeMbXk-17">
          <mxGeometry width="133" height="40" as="geometry">
            <mxRectangle width="133" height="40" as="alternateBounds" />
          </mxGeometry>
        </mxCell>
        <mxCell id="LDXfIesAuVc5r2IeMbXk-19" value="Producto" style="shape=partialRectangle;html=1;whiteSpace=wrap;connectable=0;strokeColor=#6c8ebf;overflow=hidden;fillColor=#dae8fc;top=0;left=0;bottom=0;right=0;pointerEvents=1;fontSize=16;gradientColor=#7ea6e0;" vertex="1" parent="LDXfIesAuVc5r2IeMbXk-17">
          <mxGeometry x="133" width="134" height="40" as="geometry">
            <mxRectangle width="134" height="40" as="alternateBounds" />
          </mxGeometry>
        </mxCell>
        <mxCell id="LDXfIesAuVc5r2IeMbXk-43" value="Precio" style="shape=partialRectangle;html=1;whiteSpace=wrap;connectable=0;strokeColor=#6c8ebf;overflow=hidden;fillColor=#dae8fc;top=0;left=0;bottom=0;right=0;pointerEvents=1;fontSize=16;gradientColor=#7ea6e0;" vertex="1" parent="LDXfIesAuVc5r2IeMbXk-17">
          <mxGeometry x="267" width="134" height="40" as="geometry">
            <mxRectangle width="134" height="40" as="alternateBounds" />
          </mxGeometry>
        </mxCell>
        <mxCell id="LDXfIesAuVc5r2IeMbXk-21" value="" style="shape=tableRow;horizontal=0;startSize=0;swimlaneHead=0;swimlaneBody=0;strokeColor=inherit;top=0;left=0;bottom=0;right=0;collapsible=0;dropTarget=0;fillColor=none;points=[[0,0.5],[1,0.5]];portConstraint=eastwest;fontSize=16;" vertex="1" parent="LDXfIesAuVc5r2IeMbXk-16">
          <mxGeometry y="40" width="401" height="40" as="geometry" />
        </mxCell>
        <mxCell id="LDXfIesAuVc5r2IeMbXk-22" value="101" style="shape=partialRectangle;html=1;whiteSpace=wrap;connectable=0;strokeColor=inherit;overflow=hidden;fillColor=none;top=0;left=0;bottom=0;right=0;pointerEvents=1;fontSize=16;" vertex="1" parent="LDXfIesAuVc5r2IeMbXk-21">
          <mxGeometry width="133" height="40" as="geometry">
            <mxRectangle width="133" height="40" as="alternateBounds" />
          </mxGeometry>
        </mxCell>
        <mxCell id="LDXfIesAuVc5r2IeMbXk-23" value="Camiseta" style="shape=partialRectangle;html=1;whiteSpace=wrap;connectable=0;strokeColor=inherit;overflow=hidden;fillColor=none;top=0;left=0;bottom=0;right=0;pointerEvents=1;fontSize=16;" vertex="1" parent="LDXfIesAuVc5r2IeMbXk-21">
          <mxGeometry x="133" width="134" height="40" as="geometry">
            <mxRectangle width="134" height="40" as="alternateBounds" />
          </mxGeometry>
        </mxCell>
        <mxCell id="LDXfIesAuVc5r2IeMbXk-44" value="20.00" style="shape=partialRectangle;html=1;whiteSpace=wrap;connectable=0;strokeColor=inherit;overflow=hidden;fillColor=none;top=0;left=0;bottom=0;right=0;pointerEvents=1;fontSize=16;" vertex="1" parent="LDXfIesAuVc5r2IeMbXk-21">
          <mxGeometry x="267" width="134" height="40" as="geometry">
            <mxRectangle width="134" height="40" as="alternateBounds" />
          </mxGeometry>
        </mxCell>
        <mxCell id="LDXfIesAuVc5r2IeMbXk-25" value="" style="shape=tableRow;horizontal=0;startSize=0;swimlaneHead=0;swimlaneBody=0;strokeColor=inherit;top=0;left=0;bottom=0;right=0;collapsible=0;dropTarget=0;fillColor=none;points=[[0,0.5],[1,0.5]];portConstraint=eastwest;fontSize=16;" vertex="1" parent="LDXfIesAuVc5r2IeMbXk-16">
          <mxGeometry y="80" width="401" height="40" as="geometry" />
        </mxCell>
        <mxCell id="LDXfIesAuVc5r2IeMbXk-26" value="102" style="shape=partialRectangle;html=1;whiteSpace=wrap;connectable=0;strokeColor=inherit;overflow=hidden;fillColor=none;top=0;left=0;bottom=0;right=0;pointerEvents=1;fontSize=16;" vertex="1" parent="LDXfIesAuVc5r2IeMbXk-25">
          <mxGeometry width="133" height="40" as="geometry">
            <mxRectangle width="133" height="40" as="alternateBounds" />
          </mxGeometry>
        </mxCell>
        <mxCell id="LDXfIesAuVc5r2IeMbXk-27" value="Pantalon" style="shape=partialRectangle;html=1;whiteSpace=wrap;connectable=0;strokeColor=inherit;overflow=hidden;fillColor=none;top=0;left=0;bottom=0;right=0;pointerEvents=1;fontSize=16;" vertex="1" parent="LDXfIesAuVc5r2IeMbXk-25">
          <mxGeometry x="133" width="134" height="40" as="geometry">
            <mxRectangle width="134" height="40" as="alternateBounds" />
          </mxGeometry>
        </mxCell>
        <mxCell id="LDXfIesAuVc5r2IeMbXk-45" value="25.00" style="shape=partialRectangle;html=1;whiteSpace=wrap;connectable=0;strokeColor=inherit;overflow=hidden;fillColor=none;top=0;left=0;bottom=0;right=0;pointerEvents=1;fontSize=16;" vertex="1" parent="LDXfIesAuVc5r2IeMbXk-25">
          <mxGeometry x="267" width="134" height="40" as="geometry">
            <mxRectangle width="134" height="40" as="alternateBounds" />
          </mxGeometry>
        </mxCell>
        <mxCell id="LDXfIesAuVc5r2IeMbXk-29" value="&lt;font style=&quot;font-size: 14px;&quot;&gt;&lt;b&gt;Productos:&lt;/b&gt;&lt;/font&gt;" style="text;html=1;align=center;verticalAlign=middle;whiteSpace=wrap;rounded=0;" vertex="1" parent="1">
          <mxGeometry x="270" y="360" width="60" height="30" as="geometry" />
        </mxCell>
        <mxCell id="LDXfIesAuVc5r2IeMbXk-30" value="" style="shape=table;startSize=0;container=1;collapsible=0;childLayout=tableLayout;fontSize=16;" vertex="1" parent="1">
          <mxGeometry x="190" y="600" width="547" height="160" as="geometry" />
        </mxCell>
        <mxCell id="LDXfIesAuVc5r2IeMbXk-31" value="" style="shape=tableRow;horizontal=0;startSize=0;swimlaneHead=0;swimlaneBody=0;strokeColor=inherit;top=0;left=0;bottom=0;right=0;collapsible=0;dropTarget=0;fillColor=none;points=[[0,0.5],[1,0.5]];portConstraint=eastwest;fontSize=16;" vertex="1" parent="LDXfIesAuVc5r2IeMbXk-30">
          <mxGeometry width="547" height="40" as="geometry" />
        </mxCell>
        <mxCell id="LDXfIesAuVc5r2IeMbXk-32" value="ID_Venta" style="shape=partialRectangle;html=1;whiteSpace=wrap;connectable=0;strokeColor=#6c8ebf;overflow=hidden;fillColor=#dae8fc;top=0;left=0;bottom=0;right=0;pointerEvents=1;fontSize=16;gradientColor=#7ea6e0;" vertex="1" parent="LDXfIesAuVc5r2IeMbXk-31">
          <mxGeometry width="137" height="40" as="geometry">
            <mxRectangle width="137" height="40" as="alternateBounds" />
          </mxGeometry>
        </mxCell>
        <mxCell id="LDXfIesAuVc5r2IeMbXk-33" value="ID_Producto" style="shape=partialRectangle;html=1;whiteSpace=wrap;connectable=0;strokeColor=#6c8ebf;overflow=hidden;fillColor=#dae8fc;top=0;left=0;bottom=0;right=0;pointerEvents=1;fontSize=16;gradientColor=#7ea6e0;" vertex="1" parent="LDXfIesAuVc5r2IeMbXk-31">
          <mxGeometry x="137" width="136" height="40" as="geometry">
            <mxRectangle width="136" height="40" as="alternateBounds" />
          </mxGeometry>
        </mxCell>
        <mxCell id="LDXfIesAuVc5r2IeMbXk-34" value="ID_Cliente" style="shape=partialRectangle;html=1;whiteSpace=wrap;connectable=0;strokeColor=#6c8ebf;overflow=hidden;fillColor=#dae8fc;top=0;left=0;bottom=0;right=0;pointerEvents=1;fontSize=16;gradientColor=#7ea6e0;" vertex="1" parent="LDXfIesAuVc5r2IeMbXk-31">
          <mxGeometry x="273" width="137" height="40" as="geometry">
            <mxRectangle width="137" height="40" as="alternateBounds" />
          </mxGeometry>
        </mxCell>
        <mxCell id="LDXfIesAuVc5r2IeMbXk-46" value="Fecha" style="shape=partialRectangle;html=1;whiteSpace=wrap;connectable=0;strokeColor=#6c8ebf;overflow=hidden;fillColor=#dae8fc;top=0;left=0;bottom=0;right=0;pointerEvents=1;fontSize=16;gradientColor=#7ea6e0;" vertex="1" parent="LDXfIesAuVc5r2IeMbXk-31">
          <mxGeometry x="410" width="137" height="40" as="geometry">
            <mxRectangle width="137" height="40" as="alternateBounds" />
          </mxGeometry>
        </mxCell>
        <mxCell id="LDXfIesAuVc5r2IeMbXk-35" value="" style="shape=tableRow;horizontal=0;startSize=0;swimlaneHead=0;swimlaneBody=0;strokeColor=inherit;top=0;left=0;bottom=0;right=0;collapsible=0;dropTarget=0;fillColor=none;points=[[0,0.5],[1,0.5]];portConstraint=eastwest;fontSize=16;" vertex="1" parent="LDXfIesAuVc5r2IeMbXk-30">
          <mxGeometry y="40" width="547" height="40" as="geometry" />
        </mxCell>
        <mxCell id="LDXfIesAuVc5r2IeMbXk-36" value="1" style="shape=partialRectangle;html=1;whiteSpace=wrap;connectable=0;strokeColor=inherit;overflow=hidden;fillColor=none;top=0;left=0;bottom=0;right=0;pointerEvents=1;fontSize=16;" vertex="1" parent="LDXfIesAuVc5r2IeMbXk-35">
          <mxGeometry width="137" height="40" as="geometry">
            <mxRectangle width="137" height="40" as="alternateBounds" />
          </mxGeometry>
        </mxCell>
        <mxCell id="LDXfIesAuVc5r2IeMbXk-37" value="101" style="shape=partialRectangle;html=1;whiteSpace=wrap;connectable=0;strokeColor=inherit;overflow=hidden;fillColor=none;top=0;left=0;bottom=0;right=0;pointerEvents=1;fontSize=16;" vertex="1" parent="LDXfIesAuVc5r2IeMbXk-35">
          <mxGeometry x="137" width="136" height="40" as="geometry">
            <mxRectangle width="136" height="40" as="alternateBounds" />
          </mxGeometry>
        </mxCell>
        <mxCell id="LDXfIesAuVc5r2IeMbXk-38" value="1" style="shape=partialRectangle;html=1;whiteSpace=wrap;connectable=0;strokeColor=inherit;overflow=hidden;fillColor=none;top=0;left=0;bottom=0;right=0;pointerEvents=1;fontSize=16;" vertex="1" parent="LDXfIesAuVc5r2IeMbXk-35">
          <mxGeometry x="273" width="137" height="40" as="geometry">
            <mxRectangle width="137" height="40" as="alternateBounds" />
          </mxGeometry>
        </mxCell>
        <mxCell id="LDXfIesAuVc5r2IeMbXk-47" value="23-01-01" style="shape=partialRectangle;html=1;whiteSpace=wrap;connectable=0;strokeColor=inherit;overflow=hidden;fillColor=none;top=0;left=0;bottom=0;right=0;pointerEvents=1;fontSize=16;" vertex="1" parent="LDXfIesAuVc5r2IeMbXk-35">
          <mxGeometry x="410" width="137" height="40" as="geometry">
            <mxRectangle width="137" height="40" as="alternateBounds" />
          </mxGeometry>
        </mxCell>
        <mxCell id="LDXfIesAuVc5r2IeMbXk-39" value="" style="shape=tableRow;horizontal=0;startSize=0;swimlaneHead=0;swimlaneBody=0;strokeColor=inherit;top=0;left=0;bottom=0;right=0;collapsible=0;dropTarget=0;fillColor=none;points=[[0,0.5],[1,0.5]];portConstraint=eastwest;fontSize=16;" vertex="1" parent="LDXfIesAuVc5r2IeMbXk-30">
          <mxGeometry y="80" width="547" height="40" as="geometry" />
        </mxCell>
        <mxCell id="LDXfIesAuVc5r2IeMbXk-40" value="2" style="shape=partialRectangle;html=1;whiteSpace=wrap;connectable=0;strokeColor=inherit;overflow=hidden;fillColor=none;top=0;left=0;bottom=0;right=0;pointerEvents=1;fontSize=16;" vertex="1" parent="LDXfIesAuVc5r2IeMbXk-39">
          <mxGeometry width="137" height="40" as="geometry">
            <mxRectangle width="137" height="40" as="alternateBounds" />
          </mxGeometry>
        </mxCell>
        <mxCell id="LDXfIesAuVc5r2IeMbXk-41" value="102" style="shape=partialRectangle;html=1;whiteSpace=wrap;connectable=0;strokeColor=inherit;overflow=hidden;fillColor=none;top=0;left=0;bottom=0;right=0;pointerEvents=1;fontSize=16;" vertex="1" parent="LDXfIesAuVc5r2IeMbXk-39">
          <mxGeometry x="137" width="136" height="40" as="geometry">
            <mxRectangle width="136" height="40" as="alternateBounds" />
          </mxGeometry>
        </mxCell>
        <mxCell id="LDXfIesAuVc5r2IeMbXk-42" value="2" style="shape=partialRectangle;html=1;whiteSpace=wrap;connectable=0;strokeColor=inherit;overflow=hidden;fillColor=none;top=0;left=0;bottom=0;right=0;pointerEvents=1;fontSize=16;" vertex="1" parent="LDXfIesAuVc5r2IeMbXk-39">
          <mxGeometry x="273" width="137" height="40" as="geometry">
            <mxRectangle width="137" height="40" as="alternateBounds" />
          </mxGeometry>
        </mxCell>
        <mxCell id="LDXfIesAuVc5r2IeMbXk-48" value="23-01-02" style="shape=partialRectangle;html=1;whiteSpace=wrap;connectable=0;strokeColor=inherit;overflow=hidden;fillColor=none;top=0;left=0;bottom=0;right=0;pointerEvents=1;fontSize=16;" vertex="1" parent="LDXfIesAuVc5r2IeMbXk-39">
          <mxGeometry x="410" width="137" height="40" as="geometry">
            <mxRectangle width="137" height="40" as="alternateBounds" />
          </mxGeometry>
        </mxCell>
        <mxCell id="LDXfIesAuVc5r2IeMbXk-49" style="shape=tableRow;horizontal=0;startSize=0;swimlaneHead=0;swimlaneBody=0;strokeColor=inherit;top=0;left=0;bottom=0;right=0;collapsible=0;dropTarget=0;fillColor=none;points=[[0,0.5],[1,0.5]];portConstraint=eastwest;fontSize=16;" vertex="1" parent="LDXfIesAuVc5r2IeMbXk-30">
          <mxGeometry y="120" width="547" height="40" as="geometry" />
        </mxCell>
        <mxCell id="LDXfIesAuVc5r2IeMbXk-50" value="3" style="shape=partialRectangle;html=1;whiteSpace=wrap;connectable=0;strokeColor=inherit;overflow=hidden;fillColor=none;top=0;left=0;bottom=0;right=0;pointerEvents=1;fontSize=16;" vertex="1" parent="LDXfIesAuVc5r2IeMbXk-49">
          <mxGeometry width="137" height="40" as="geometry">
            <mxRectangle width="137" height="40" as="alternateBounds" />
          </mxGeometry>
        </mxCell>
        <mxCell id="LDXfIesAuVc5r2IeMbXk-51" value="101" style="shape=partialRectangle;html=1;whiteSpace=wrap;connectable=0;strokeColor=inherit;overflow=hidden;fillColor=none;top=0;left=0;bottom=0;right=0;pointerEvents=1;fontSize=16;" vertex="1" parent="LDXfIesAuVc5r2IeMbXk-49">
          <mxGeometry x="137" width="136" height="40" as="geometry">
            <mxRectangle width="136" height="40" as="alternateBounds" />
          </mxGeometry>
        </mxCell>
        <mxCell id="LDXfIesAuVc5r2IeMbXk-52" value="1" style="shape=partialRectangle;html=1;whiteSpace=wrap;connectable=0;strokeColor=inherit;overflow=hidden;fillColor=none;top=0;left=0;bottom=0;right=0;pointerEvents=1;fontSize=16;" vertex="1" parent="LDXfIesAuVc5r2IeMbXk-49">
          <mxGeometry x="273" width="137" height="40" as="geometry">
            <mxRectangle width="137" height="40" as="alternateBounds" />
          </mxGeometry>
        </mxCell>
        <mxCell id="LDXfIesAuVc5r2IeMbXk-53" value="23-01-03" style="shape=partialRectangle;html=1;whiteSpace=wrap;connectable=0;strokeColor=inherit;overflow=hidden;fillColor=none;top=0;left=0;bottom=0;right=0;pointerEvents=1;fontSize=16;" vertex="1" parent="LDXfIesAuVc5r2IeMbXk-49">
          <mxGeometry x="410" width="137" height="40" as="geometry">
            <mxRectangle width="137" height="40" as="alternateBounds" />
          </mxGeometry>
        </mxCell>
        <mxCell id="LDXfIesAuVc5r2IeMbXk-54" value="&lt;font style=&quot;font-size: 14px;&quot;&gt;&lt;b&gt;Ventas:&lt;/b&gt;&lt;/font&gt;" style="text;html=1;align=center;verticalAlign=middle;whiteSpace=wrap;rounded=0;" vertex="1" parent="1">
          <mxGeometry x="200" y="570" width="60" height="30" as="geometry" />
        </mxCell>
      </root>
    </mxGraphModel>
  </diagram>
  <diagram id="IPH63AIMUGI7AthPCvnf" name="Ejercicio 8">
    <mxGraphModel dx="1214" dy="628" grid="1" gridSize="10" guides="1" tooltips="1" connect="1" arrows="1" fold="1" page="1" pageScale="1" pageWidth="827" pageHeight="1169" math="0" shadow="0">
      <root>
        <mxCell id="0" />
        <mxCell id="1" parent="0" />
        <mxCell id="7N9b3vlmDiYaMPmWK88w-1" value="INVENTARIOS EN UN ALMACEN" style="text;html=1;align=center;verticalAlign=middle;whiteSpace=wrap;rounded=0;fontSize=17;fontStyle=1" vertex="1" parent="1">
          <mxGeometry x="319" y="60" width="190" height="30" as="geometry" />
        </mxCell>
        <mxCell id="7N9b3vlmDiYaMPmWK88w-2" value="" style="shape=table;startSize=0;container=1;collapsible=0;childLayout=tableLayout;fontSize=16;" vertex="1" parent="1">
          <mxGeometry x="254" y="200" width="320" height="120" as="geometry" />
        </mxCell>
        <mxCell id="7N9b3vlmDiYaMPmWK88w-3" value="" style="shape=tableRow;horizontal=0;startSize=0;swimlaneHead=0;swimlaneBody=0;strokeColor=inherit;top=0;left=0;bottom=0;right=0;collapsible=0;dropTarget=0;fillColor=none;points=[[0,0.5],[1,0.5]];portConstraint=eastwest;fontSize=16;" vertex="1" parent="7N9b3vlmDiYaMPmWK88w-2">
          <mxGeometry width="320" height="40" as="geometry" />
        </mxCell>
        <mxCell id="7N9b3vlmDiYaMPmWK88w-4" value="ID_Inventarios" style="shape=partialRectangle;html=1;whiteSpace=wrap;connectable=0;strokeColor=#6c8ebf;overflow=hidden;fillColor=#dae8fc;top=0;left=0;bottom=0;right=0;pointerEvents=1;fontSize=16;gradientColor=#7ea6e0;" vertex="1" parent="7N9b3vlmDiYaMPmWK88w-3">
          <mxGeometry width="160" height="40" as="geometry">
            <mxRectangle width="160" height="40" as="alternateBounds" />
          </mxGeometry>
        </mxCell>
        <mxCell id="7N9b3vlmDiYaMPmWK88w-5" value="Producto" style="shape=partialRectangle;html=1;whiteSpace=wrap;connectable=0;strokeColor=#6c8ebf;overflow=hidden;fillColor=#dae8fc;top=0;left=0;bottom=0;right=0;pointerEvents=1;fontSize=16;gradientColor=#7ea6e0;" vertex="1" parent="7N9b3vlmDiYaMPmWK88w-3">
          <mxGeometry x="160" width="160" height="40" as="geometry">
            <mxRectangle width="160" height="40" as="alternateBounds" />
          </mxGeometry>
        </mxCell>
        <mxCell id="7N9b3vlmDiYaMPmWK88w-7" value="" style="shape=tableRow;horizontal=0;startSize=0;swimlaneHead=0;swimlaneBody=0;strokeColor=inherit;top=0;left=0;bottom=0;right=0;collapsible=0;dropTarget=0;fillColor=none;points=[[0,0.5],[1,0.5]];portConstraint=eastwest;fontSize=16;" vertex="1" parent="7N9b3vlmDiYaMPmWK88w-2">
          <mxGeometry y="40" width="320" height="40" as="geometry" />
        </mxCell>
        <mxCell id="7N9b3vlmDiYaMPmWK88w-8" value="1" style="shape=partialRectangle;html=1;whiteSpace=wrap;connectable=0;strokeColor=inherit;overflow=hidden;fillColor=none;top=0;left=0;bottom=0;right=0;pointerEvents=1;fontSize=16;" vertex="1" parent="7N9b3vlmDiYaMPmWK88w-7">
          <mxGeometry width="160" height="40" as="geometry">
            <mxRectangle width="160" height="40" as="alternateBounds" />
          </mxGeometry>
        </mxCell>
        <mxCell id="7N9b3vlmDiYaMPmWK88w-9" value="Tornillos" style="shape=partialRectangle;html=1;whiteSpace=wrap;connectable=0;strokeColor=inherit;overflow=hidden;fillColor=none;top=0;left=0;bottom=0;right=0;pointerEvents=1;fontSize=16;" vertex="1" parent="7N9b3vlmDiYaMPmWK88w-7">
          <mxGeometry x="160" width="160" height="40" as="geometry">
            <mxRectangle width="160" height="40" as="alternateBounds" />
          </mxGeometry>
        </mxCell>
        <mxCell id="7N9b3vlmDiYaMPmWK88w-11" value="" style="shape=tableRow;horizontal=0;startSize=0;swimlaneHead=0;swimlaneBody=0;strokeColor=inherit;top=0;left=0;bottom=0;right=0;collapsible=0;dropTarget=0;fillColor=none;points=[[0,0.5],[1,0.5]];portConstraint=eastwest;fontSize=16;" vertex="1" parent="7N9b3vlmDiYaMPmWK88w-2">
          <mxGeometry y="80" width="320" height="40" as="geometry" />
        </mxCell>
        <mxCell id="7N9b3vlmDiYaMPmWK88w-12" value="2" style="shape=partialRectangle;html=1;whiteSpace=wrap;connectable=0;strokeColor=inherit;overflow=hidden;fillColor=none;top=0;left=0;bottom=0;right=0;pointerEvents=1;fontSize=16;" vertex="1" parent="7N9b3vlmDiYaMPmWK88w-11">
          <mxGeometry width="160" height="40" as="geometry">
            <mxRectangle width="160" height="40" as="alternateBounds" />
          </mxGeometry>
        </mxCell>
        <mxCell id="7N9b3vlmDiYaMPmWK88w-13" value="Clavos" style="shape=partialRectangle;html=1;whiteSpace=wrap;connectable=0;strokeColor=inherit;overflow=hidden;fillColor=none;top=0;left=0;bottom=0;right=0;pointerEvents=1;fontSize=16;" vertex="1" parent="7N9b3vlmDiYaMPmWK88w-11">
          <mxGeometry x="160" width="160" height="40" as="geometry">
            <mxRectangle width="160" height="40" as="alternateBounds" />
          </mxGeometry>
        </mxCell>
        <mxCell id="YH87qwvY-_v2b3p151Pb-1" value="" style="shape=table;startSize=0;container=1;collapsible=0;childLayout=tableLayout;fontSize=16;" vertex="1" parent="1">
          <mxGeometry x="240" y="400" width="466" height="200" as="geometry" />
        </mxCell>
        <mxCell id="YH87qwvY-_v2b3p151Pb-2" value="" style="shape=tableRow;horizontal=0;startSize=0;swimlaneHead=0;swimlaneBody=0;strokeColor=inherit;top=0;left=0;bottom=0;right=0;collapsible=0;dropTarget=0;fillColor=none;points=[[0,0.5],[1,0.5]];portConstraint=eastwest;fontSize=16;" vertex="1" parent="YH87qwvY-_v2b3p151Pb-1">
          <mxGeometry width="466" height="40" as="geometry" />
        </mxCell>
        <mxCell id="YH87qwvY-_v2b3p151Pb-3" value="ID_Detalle" style="shape=partialRectangle;html=1;whiteSpace=wrap;connectable=0;strokeColor=#6c8ebf;overflow=hidden;fillColor=#dae8fc;top=0;left=0;bottom=0;right=0;pointerEvents=1;fontSize=16;gradientColor=#7ea6e0;" vertex="1" parent="YH87qwvY-_v2b3p151Pb-2">
          <mxGeometry width="116" height="40" as="geometry">
            <mxRectangle width="116" height="40" as="alternateBounds" />
          </mxGeometry>
        </mxCell>
        <mxCell id="YH87qwvY-_v2b3p151Pb-4" value="ID_Inventario" style="shape=partialRectangle;html=1;whiteSpace=wrap;connectable=0;strokeColor=#6c8ebf;overflow=hidden;fillColor=#dae8fc;top=0;left=0;bottom=0;right=0;pointerEvents=1;fontSize=16;gradientColor=#7ea6e0;" vertex="1" parent="YH87qwvY-_v2b3p151Pb-2">
          <mxGeometry x="116" width="118" height="40" as="geometry">
            <mxRectangle width="118" height="40" as="alternateBounds" />
          </mxGeometry>
        </mxCell>
        <mxCell id="YH87qwvY-_v2b3p151Pb-5" value="Cantidad" style="shape=partialRectangle;html=1;whiteSpace=wrap;connectable=0;strokeColor=#6c8ebf;overflow=hidden;fillColor=#dae8fc;top=0;left=0;bottom=0;right=0;pointerEvents=1;fontSize=16;gradientColor=#7ea6e0;" vertex="1" parent="YH87qwvY-_v2b3p151Pb-2">
          <mxGeometry x="234" width="116" height="40" as="geometry">
            <mxRectangle width="116" height="40" as="alternateBounds" />
          </mxGeometry>
        </mxCell>
        <mxCell id="YH87qwvY-_v2b3p151Pb-17" value="Ubicacion" style="shape=partialRectangle;html=1;whiteSpace=wrap;connectable=0;strokeColor=#6c8ebf;overflow=hidden;fillColor=#dae8fc;top=0;left=0;bottom=0;right=0;pointerEvents=1;fontSize=16;gradientColor=#7ea6e0;" vertex="1" parent="YH87qwvY-_v2b3p151Pb-2">
          <mxGeometry x="350" width="116" height="40" as="geometry">
            <mxRectangle width="116" height="40" as="alternateBounds" />
          </mxGeometry>
        </mxCell>
        <mxCell id="YH87qwvY-_v2b3p151Pb-6" value="" style="shape=tableRow;horizontal=0;startSize=0;swimlaneHead=0;swimlaneBody=0;strokeColor=inherit;top=0;left=0;bottom=0;right=0;collapsible=0;dropTarget=0;fillColor=none;points=[[0,0.5],[1,0.5]];portConstraint=eastwest;fontSize=16;" vertex="1" parent="YH87qwvY-_v2b3p151Pb-1">
          <mxGeometry y="40" width="466" height="40" as="geometry" />
        </mxCell>
        <mxCell id="YH87qwvY-_v2b3p151Pb-7" value="1" style="shape=partialRectangle;html=1;whiteSpace=wrap;connectable=0;strokeColor=inherit;overflow=hidden;fillColor=none;top=0;left=0;bottom=0;right=0;pointerEvents=1;fontSize=16;" vertex="1" parent="YH87qwvY-_v2b3p151Pb-6">
          <mxGeometry width="116" height="40" as="geometry">
            <mxRectangle width="116" height="40" as="alternateBounds" />
          </mxGeometry>
        </mxCell>
        <mxCell id="YH87qwvY-_v2b3p151Pb-8" value="1" style="shape=partialRectangle;html=1;whiteSpace=wrap;connectable=0;strokeColor=inherit;overflow=hidden;fillColor=none;top=0;left=0;bottom=0;right=0;pointerEvents=1;fontSize=16;" vertex="1" parent="YH87qwvY-_v2b3p151Pb-6">
          <mxGeometry x="116" width="118" height="40" as="geometry">
            <mxRectangle width="118" height="40" as="alternateBounds" />
          </mxGeometry>
        </mxCell>
        <mxCell id="YH87qwvY-_v2b3p151Pb-9" value="100" style="shape=partialRectangle;html=1;whiteSpace=wrap;connectable=0;strokeColor=inherit;overflow=hidden;fillColor=none;top=0;left=0;bottom=0;right=0;pointerEvents=1;fontSize=16;" vertex="1" parent="YH87qwvY-_v2b3p151Pb-6">
          <mxGeometry x="234" width="116" height="40" as="geometry">
            <mxRectangle width="116" height="40" as="alternateBounds" />
          </mxGeometry>
        </mxCell>
        <mxCell id="YH87qwvY-_v2b3p151Pb-18" value="A1" style="shape=partialRectangle;html=1;whiteSpace=wrap;connectable=0;strokeColor=inherit;overflow=hidden;fillColor=none;top=0;left=0;bottom=0;right=0;pointerEvents=1;fontSize=16;" vertex="1" parent="YH87qwvY-_v2b3p151Pb-6">
          <mxGeometry x="350" width="116" height="40" as="geometry">
            <mxRectangle width="116" height="40" as="alternateBounds" />
          </mxGeometry>
        </mxCell>
        <mxCell id="YH87qwvY-_v2b3p151Pb-10" value="" style="shape=tableRow;horizontal=0;startSize=0;swimlaneHead=0;swimlaneBody=0;strokeColor=inherit;top=0;left=0;bottom=0;right=0;collapsible=0;dropTarget=0;fillColor=none;points=[[0,0.5],[1,0.5]];portConstraint=eastwest;fontSize=16;" vertex="1" parent="YH87qwvY-_v2b3p151Pb-1">
          <mxGeometry y="80" width="466" height="40" as="geometry" />
        </mxCell>
        <mxCell id="YH87qwvY-_v2b3p151Pb-11" value="2" style="shape=partialRectangle;html=1;whiteSpace=wrap;connectable=0;strokeColor=inherit;overflow=hidden;fillColor=none;top=0;left=0;bottom=0;right=0;pointerEvents=1;fontSize=16;" vertex="1" parent="YH87qwvY-_v2b3p151Pb-10">
          <mxGeometry width="116" height="40" as="geometry">
            <mxRectangle width="116" height="40" as="alternateBounds" />
          </mxGeometry>
        </mxCell>
        <mxCell id="YH87qwvY-_v2b3p151Pb-12" value="2" style="shape=partialRectangle;html=1;whiteSpace=wrap;connectable=0;strokeColor=inherit;overflow=hidden;fillColor=none;top=0;left=0;bottom=0;right=0;pointerEvents=1;fontSize=16;" vertex="1" parent="YH87qwvY-_v2b3p151Pb-10">
          <mxGeometry x="116" width="118" height="40" as="geometry">
            <mxRectangle width="118" height="40" as="alternateBounds" />
          </mxGeometry>
        </mxCell>
        <mxCell id="YH87qwvY-_v2b3p151Pb-13" value="150" style="shape=partialRectangle;html=1;whiteSpace=wrap;connectable=0;strokeColor=inherit;overflow=hidden;fillColor=none;top=0;left=0;bottom=0;right=0;pointerEvents=1;fontSize=16;" vertex="1" parent="YH87qwvY-_v2b3p151Pb-10">
          <mxGeometry x="234" width="116" height="40" as="geometry">
            <mxRectangle width="116" height="40" as="alternateBounds" />
          </mxGeometry>
        </mxCell>
        <mxCell id="YH87qwvY-_v2b3p151Pb-19" value="A3" style="shape=partialRectangle;html=1;whiteSpace=wrap;connectable=0;strokeColor=inherit;overflow=hidden;fillColor=none;top=0;left=0;bottom=0;right=0;pointerEvents=1;fontSize=16;" vertex="1" parent="YH87qwvY-_v2b3p151Pb-10">
          <mxGeometry x="350" width="116" height="40" as="geometry">
            <mxRectangle width="116" height="40" as="alternateBounds" />
          </mxGeometry>
        </mxCell>
        <mxCell id="YH87qwvY-_v2b3p151Pb-20" style="shape=tableRow;horizontal=0;startSize=0;swimlaneHead=0;swimlaneBody=0;strokeColor=inherit;top=0;left=0;bottom=0;right=0;collapsible=0;dropTarget=0;fillColor=none;points=[[0,0.5],[1,0.5]];portConstraint=eastwest;fontSize=16;" vertex="1" parent="YH87qwvY-_v2b3p151Pb-1">
          <mxGeometry y="120" width="466" height="40" as="geometry" />
        </mxCell>
        <mxCell id="YH87qwvY-_v2b3p151Pb-21" value="3" style="shape=partialRectangle;html=1;whiteSpace=wrap;connectable=0;strokeColor=inherit;overflow=hidden;fillColor=none;top=0;left=0;bottom=0;right=0;pointerEvents=1;fontSize=16;" vertex="1" parent="YH87qwvY-_v2b3p151Pb-20">
          <mxGeometry width="116" height="40" as="geometry">
            <mxRectangle width="116" height="40" as="alternateBounds" />
          </mxGeometry>
        </mxCell>
        <mxCell id="YH87qwvY-_v2b3p151Pb-22" value="1" style="shape=partialRectangle;html=1;whiteSpace=wrap;connectable=0;strokeColor=inherit;overflow=hidden;fillColor=none;top=0;left=0;bottom=0;right=0;pointerEvents=1;fontSize=16;" vertex="1" parent="YH87qwvY-_v2b3p151Pb-20">
          <mxGeometry x="116" width="118" height="40" as="geometry">
            <mxRectangle width="118" height="40" as="alternateBounds" />
          </mxGeometry>
        </mxCell>
        <mxCell id="YH87qwvY-_v2b3p151Pb-23" value="200" style="shape=partialRectangle;html=1;whiteSpace=wrap;connectable=0;strokeColor=inherit;overflow=hidden;fillColor=none;top=0;left=0;bottom=0;right=0;pointerEvents=1;fontSize=16;" vertex="1" parent="YH87qwvY-_v2b3p151Pb-20">
          <mxGeometry x="234" width="116" height="40" as="geometry">
            <mxRectangle width="116" height="40" as="alternateBounds" />
          </mxGeometry>
        </mxCell>
        <mxCell id="YH87qwvY-_v2b3p151Pb-24" value="B2" style="shape=partialRectangle;html=1;whiteSpace=wrap;connectable=0;strokeColor=inherit;overflow=hidden;fillColor=none;top=0;left=0;bottom=0;right=0;pointerEvents=1;fontSize=16;" vertex="1" parent="YH87qwvY-_v2b3p151Pb-20">
          <mxGeometry x="350" width="116" height="40" as="geometry">
            <mxRectangle width="116" height="40" as="alternateBounds" />
          </mxGeometry>
        </mxCell>
        <mxCell id="YH87qwvY-_v2b3p151Pb-25" style="shape=tableRow;horizontal=0;startSize=0;swimlaneHead=0;swimlaneBody=0;strokeColor=inherit;top=0;left=0;bottom=0;right=0;collapsible=0;dropTarget=0;fillColor=none;points=[[0,0.5],[1,0.5]];portConstraint=eastwest;fontSize=16;" vertex="1" parent="YH87qwvY-_v2b3p151Pb-1">
          <mxGeometry y="160" width="466" height="40" as="geometry" />
        </mxCell>
        <mxCell id="YH87qwvY-_v2b3p151Pb-26" value="4" style="shape=partialRectangle;html=1;whiteSpace=wrap;connectable=0;strokeColor=inherit;overflow=hidden;fillColor=none;top=0;left=0;bottom=0;right=0;pointerEvents=1;fontSize=16;" vertex="1" parent="YH87qwvY-_v2b3p151Pb-25">
          <mxGeometry width="116" height="40" as="geometry">
            <mxRectangle width="116" height="40" as="alternateBounds" />
          </mxGeometry>
        </mxCell>
        <mxCell id="YH87qwvY-_v2b3p151Pb-27" value="2" style="shape=partialRectangle;html=1;whiteSpace=wrap;connectable=0;strokeColor=inherit;overflow=hidden;fillColor=none;top=0;left=0;bottom=0;right=0;pointerEvents=1;fontSize=16;" vertex="1" parent="YH87qwvY-_v2b3p151Pb-25">
          <mxGeometry x="116" width="118" height="40" as="geometry">
            <mxRectangle width="118" height="40" as="alternateBounds" />
          </mxGeometry>
        </mxCell>
        <mxCell id="YH87qwvY-_v2b3p151Pb-28" value="100" style="shape=partialRectangle;html=1;whiteSpace=wrap;connectable=0;strokeColor=inherit;overflow=hidden;fillColor=none;top=0;left=0;bottom=0;right=0;pointerEvents=1;fontSize=16;" vertex="1" parent="YH87qwvY-_v2b3p151Pb-25">
          <mxGeometry x="234" width="116" height="40" as="geometry">
            <mxRectangle width="116" height="40" as="alternateBounds" />
          </mxGeometry>
        </mxCell>
        <mxCell id="YH87qwvY-_v2b3p151Pb-29" value="B4" style="shape=partialRectangle;html=1;whiteSpace=wrap;connectable=0;strokeColor=inherit;overflow=hidden;fillColor=none;top=0;left=0;bottom=0;right=0;pointerEvents=1;fontSize=16;" vertex="1" parent="YH87qwvY-_v2b3p151Pb-25">
          <mxGeometry x="350" width="116" height="40" as="geometry">
            <mxRectangle width="116" height="40" as="alternateBounds" />
          </mxGeometry>
        </mxCell>
        <mxCell id="YH87qwvY-_v2b3p151Pb-15" value="Inventarios" style="text;html=1;align=center;verticalAlign=middle;whiteSpace=wrap;rounded=0;fontStyle=1;fontSize=14;" vertex="1" parent="1">
          <mxGeometry x="259" y="160" width="60" height="30" as="geometry" />
        </mxCell>
        <mxCell id="YH87qwvY-_v2b3p151Pb-16" value="Detalle ubicaciones:" style="text;html=1;align=center;verticalAlign=middle;whiteSpace=wrap;rounded=0;fontStyle=1;fontSize=14;" vertex="1" parent="1">
          <mxGeometry x="240" y="370" width="156" height="30" as="geometry" />
        </mxCell>
      </root>
    </mxGraphModel>
  </diagram>
</mxfile>
